<?xml version="1.0" encoding="utf-8"?>
<!-- Generator: Adobe Illustrator 25.0.0, SVG Export Plug-In . SVG Version: 6.00 Build 0)  -->
<svg version="1.1" id="Calque_1" xmlns="http://www.w3.org/2000/svg" xmlns:xlink="http://www.w3.org/1999/xlink" x="0px" y="0px"
	 viewBox="0 0 1056.6 51.6" style="enable-background:new 0 0 1056.6 51.6;" xml:space="preserve">
<style type="text/css">
	.st0{fill:#FFFFFF;stroke:#0000FF;stroke-width:1.85;stroke-miterlimit:10;}
	.st1{fill:#0000FF;}
	.st2{font-family:'Adelphe-GerminalRegular';}
	.st3{font-size:12px;}
</style>
<g id="Calque_2_1_">
	<g id="Calque_1-2">
		<g>
			<g>
				<path class="st0" d="M1022.7,34.7c7.5-2.1,13.8-4.4,21.1-6.8c-25.2,0.9-48.2,2-71.4,2.7c-55.8,1.6-111.9,1.4-167.9,0.5
					C766.6,30.5,580.1,5.9,568.9,4.6c-12.6-2.3-25.3-3.5-38.1-3.7h-4.6c-12.8,0-25.6,1.3-38.1,3.7c-6,1-198.8,25.9-235.6,26.5
					c-56.1,0.9-112.1,1.1-167.9-0.5c-23.3-0.7-46.2-1.7-71.4-2.7c7.3,2.4,13.6,4.6,21.1,6.8c3.9,1.1,3.5,1.8-1.6,2.7
					c-8.2,1.4-15.6,3-25.2,4.9c13.3,0.8,24.4,1.5,35.7,2c74.7,3.2,161.4,2.5,237.3,1.9c16.8-0.1,219-28,247.4-27.9
					s244.8,27.6,261.2,27.9c35.6,0.5,69.8,0.5,105.3,0.5c1.5,0.1,83.7,0.5,155.1-4.4c-9.6-1.9-17-3.5-25.2-4.9
					C1019.2,36.4,1018.8,35.8,1022.7,34.7z"/>
			</g>
		</g>
		<text transform="matrix(1 6.108614e-03 -6.108614e-03 1 44.38 41.76)" class="st1 st2 st3">D</text>
		<text transform="matrix(1 6.108614e-03 -6.108614e-03 1 53.22 41.81)" class="st1 st2 st3">O</text>
		<text transform="matrix(1 6.108614e-03 -6.108614e-03 1 62.41 41.87)" class="st1 st2 st3">M</text>
		<text transform="matrix(1 6.108614e-03 -6.108614e-03 1 73.62 41.94)" class="st1 st2 st3">O</text>
		<text transform="matrix(1 6.108614e-03 -6.108614e-03 1 82.93 41.99)" class="st1 st2 st3">T</text>
		<text transform="matrix(1 6.108614e-03 -6.108614e-03 1 91.12 42.05)" class="st1 st2 st3">E</text>
		<text transform="matrix(1 6.108614e-03 -6.108614e-03 1 98.33 42.09)" class="st1 st2 st3">C</text>
		<text transform="matrix(1 6.108614e-03 -6.108614e-03 1 109.63 42.16)" class="st1 st2 st3">U</text>
		<text transform="matrix(1 6.108614e-03 -6.108614e-03 1 118.32 42.21)" class="st1 st2 st3">N</text>
		<text transform="matrix(1 6.108614e-03 -6.108614e-03 1 127.67 42.27)" class="st1 st2 st3">E</text>
		<text transform="matrix(1 6.108614e-03 -6.108614e-03 1 137.88 42.34)" class="st1 st2 st3">S</text>
		<text transform="matrix(1 6.108614e-03 -6.108614e-03 1 144.61 42.38)" class="st1 st2 st3">O</text>
		<text transform="matrix(1 6.108614e-03 -6.108614e-03 1 153.68 42.43)" class="st1 st2 st3">L</text>
		<text transform="matrix(1 6.108614e-03 -6.108614e-03 1 160.43 42.47)" class="st1 st2 st3">U</text>
		<text transform="matrix(1 6.108614e-03 -6.108614e-03 1 169.12 42.53)" class="st1 st2 st3">T</text>
		<text transform="matrix(1 6.108614e-03 -6.108614e-03 1 177.3 42.58)" class="st1 st2 st3">I</text>
		<text transform="matrix(1 6.108614e-03 -6.108614e-03 1 181.18 42.6)" class="st1 st2 st3">O</text>
		<text transform="matrix(1 6.108614e-03 -6.108614e-03 1 190.13 42.66)" class="st1 st2 st3">N</text>
		<text transform="matrix(1 6.108614e-03 -6.108614e-03 1 202.48 42.74)" class="st1 st2 st3">P</text>
		<text transform="matrix(1 6.108614e-03 -6.108614e-03 1 209.7 42.78)" class="st1 st2 st3">R</text>
		<text transform="matrix(1 6.108614e-03 -6.108614e-03 1 216.97 42.82)" class="st1 st2 st3">O</text>
		<text transform="matrix(1 6.108614e-03 -6.108614e-03 1 226.04 42.88)" class="st1 st2 st3">P</text>
		<text transform="matrix(1 6.108614e-03 -6.108614e-03 1 233.27 42.93)" class="st1 st2 st3">O</text>
		<text transform="matrix(1 6.108614e-03 -6.108614e-03 1 242.58 42.98)" class="st1 st2 st3">S</text>
		<text transform="matrix(1 6.108614e-03 -6.108614e-03 1 249.43 43.03)" class="st1 st2 st3">É</text>
		<text transform="matrix(1 6.108614e-03 -6.108614e-03 1 256.64 43.07)" class="st1 st2 st3">E</text>
		<text transform="matrix(1 6.108614e-03 -6.108614e-03 1 266.85 43.13)" class="st1 st2 st3">P</text>
		<text transform="matrix(0.9933 -0.116 0.116 0.9933 273.36 43.18)" class="st1 st2 st3">A</text>
		<text transform="matrix(0.9933 -0.116 0.116 0.9933 281.01 42.29)" class="st1 st2 st3">R</text>
		<text transform="matrix(0.9933 -0.116 0.116 0.9933 291.69 41.04)" class="st1 st2 st3">U</text>
		<text transform="matrix(0.9933 -0.116 0.116 0.9933 300.32 40.03)" class="st1 st2 st3">N</text>
		<text transform="matrix(0.9933 -0.116 0.116 0.9933 309.6 38.95)" class="st1 st2 st3">E</text>
		<text transform="matrix(0.9933 -0.116 0.116 0.9933 319.74 37.76)" class="st1 st2 st3">A</text>
		<text transform="matrix(0.9933 -0.116 0.116 0.9933 327.4 36.87)" class="st1 st2 st3">L</text>
		<text transform="matrix(0.9933 -0.116 0.116 0.9933 334.33 36.06)" class="st1 st2 st3">I</text>
		<text transform="matrix(0.9933 -0.116 0.116 0.9933 338.3 35.6)" class="st1 st2 st3">A</text>
		<text transform="matrix(0.9933 -0.116 0.116 0.9933 345.95 34.7)" class="st1 st2 st3">N</text>
		<text transform="matrix(0.9933 -0.116 0.116 0.9933 355 33.65)" class="st1 st2 st3">C</text>
		<text transform="matrix(0.9933 -0.116 0.116 0.9933 363.25 32.68)" class="st1 st2 st3">E</text>
		<text transform="matrix(0.9933 -0.116 0.116 0.9933 373.39 31.5)" class="st1 st2 st3">G</text>
		<text transform="matrix(0.9933 -0.116 0.116 0.9933 382.39 30.45)" class="st1 st2 st3">O</text>
		<text transform="matrix(0.9933 -0.116 0.116 0.9933 391.64 29.37)" class="st1 st2 st3">U</text>
		<text transform="matrix(0.9933 -0.116 0.116 0.9933 400.27 28.36)" class="st1 st2 st3">R</text>
		<text transform="matrix(0.9933 -0.116 0.116 0.9933 407.61 27.5)" class="st1 st2 st3">V</text>
		<text transform="matrix(0.9933 -0.116 0.116 0.9933 415.26 26.61)" class="st1 st2 st3">E</text>
		<text transform="matrix(0.9933 -0.116 0.116 0.9933 422.43 25.77)" class="st1 st2 st3">R</text>
		<text transform="matrix(0.9933 -0.116 0.116 0.9933 430.13 24.87)" class="st1 st2 st3">N</text>
		<text transform="matrix(0.9933 -0.116 0.116 0.9933 439.41 23.79)" class="st1 st2 st3">E</text>
		<text transform="matrix(0.9933 -0.116 0.116 0.9933 446.57 22.95)" class="st1 st2 st3">M</text>
		<text transform="matrix(0.9933 -0.116 0.116 0.9933 457.71 21.65)" class="st1 st2 st3">E</text>
		<text transform="matrix(0.9933 -0.116 0.116 0.9933 464.87 20.82)" class="st1 st2 st3">N</text>
		<text transform="matrix(0.9933 -0.116 0.116 0.9933 474.15 19.73)" class="st1 st2 st3">T</text>
		<text transform="matrix(0.9933 -0.116 0.116 0.9933 481.57 18.87)" class="st1 st2 st3">A</text>
		<text transform="matrix(0.9933 -0.116 0.116 0.9933 489.22 17.97)" class="st1 st2 st3">L</text>
		<text transform="matrix(0.9933 -0.116 0.116 0.9933 499.14 16.82)" class="st1 st2 st3">E</text>
		<text transform="matrix(0.9933 -0.116 0.116 0.9933 506.3 15.98)" class="st1 st2 st3">U</text>
		<text transform="matrix(0.9933 -0.116 0.116 0.9933 514.93 14.97)" class="st1 st2 st3">R</text>
		<text transform="matrix(0.9933 -0.116 0.116 0.9933 522.15 14.13)" class="st1 st2 st3">O</text>
		<text transform="matrix(0.9934 0.1148 -0.1148 0.9934 531.1599 13.74)" class="st1 st2 st3">P</text>
		<text transform="matrix(0.9934 0.1148 -0.1148 0.9934 538.34 14.57)" class="st1 st2 st3">E</text>
		<text transform="matrix(0.9934 0.1148 -0.1148 0.9934 545.5 15.3999)" class="st1 st2 st3">E</text>
		<text transform="matrix(0.9934 0.1148 -0.1148 0.9934 552.6699 16.22)" class="st1 st2 st3">N</text>
		<text transform="matrix(0.9934 0.1148 -0.1148 0.9934 561.95 17.29)" class="st1 st2 st3">E</text>
		<text transform="matrix(0.9934 0.1148 -0.1148 0.9934 572.1 18.47)" class="st1 st2 st3">P</text>
		<text transform="matrix(0.9934 0.1148 -0.1148 0.9934 579.27 19.29)" class="st1 st2 st3">O</text>
		<text transform="matrix(0.9934 0.1148 -0.1148 0.9934 588.53 20.36)" class="st1 st2 st3">U</text>
		<text transform="matrix(0.9934 0.1148 -0.1148 0.9934 597.1599 21.36)" class="st1 st2 st3">R</text>
		<text transform="matrix(0.9934 0.1148 -0.1148 0.9934 607.84 22.59)" class="st1 st2 st3">D</text>
		<text transform="matrix(0.9934 0.1148 -0.1148 0.9934 616.38 23.58)" class="st1 st2 st3">E</text>
		<text transform="matrix(0.9934 0.1148 -0.1148 0.9934 623.5499 24.3999)" class="st1 st2 st3">S</text>
		<text transform="matrix(0.9934 0.1148 -0.1148 0.9934 633.22 25.5199)" class="st1 st2 st3">U</text>
		<text transform="matrix(0.9934 0.1148 -0.1148 0.9934 641.85 26.5199)" class="st1 st2 st3">T</text>
		<text transform="matrix(0.9934 0.1148 -0.1148 0.9934 649.98 27.46)" class="st1 st2 st3">I</text>
		<text transform="matrix(0.9934 0.1148 -0.1148 0.9934 653.95 27.91)" class="st1 st2 st3">L</text>
		<text transform="matrix(0.9934 0.1148 -0.1148 0.9934 660.89 28.72)" class="st1 st2 st3">I</text>
		<text transform="matrix(0.9934 0.1148 -0.1148 0.9934 664.85 29.17)" class="st1 st2 st3">S</text>
		<text transform="matrix(0.9934 0.1148 -0.1148 0.9934 671.4199 29.93)" class="st1 st2 st3">A</text>
		<text transform="matrix(0.9934 0.1148 -0.1148 0.9934 678.36 30.73)" class="st1 st2 st3">T</text>
		<text transform="matrix(0.9934 0.1148 -0.1148 0.9934 686.49 31.67)" class="st1 st2 st3">I</text>
		<text transform="matrix(0.9934 0.1148 -0.1148 0.9934 690.34 32.12)" class="st1 st2 st3">O</text>
		<text transform="matrix(0.9934 0.1148 -0.1148 0.9934 699.23 33.1399)" class="st1 st2 st3">N</text>
		<text transform="matrix(0.9934 0.1148 -0.1148 0.9934 708.52 34.21)" class="st1 st2 st3">S</text>
		<text transform="matrix(0.9934 0.1148 -0.1148 0.9934 718.1899 35.33)" class="st1 st2 st3">A</text>
		<text transform="matrix(0.9934 0.1148 -0.1148 0.9934 725.84 36.21)" class="st1 st2 st3">L</text>
		<text transform="matrix(0.9934 0.1148 -0.1148 0.9934 731.59 36.8801)" class="st1 st2 st3">T</text>
		<text transform="matrix(0.9934 0.1148 -0.1148 0.9934 739.72 37.82)" class="st1 st2 st3">E</text>
		<text transform="matrix(0.9934 0.1148 -0.1148 0.9934 746.88 38.6399)" class="st1 st2 st3">R</text>
		<text transform="matrix(0.9934 0.1148 -0.1148 0.9934 754.58 39.53)" class="st1 st2 st3">N</text>
		<text transform="matrix(0.9934 0.1148 -0.1148 0.9934 763.87 40.6)" class="st1 st2 st3">A</text>
		<text transform="matrix(0.9934 0.1148 -0.1148 0.9934 770.8099 41.3999)" class="st1 st2 st3">T</text>
		<text transform="matrix(0.9934 0.1148 -0.1148 0.9934 778.9399 42.34)" class="st1 st2 st3">I</text>
		<text transform="matrix(0.9934 0.1148 -0.1148 0.9934 782.9099 42.8)" class="st1 st2 st3">V</text>
		<text transform="matrix(1 0 0 1 790.57 43.4)" class="st1 st2 st3">E</text>
		<text transform="matrix(1 0 0 1 800.79 43.45)" class="st1 st2 st3">A</text>
		<text transform="matrix(1 0 0 1 808.25 43.48)" class="st1 st2 st3">U</text>
		<text transform="matrix(1 0 0 1 816.94 43.52)" class="st1 st2 st3">X</text>
		<text transform="matrix(1 0 0 1 828.13 43.57)" class="st1 st2 st3">U</text>
		<text transform="matrix(1 0 0 1 836.82 43.61)" class="st1 st2 st3">S</text>
		<text transform="matrix(1 0 0 1 843.43 43.64)" class="st1 st2 st3">A</text>
		<text transform="matrix(1 0 0 1 850.78 43.68)" class="st1 st2 st3">G</text>
		<text transform="matrix(1 0 0 1 859.84 43.72)" class="st1 st2 st3">E</text>
		<text transform="matrix(1 0 0 1 867.05 43.75)" class="st1 st2 st3">S</text>
		<text transform="matrix(1 0 0 1 876.78 43.8)" class="st1 st2 st3">D</text>
		<text transform="matrix(1 0 0 1 885.51 43.84)" class="st1 st2 st3">’</text>
		<text transform="matrix(1 0 0 1 887.98 43.85)" class="st1 st2 st3">O</text>
		<text transform="matrix(0.9998 -2.198938e-02 2.198938e-02 0.9998 897.05 43.85)" class="st1 st2 st3">B</text>
		<text transform="matrix(0.9998 -2.198938e-02 2.198938e-02 0.9998 904.28 43.69)" class="st1 st2 st3">J</text>
		<text transform="matrix(0.9998 -2.198938e-02 2.198938e-02 0.9998 908.24 43.6)" class="st1 st2 st3">E</text>
		<text transform="matrix(0.9998 -2.198938e-02 2.198938e-02 0.9998 915.45 43.45)" class="st1 st2 st3">T</text>
		<text transform="matrix(0.9998 -2.198938e-02 2.198938e-02 0.9998 923.63 43.27)" class="st1 st2 st3">S</text>
		<text transform="matrix(0.9998 -2.198938e-02 2.198938e-02 0.9998 933.36 43.05)" class="st1 st2 st3">T</text>
		<text transform="matrix(0.9998 -2.198938e-02 2.198938e-02 0.9998 941.55 42.87)" class="st1 st2 st3">E</text>
		<text transform="matrix(0.9998 -2.198938e-02 2.198938e-02 0.9998 948.76 42.71)" class="st1 st2 st3">C</text>
		<text transform="matrix(0.9998 -2.198938e-02 2.198938e-02 0.9998 957.06 42.53)" class="st1 st2 st3">H</text>
		<text transform="matrix(0.9998 -2.198938e-02 2.198938e-02 0.9998 966.64 42.32)" class="st1 st2 st3">N</text>
		<text transform="matrix(0.9998 -2.198938e-02 2.198938e-02 0.9998 975.99 42.11)" class="st1 st2 st3">I</text>
		<text transform="matrix(0.9998 -2.198938e-02 2.198938e-02 0.9998 979.86 42.03)" class="st1 st2 st3">Q</text>
		<text transform="matrix(0.9998 -2.198938e-02 2.198938e-02 0.9998 989.19 41.82)" class="st1 st2 st3">U</text>
		<text transform="matrix(0.9998 -2.198938e-02 2.198938e-02 0.9998 997.87 41.63)" class="st1 st2 st3">E</text>
		<text transform="matrix(0.9998 -2.198938e-02 2.198938e-02 0.9998 1005.08 41.48)" class="st1 st2 st3">S</text>
		<text transform="matrix(0.9998 -2.198938e-02 2.198938e-02 0.9998 1011.45 41.33)" class="st1 st2 st3">.</text>
	</g>
</g>
</svg>
