<svg xmlns="http://www.w3.org/2000/svg" xmlns:xlink="http://www.w3.org/1999/xlink" viewBox="0 0 533.13 470.19"><defs><style>.cls-1,.cls-4,.cls-7{fill:none;}.cls-2{fill:#fff;}.cls-3,.cls-8{fill:#312783;}.cls-4,.cls-5,.cls-6{stroke:#27348b;}.cls-4,.cls-5,.cls-6,.cls-7,.cls-8{stroke-miterlimit:10;}.cls-5{fill:#1d1d1b;}.cls-6{fill:#27348b;}.cls-7,.cls-8{stroke:#312783;}.cls-9{clip-path:url(#clip-path);}</style><clipPath id="clip-path"><rect class="cls-1" x="331.36" y="340.47" width="201.77" height="128.62"/></clipPath></defs><g id="Calque_2" data-name="Calque 2"><g id="Calque_1-2" data-name="Calque 1"><polygon class="cls-2" points="453.13 109.59 461.93 113.21 452.01 111.64 453.13 109.59"/><path class="cls-3" d="M358.24,46.56c-4.84-7.7-7.88-16.17-11-24.63C343.11,11,335.07,5.31,323.32,5.05c-.71,0-1.42.12-2.17.18.1.44,2.12.81,3.12.88,8.82.58,15.85,4.14,20,12.24,1.33,2.57,2.22,5.36,3.41,8,2.71,6,5.39,12,8.23,18,12.9,20.28,15.24,27.54,15.63,27.41-1.23-3.08-2.17-6.33-3.75-9.22C364.83,57.11,361.55,51.82,358.24,46.56Z"/><path class="cls-3" d="M297.91,4.9c0,.33,0,.66,0,1l12.32-.73c0-.34,0-.69,0-1Z"/><path class="cls-3" d="M475.84,57.75c-2.64-4.93-6.86-7.19-12.54-7.37A42.76,42.76,0,0,0,444.52,54c-13.79,6.13-27.32,12.9-40.83,19.65-3.89,2-7.61,3.88-12,2.2-9.41-3.63-18.16-8.17-23-17.79-1-2.06-2.44-3.92-3.49-6-3.49-6.85-7.09-13.66-10.29-20.66-2.79-6.09-4.69-12.58-7.64-18.6C343.58,5.18,338.22,0,315.85,0c-16.65,0-33.41.51-49.93,2.65A67.64,67.64,0,0,0,249.5,7.28c-5.8,2.36-6.11,8.79-1,12.43a35.24,35.24,0,0,0,3.57,2.11,4.31,4.31,0,0,0,.82,3.73c1.93,2,9.77-1.06,9.76-.66-.08,4.94,5.36,2.94,7.65,2.24a32,32,0,0,0,3.58-1.55c1.29,4.78,8.14-.11,8.14-.11,1.34,4.72,10.72-.91,11,.23.91,3.39,8.84-.75,9-.54,2,2.16,4.09.61,6.08.24,3.26-.62,6.82-1.53,10.2-2.32-.79,1.93-2,3-2.33,5.1a1.89,1.89,0,0,0,2.79,2c-.23,1.67-.45,3.6,1.69,4.59-1.39,2.58-1.15,4.78.34,5.34.48.18.88.7.73,1-1.17,2.67.6,3.71,2.34,3.86-1.43,3.6-.1,4.9,1.89,5.72.59.25-.26,1.07.82,1.93.2.15,1.25.64,1.79.38-.84,2.83-1,3.09-.48,3.74.49.42,1.87.52,1.72,1-.57,2,.14,2.53,1.94,3.14.82.37.49,1.36.49,1.36-.73,1.36.48,3.29,1.91,3.79-.22,1.12-.95,1.82.12,2.88a3.37,3.37,0,0,0,2.33.51c.76.38.31,1.25.48,1.91.46,1.8,1.93.86,1.58,2.08-.63,2.28,1.34,3.14,3.09,3.27-.6,1.77-.46,2.29.05,2.82s2.15-.22,2.06-.2c.18,1.61.32,2.56,2.19,2.81a33.28,33.28,0,0,0,.12,3.38,12.48,12.48,0,0,1-4.35,9.86c-3.5,3.08-5.87,4.88-9.36,8-1.87,1.65-4.11,4.48-6.19,5.86-3,2-6.11,3.84-9.34,5.82-1.86,1.11-.31,3.28-.07,3.64l6.84,8.64c.15,0,1,.13,1.32.14s8.68-8.16,21.74-6.75c-.22,2.3-.52,4.29-.59,6.28-.11,3.81,2.94,5.9,5.92,3.66,3.43-2.57,6.24-5.95,9.88-9.53,4.93-.66,10.71-1.36,16.14-4.49.05.08,10-6.53,13.67-8.92,5.9-3.88,12-5,18.85-2.35,8.79,3.32,17.63,6.78,27.21,7.22,3.2.15,7.31-.62,10.34.42,5.33,1.84,9.2.68,14.17,1.11a1.7,1.7,0,0,0,1.3-.45l.9-1.16c-1.08-.64-2.11-1.19-3.26-1.89-3.6-2.21-7-4.13-9.84-7.19a6.46,6.46,0,0,0-7.21-1.7c-13.1,4.56-27.71-5.84-33.68-12.63-1.12-1.28-1.18-2.88.44-3.53a168.75,168.75,0,0,1,17.64-6.47c3.94-1.09,8.24-.89,12.51-1.27.51,3.75.82,5.46,3.93,3.82-.22,4.38,1.77,4.49,2.71,4.13l.08,0c-.3,2.11.93,3.63,3.57,3.35a3.41,3.41,0,0,0,.81,2.24s2.12.91,3.2-.3c0,1.16-.17,2.39.55,3.09.43.42,1.26.67,2.95.32.05,1,.08,4.18,2.66,2.56-.05,1.83.55,4,2.93,2.58,1.24,2.77,1.85,5.77,3.21,8.43a1.35,1.35,0,0,0,1.81.81h0l3.88-2.08a48.16,48.16,0,0,0,3.39,4.9c2,2.7,3.77,2.82,5.33,0a42.69,42.69,0,0,0,2.39-6.61,60.5,60.5,0,0,0,4.15,5.37,2.57,2.57,0,0,0,4.55-1,23.48,23.48,0,0,0,.68-3.49c2.27.74,3.27,1.12,4.12.66,2.49-1.36,2.49-3.31,2.24-5.32a8.21,8.21,0,0,1-.24-1.75c.93.53,1.92,1.28,2.25,1.41a3.28,3.28,0,0,0,4.42-3C506.12,96.87,482.77,70.7,475.84,57.75ZM503.31,99.8c-.91.12-4.87-2.49-4.89-2.69a45.65,45.65,0,0,1,.61,6.14,2.88,2.88,0,0,1-1.61,2.18,3.29,3.29,0,0,1-2.5-1,36.92,36.92,0,0,1-3.05-4c.17,3.93,1.32,10-1.1,10.54a4.3,4.3,0,0,1-2.3-1.77c-6.57-9-8.2-20-12.06-30.21-.1.88,3.74,14.44,5.85,20.27,1.33,3.66.79,7.13-.23,10.55-.92,3-4.72,1.32-4.74,1.34-3.25-2.79-5.05-23.9-5.32-23.87v18.31c-1.2,2.19-3.92,1.73-4.23.08-.7-1.94-1.79-16.75-2.09-20.56,0,0-.6,14.61-3,13.86,0-7.15,1.33-13.13,1.33-20.28-.23.13-1.93,19.07-3.81,17.74-.16-2.89.25-13.56.25-13.56s-.39,11.62-3.84,10.59c0-2.49.61-11.9.61-11.9s-1.71,7.58-2.81,8.38-1.66.35-1.66.35l1.66-10.36s-2.44,7.33-3,7.6a2.1,2.1,0,0,1-2.41-.19,78,78,0,0,1,2.55-9.76c-.16-.07-4.47,7.5-4.47,7.5-2.63-.95,1.32-9.86,1.32-9.86s-4.07,6.46-5.59,6c-.44-2-.78-3.54-1.07-4.87l-20.74,3c13.36-11,26.49-22.61,45.07-24.6a54.23,54.23,0,0,0-7.23.6C445.48,58.13,435,66.23,424.6,74.21c-4.33,3.31-8,7.42-13.23,9.54-3.26,1.33-3.76,4.31-1.11,6.62a91.63,91.63,0,0,0,14,10.3A24.32,24.32,0,0,0,444,102.93a8.4,8.4,0,0,1,4.23-.25l.06.77a13.14,13.14,0,0,0-1.41.33c-1.15.42-2.29.88-3.43,1.32.56,1.18,1.11,2.37,1.7,3.54.46.9,1,1.77,1.58,2.88-9.6,1-18.22-.9-26.78-3.8-5.86-2-11.82-4.08-17.9-4.83-5.22-.65-10.07-1.44-14.41-4.47a26.24,26.24,0,0,0-13.52-4.55c-1.27-.09-3.93,1-4,1.32,10.64-2.29,17.65,6,26.43,8.45-5.39,3.33-13.39,8.7-19,12.14l0,0c-10.31,5.61-21.9,4-33.54,3.38a27.32,27.32,0,0,0-6.93.5,26,26,0,0,0-8.79,3.45c-4.16,2.32-5.17,2.46-7.39-2.67a90.8,90.8,0,0,1,9.05-4.38c6.06-2.17,11.38-9.76,11-17.59-1.72,1.65-3.33,2.57-4,3.94-2.3,4.85-6.74,6.75-11,9,2.64-2.56,5.24-5.17,7.94-7.68a65.59,65.59,0,0,1,6.13-5.3c6-4.33,7.77-8.49,6.43-15.64h0a.22.22,0,0,0,0-.08,31.08,31.08,0,0,0,2.56-5.15,17.28,17.28,0,0,1-3.65,3.24c-.22.15-.73-.45-.35-1.21A33.48,33.48,0,0,1,348,74s-4.08,3.73-5.68,4.44c.82-1.85,3.66-7.44,4-8.22-.53.12-3.51,5-4.05,5.07a2,2,0,0,1-2.48-2.14c.06-.69,4.68-7.59,4.68-7.59l-6.25,6.15c-.76-1-.45-1.85,0-2.81,1.4-2.82,3-5.55,4.49-8.32,0,0-2.32,3.43-3.57,5-1.13,1.4-3,3.47-4.59,2.08,2.2-3.51,4.47-6.89,6.82-10.75,0,0-6.42,8.16-7.48,7.86a2.63,2.63,0,0,1-.92-1.87c.14-1.7,1.34-3.1,2.4-4.27,2.63-3.68,2.87-3.6,4.12-6.92,0,0-6.06,8.17-7.18,8-1.31.11-1.8-.69-1.77-1.09A95.84,95.84,0,0,0,336.44,47c-1.61,1.73-4.3,8.43-6.91,9.23-.72-.16-.78-.22-1-.54.86-2.35,5.14-12.42,5.14-12.42-1.54,2.38-3.84,6.5-5.38,8.89-.75-.14-1.45-.36-1.37-1.21C328,48,331,39,330.94,39c-1,2.31-3.82,8.55-4.9,10.72-.42-.23-1.79-1.18-1.47-2.31,1.5-4.19,3.57-9.94,5.06-14.13-1,2.3-2.6,6-3.39,7.75-1,1.9-2.24,3.59-4.34,2,2-4.65,3.89-8.87,5.85-13.37-3.18,5.67-3.22,6-5.79,9.82-1.8-.63-1.78-1.93-.68-4.62h0c1.31-2.52,4.31-9.46,4.31-9.46-.8,1.47-4.45,7.93-5,8.25a1.55,1.55,0,0,1-.87-1.74,13.63,13.63,0,0,1,1.32-3.24c1.05-2.28,3-6.17,2.89-6.25l-5,6.88c-1.91-.15-2.27-1.32-1.63-2.57a52.42,52.42,0,0,1,3.39-5l-16.58,3.62c-.61.12-.73-.43-.81-.68,2.43-1.19,7.87-3.23,7.81-3.4C306,22.79,300.07,24.66,295,26.2c-.55,0-.74-.76-.84-1.06,1-.53,3.27-1.22,5-2.17-4.87,1.09-12.51,4.28-15.11,3.73A2.46,2.46,0,0,1,282.88,25a53.87,53.87,0,0,0,5.35-3.25c-4.16,1.63-10.81,5.66-12.37,5.06a2.89,2.89,0,0,1-.91-1.71c1.58-1.33,3.46-2,5.38-3.65-4.25,2.15-16.69,8.5-16.05,2.92,8.23-3.58,29-10.65,29-10.65s-19.1,5.85-25.83,7.68c-6.22,1.68-4.88,1.66-11.22,2.85-1.5.29-2.51-.58-3-2.34,1.88-1.26,17-8.29,29.1-11.83-7.78.19-28.5,10.2-30.3,10.21-2.55,0-5.47-3.21-5.88-5.75A5.59,5.59,0,0,1,250.22,8a93.77,93.77,0,0,1,15.6-4.22,227.67,227.67,0,0,1,27-2.33c10.82-.41,21.68-.71,32.47-.05,11.28.68,20,5.71,23.93,17.33a196.76,196.76,0,0,0,12.63,29.45c6.23,11.81,13.06,22.43,26.4,27.39,5.74,2.14,10.71,2.57,15.9-1.06a73.93,73.93,0,0,1,9.68-5.44c5.32-2.62,10.86-4.85,16.1-7.62a104,104,0,0,1,22.75-8.72c8.49-2.17,16.95-2.84,21.61,5.36,7.89,13.89,30.38,39.05,31.07,40C504.63,100.28,503.56,99.76,503.31,99.8Z"/><circle class="cls-3" cx="440.66" cy="106.5" r="1.38"/></g><g id="Calque_2-2" data-name="Calque 2"><polyline class="cls-4" points="244.78 422.94 250.18 432.15 245.61 430.4 247.48 438.09 242.11 433.33 244.47 443.81 239.6 440.68 241.12 447.31 233.96 441.29"/><polyline class="cls-4" points="180.25 384.32 177.65 389.3 178.14 384"/><path class="cls-4" d="M183.49,380.38s.16-.67-.84-1.09a1.76,1.76,0,0,0-1.39.28"/><ellipse class="cls-5" cx="224.49" cy="388.29" rx="0.94" ry="0.71" transform="translate(-224.02 388.56) rotate(-60)"/><ellipse class="cls-5" cx="206.98" cy="376.93" rx="0.94" ry="0.71" transform="translate(-222.94 367.71) rotate(-60)"/><path class="cls-6" d="M215.6,391.48s1-1-.61-3.19a8.53,8.53,0,0,0-4.32-2.92s-2.47-.49-2.74.19a1.13,1.13,0,0,1,.59,1.8c-.59.93-1.74.1-1.74.1-.6,1.42.43,3.31.43,3.31s1.25,2.2,3,2.46a6.79,6.79,0,0,0,3.76-.54s-.77-.95-.11-1.6S215.6,391.48,215.6,391.48Z"/><path class="cls-4" d="M215.52,390.66s2.8-2.26,5.15-2.37c2.62-.13,2.11-3.09,2.11-3.09l-.46-2.94c-.68-3.88-3.65-5-6.11-5.25l-.61-.06c-1.45-.15-2.85.57-4.35.69s-2.9,1.34-2.52,2.45a14.33,14.33,0,0,1,.22,5.52"/><path class="cls-4" d="M216.32,396.27a3.61,3.61,0,0,1-1.18,3.39c-4.54,3.34-4.37,1-7.75-1.18s-2.95-2-4.85-3.31c0,0-3.16-1.36-3.62-3.05s-.88-3.83,3.41-5.1"/><polygon class="cls-6" points="209.59 393.37 206.59 397.2 205.29 396.38 208.05 392.38 209.59 393.37"/><polyline class="cls-4" points="207.76 398.69 204.76 401.36 203.58 400.54 205.33 397.3 204.72 396.92 202.53 399.91 201.12 399.02 202.53 395.17"/><path class="cls-4" d="M203.41,412.48s0,4.63-2.85,5.14-4.4,1.77-6.17.52-2.74-.92-2.29-1.66,1.89-3.09,1-3.71-2.68-3.09-4.17-3.09-3.94-.44-4.11.29a2.71,2.71,0,0,0,.25,1.56s-.65.07-.69.43,0,1.91,0,1.91-.84,0-.78.67a1.68,1.68,0,0,0,.22.76.85.85,0,0,0,.14.17,1.1,1.1,0,0,1-.13.82,2.27,2.27,0,0,1-.52.57,7.13,7.13,0,0,0,.56.65,13.87,13.87,0,0,0,4.72,2.31s3.11-.31,1.74-2.08c-.53-.69-5.11-2.19-5.74-2.23l-.63,0"/><path class="cls-4" d="M183.85,415.3l-3.14-.08-1.14.2,2.92,1.12,1,1.37a5.46,5.46,0,0,0-.91,4.11c.57,2.06,5.71,3.43,5.71,3.43l16.57,7.88-1.26-4.45,5.64,2.74,1.22-1.6,8.25,2.63,3.23-8.8,2.51,1.48,2.12-7.65h3.85l-1.91-3.54,4.8-2.61-1.94-4.71"/><path class="cls-4" d="M192.88,415.08s-3.6-3-4.32-3.38-3.46,0-3.46,0L180.86,413"/><path class="cls-4" d="M184.82,410.14s-2.63.41-3.2,1.39a15.11,15.11,0,0,0-.89,1.78s-1.1.8-1.16,1.2,4.84-.64,4.84-.64,2.61-.78,3.87,0,3.82,2.61,3.82,2.61"/><path class="cls-4" d="M179.65,380.78s.89-1-.14-1.56c-1.53-.78-2.91,4.94-2.91,4.94"/><path class="cls-4" d="M178.14,384s-.76-1.49-1.54.16c-.71,1.5.38,6.15.38,6.15l.82-2.68"/><path class="cls-4" d="M184.14,382.78s1.76-1.66,2.28-.81c.8,1.31-1.71,2.74-2.26,3.23a8.93,8.93,0,0,1-3.4,1.82l1.9-3s1.92-1.33,1.9.12a1.34,1.34,0,0,1-.4,1"/><path class="cls-4" d="M182.45,384.52,180,387.15l-1.53,1.65,1.77-4.48s1.91-1.77,2.48-1.63-.28,1.83-.28,1.83-.22.23,1.11-1a8.87,8.87,0,0,0,1.36-2.23s.44-2.49-2.32-.29a18.89,18.89,0,0,0-2.35,3.32s.54-1.88-.24-2.19c-1-.4-1.91,2.24-1.91,2.24s.29-1.08.66-2.22a5.68,5.68,0,0,1,3-2.83c1.43-.74,4.24-.11,4.93.27s4-1.14,2.82-1.82A4.57,4.57,0,0,1,188,375.1s5.64,2,8.84-1.07,9.14-4.64,9.14-4.64l3.66-5.87,6.28,9.09c.52.79,9.18,0,11.37,9.31.56,2.4,11,2.9,11,2.9s-4.7,5.3-2.53,7.3c0,0-6.5.34-2.24,3.79,0,0-2.36,1.5-1.68,2.4,2.69,3.6,11.65,6.22,11.65,6.22a6.51,6.51,0,0,0-.11,2.52c.93,3.05,11.14,7.38,11.14,7.38s-1.81,1.12.51,3.48c6.47,6.57,11.79,13.21,11,21.48-1.32,14.36,3.37,17,3.37,17l-7,5.49-19.65,0-12.23,6.39a5.06,5.06,0,0,1-3.72.37L221,467a10.82,10.82,0,0,1-5.15-3.31l-4.55-5.26-7.84,7L196,460.94l-2.6-3.84-2.91-1.41s4.07-5.14,1.63-8.65-8-6.28-7.08-9.25-5.45-14.44-5.45-14.44l-3.81,1.26,2.21-4.26h-4l3.71-3-3.71-.89,3.71-3.17,1.47-4.71-4-1.09,4.43-3.31-4.55-.12,3.16-3.24-3-.37,3.25-3.68-3-.54,5.86-4.85L180,387.15"/><path class="cls-6" d="M269.34,456.41a69,69,0,0,0,27.76-6.28c13.44-6.42,19.63-15.36,23.08-8,3.12,6.63,2.52,18.74-16.56,22.74s-41.25-3-41.25-3Z"/><path class="cls-6" d="M216.55,464.47l-11.3,1.93a3.34,3.34,0,0,0-2.54,2l-.51,1.23,23.61-.72,1-.25s-2.81-.67-5.13-1.5-2.38-.54-3.74-1.63Z"/><path class="cls-6" d="M196,460.94l-10.91,2.27a3,3,0,0,0-2.24,2l-.1.76,20.55-.55s.05-.06,0-.08Z"/><path class="cls-4" d="M211.25,458.43l1.23-9.61c.61-5.32,5.79-6.07,10-6.07h5.73"/><line class="cls-4" x1="242.72" y1="461.93" x2="247.29" y2="457.44"/><polyline class="cls-4" points="196.1 418.68 196.44 422.54 194.96 423.85 194.94 426.36 197.13 424.65 197.9 428.02 200.84 424.71"/><path class="cls-6" d="M207.44,368.32c-1.88,1.43-2.65,2.13-3.16,1.95-1.23-.47-1.84-1.21-.66-3.26s3.07-3.16,4.21-2.5S209.27,366.93,207.44,368.32Z"/><path class="cls-6" d="M235.77,387.81c-1.16,2.05-1.76,2.92-1.5,3.39.62,1.16,1.44,1.66,3.31.22s2.73-3.46,1.92-4.51S236.9,385.81,235.77,387.81Z"/><path class="cls-7" d="M131,406.22s.84,3.16.45,4.87-2,.89-3.59,1.55-3.22-.57-2.88-4.91c.32-4.05,4.49-2.3,6-1.51,2.91,1.49,2.57-.33,7-2s18,1.44,20.15,1.25,2.73,2.5,3.76,3.48a8,8,0,0,1,1.52,2l1.12,1.62"/><path class="cls-8" d="M156.85,413.53c-.33,2.85,2.68,2.85,4.63,2.85s3.72,0,3.72-2.43c0-1.59-2-3.94-4-3.94s-4.19,1.93-4.37,3.52"/><path class="cls-7" d="M156.85,413.53c-.33,2.85,2.68,2.85,4.63,2.85s3.72,0,3.72-2.43c0-1.59-2-3.94-4-3.94S157,411.94,156.85,413.53Z"/><path class="cls-7" d="M156.81,449.12a7.87,7.87,0,0,0-.37-3.25c-.59-2.36-4.08-2.87-4.08-2.87a11,11,0,0,0,2.24-6.56c0-3.89,0,0,3.68-2.36l2.17,1,.58-3.77,1.58.83,1.06-2.48,1.25.83-.42-18.3"/><path class="cls-8" d="M156.91,449s5.05-1.19,6.28,0a10.07,10.07,0,0,1,2.83,4.82c.1.66-1.69,4.93-1.69,4.93l-.48-1.81a12.29,12.29,0,0,1-.89,2.92s-1.28-4.06-1.91-6-4.63-5.08-4.63-5.08-1.74-1.45-2.84.13-3.29,5.75-3.29,5.75-1.54,1.78,0,3.16,2.71,1,2.71,1,2.69.29,1.81-3.16c-.63-2.46,2.58,1.32,2.06,3.83a25.82,25.82,0,0,0-.52,2.83l1.51-2.44-.41,3.9,2.19-4.29.25,2.86,2.28-4.92-1.12-3.56Z"/><path class="cls-7" d="M156.91,449s5.05-1.19,6.28,0a10.07,10.07,0,0,1,2.83,4.82c.1.66-1.69,4.93-1.69,4.93l-.48-1.81a12.29,12.29,0,0,1-.89,2.92s-1.28-4.06-1.91-6-4.63-5.08-4.63-5.08-1.74-1.45-2.84.13-3.29,5.75-3.29,5.75-1.54,1.78,0,3.16,2.71,1,2.71,1,2.69.29,1.81-3.16c-.63-2.46,2.58,1.32,2.06,3.83a25.82,25.82,0,0,0-.52,2.83l1.51-2.44-.41,3.9,2.19-4.29.25,2.86,2.28-4.92-1.12-3.56Z"/><path class="cls-7" d="M155,434.92l-3,4.84-.26-3.81-2.25,4.39-1.37-3.59-2.42,3.59-1.61-3.85-2.83,2.1-.6-3.56-4.37,1.72-.43-4.15-4.12,2v-3.42l-4.54,1-.77-3.52-4.14,1.18-.15-3.51-5.25,1.23v-2.84l-3.41.45V422.6H111l1-2.7-3-1.62,4.18-2.38-3.66-2.68,6-.54L113,409.51s6.9,1.43,8.16,1.94c2.38,1,3.8-3.74,3.8-3.74"/><path class="cls-8" d="M142.58,409.07a1.42,1.42,0,1,0,1.42-1.42,1.41,1.41,0,0,0-1.42,1.42"/><circle class="cls-7" cx="144" cy="409.07" r="1.42"/><line class="cls-7" x1="152.71" y1="442.53" x2="147.31" y2="449.03"/><polyline class="cls-7" points="157.94 411.83 155.66 408.21 154.44 408.71 153.67 407.65 149.7 407.65"/><path class="cls-8" d="M59,450.44a77.23,77.23,0,0,1-31.05-7.05c-15-7.2-21.95-17.24-25.81-9-3.48,7.45-2.81,21,18.52,25.52,17.89,3.76,38.82-.63,45.14-2.15a1,1,0,0,0,.36-1.69Z"/><path class="cls-7" d="M59,450.44a77.23,77.23,0,0,1-31.05-7.05c-15-7.2-21.95-17.24-25.81-9-3.48,7.45-2.81,21,18.52,25.52,17.89,3.76,38.82-.63,45.14-2.15a1,1,0,0,0,.36-1.69Z"/><path class="cls-7" d="M163.17,416.19l-1.47,6.15-1.31.12v-6.19m4.43,8.19-3.3-.34m-3.06.34,2-.55,1.56.38-1.07,4.43h-1.42l.93-4.81-.93,4.81-1.39,0,.33-4.24-6.73,2.91-2.19-.19v2.25l-3.44.84"/><path class="cls-7" d="M153.15,458.7s-3.13,2.54-13.86,2.65a43.31,43.31,0,0,1-18.9-4.25s.25,8.45-11.11,7.43-15.4-5.89-24-5.89-4.25,3.58-10.12,3.84-8.66-5.85-8.66-5.85l-2.33-2.22c-10.6-5.38-6.26-11.27-4.11-19.59S84.5,409.34,90,407s25.18,5.66,25.18,5.66"/><path class="cls-8" d="M75.19,462.48s2.66,1.68,4.89,1.15,1.37-1.8,4.71-1,11.09,6.74,10.67,5.3-1.42-2.4-.22-2.18,3.61,3,3.49,1.92a13.06,13.06,0,0,0-.83-2.81,1.78,1.78,0,0,1,1.67.56c.52.76,1.08-3-.44-3.38,0,0-6.81-2.76-9.28-3.14s-7.17-1-9.16.13-1.83,1.86-2.8,2.55a7.1,7.1,0,0,1-2.7.88"/><path class="cls-7" d="M75.19,462.48s2.66,1.68,4.89,1.15,1.37-1.8,4.71-1,11.09,6.74,10.67,5.3-1.42-2.4-.22-2.18,3.61,3,3.49,1.92a13.06,13.06,0,0,0-.83-2.81,1.78,1.78,0,0,1,1.67.56c.52.76,1.08-3-.44-3.38,0,0-6.81-2.76-9.28-3.14s-7.17-1-9.16.13-1.83,1.86-2.8,2.55A7.1,7.1,0,0,1,75.19,462.48Z"/><path class="cls-7" d="M151.69,452.49s-7.63-7.42-14.25-10L130,445.94l-2-4.84-3.43,2.54-2.35-4.23L119,442.08l-2.56-3.4-2.81,3.4-3.15-2.67L108.67,444l-4.09-2.66"/><path class="cls-8" d="M85.66,414.66c3.37-3.17,7-5.86,13.51-4.44,7.86,1.72,6.3,2.42,5.91,2.34-9.7-1.95-11.12-2.93-16.72,1.57-2,1.65-6.28,5.43-8.39,7-16.08,11.77-14,9-13.77,8.78-1.06.79,16.84-12.77,19.46-15.22"/><path class="cls-8" d="M83.83,458.28a15.24,15.24,0,0,0,5.63-11.19c.05-1.18-.49-.43-.52-.08-.65,6.05-5.26,10.07-8.25,12a13.6,13.6,0,0,1,3.14-.77"/><path class="cls-8" d="M61.78,435.58A8.39,8.39,0,0,1,64,432.26c.89-.7,1.23-.17.15.79,0,0,0,0,0,0h0c-1.27,1.06-1.71,2.76-3,6.27C61.08,439.56,60.12,440.06,61.78,435.58Z"/><g class="cls-9"><path class="cls-3" d="M442.09,420.42s-6.14-2.49-9.44-4.16-12.49-9.3-12.49-9.3c-.48-.31-.73.18-.46.48,1.56,1.74,3.87,3.23,5.58,4.76,6.55,5.83,12.5,7.37,16.69,9.07"/><path class="cls-3" d="M466.28,421.66c2.32-2.71,5.08-15.73,5.08-15.73.2-.54,1-.27.92.12-2.79,11.79-3.12,13.11-5.23,16.75"/></g><polyline class="cls-7" points="467.49 399.29 464.25 403.1 458.53 399.29 455.05 403.1 448.43 397.48 446.34 401.46 442.11 397.48 440.12 400.33 435.89 397.48"/><polygon class="cls-3" points="527.03 356.28 529.48 345.46 520.99 354.91 527.03 356.28"/><polygon class="cls-7" points="527.03 356.28 529.48 345.46 520.99 354.91 527.03 356.28"/><polygon class="cls-3" points="495.54 359.18 491.9 346.83 502.77 356.07 495.54 359.18"/><polygon class="cls-7" points="495.54 359.18 491.9 346.83 502.77 356.07 495.54 359.18"/><g class="cls-9"><path class="cls-3" d="M507.6,373.31a1.88,1.88,0,1,0,1.88-1.87,1.88,1.88,0,0,0-1.88,1.87"/><circle class="cls-7" cx="509.48" cy="373.31" r="1.88"/><path class="cls-3" d="M523.33,372.55a1.88,1.88,0,1,0,1.88-1.88,1.88,1.88,0,0,0-1.88,1.88"/><circle class="cls-7" cx="525.21" cy="372.55" r="1.88"/><path class="cls-3" d="M528.57,383.42c0-.41,0-.57-.44-1.17a1.92,1.92,0,0,0-1.74-.9c-.92,0-4.3,0-4.3,1.82s4,3.8,4,3.8,2.11-1.77,2.36-2.81a4.49,4.49,0,0,0,.16-.74"/><path class="cls-7" d="M528.57,383.42c0-.41,0-.57-.44-1.17a1.92,1.92,0,0,0-1.74-.9c-.92,0-4.3,0-4.3,1.82s4,3.8,4,3.8,2.11-1.77,2.36-2.81A4.49,4.49,0,0,0,528.57,383.42Z"/><path class="cls-7" d="M500.18,381.22l-.83,4.54,5.47-1-1.28,3.83,4.47-2v3.65l3.31-1.15m11-17.54s7.64,8.61,7.45,11.48.19,7.46-3.73,7.46-6.4.77-7.73,0-5-3.63-5-3.63m-45.16,41-.37,40.23s1.27.85,4.49,0a11,11,0,0,0,4.5-2.07l-3.63-5.22Zm-61.79,3.49s-12.19,13.55-13.48,17c-1.86,4.88-1.32,16.65-1.32,16.65s3.06.71,4.14,2.08,1.07,1.56,1.07,1.56H384.73s-3-23.12-1.26-25.36,8.37-7.81,8.76-11.12.55-21.15.55-21.15l5.3,8.85,4,4.82,1.9,1.43,1.76,2Zm116.12-40.51s-4.2,11.71-9.36,11.71-13.09,14.75-13.09,14.75c-4.29,6.25-12.67,4.68-14.22,9.17s-2.93,4.68-2.93,4.68-1,32.78,3.12,33.56,3.12,3.38,3.12,3.38H478.25l-5.07-7.29L467.3,422a115.4,115.4,0,0,1-20.22.07c-5.78-.46-17.28-6.63-17.28-6.63a95.12,95.12,0,0,1-17,26.66c-3.85,4.16,3.31,22.63,6.43,22.63s4.67,3.38,4.67,3.38H410.06s-8.57-15.87-10.13-21.14,4.29-5.07,4.29-5.07,5.06-12.87-.2-15.8-11.69-16-11.69-16-5.65,15.8-10.52,20.87-23.18,18.53-25.91,24-14.81,14.83-20.26,12.88-3.51-18.73-3.12-25.17,39-60.08,44.62-60.47,22-8,23.37-9.56,4.87.39,9,0,2.53-2.53,12.66-3.12,25.33,3.9,30.78,5.27,21.24,1,21.24,1H480s2.14-4.09,5.46-5.07c0,0,2.1-10,3.05-12.31s-1.14-14.73,3.06-14.73,14.1,9.94,14.1,9.94l9.78-1.53s15.86-13.39,17-10.71-3.63,12.63-3.25,17.6,1.72,8.8,1.53,13a17.16,17.16,0,0,1-2.67,7.84"/><path class="cls-3" d="M355.94,455.39l-8.32,2.39-1.18-2.39H342.5l-3.74-2.61-3.75.81L332,450s-.92,15.78,3.11,17.45c9.81,4.08,20.85-12.06,20.85-12.06"/><path class="cls-7" d="M355.94,455.39l-8.32,2.39-1.18-2.39H342.5l-3.74-2.61-3.75.81L332,450s-.92,15.78,3.11,17.45C344.9,471.53,355.94,455.39,355.94,455.39Z"/></g><path class="cls-3" d="M482.88,404.05a10.56,10.56,0,0,0-4.39-2.34c-1.39-.26-1.45.52.28,1,0,0,0,0,0,0h0c2,.44,3.48,2.05,7,5.16C486,408,487.29,408,482.88,404.05Z"/><path class="cls-3" d="M422.37,382.2a10.58,10.58,0,0,1-4.76-1.47c-1.15-.81-.65-1.4.88-.47h0c2.14,2.47,30.54-.47,25.56,1.32C443.8,381.67,428.29,382.55,422.37,382.2Z"/><path class="cls-3" d="M393.75,412.65c-2.53-2.23,1.9-14.74,1.9-14.74,0-1.07-.77-.82-.89-.44-3.64,11.48-3.37,12.2-2,16.16"/></g></g></svg>