<svg xmlns="http://www.w3.org/2000/svg" viewBox="0 0 241.16 153.95"><defs><style>.cls-1{fill:blue;}</style></defs><g id="Calque_2" data-name="Calque 2"><g id="Calque_1-2" data-name="Calque 1"><path class="cls-1" d="M1.56,113.45a3.08,3.08,0,0,0,1.4-.79,5.09,5.09,0,0,0,1-1.43,10.58,10.58,0,0,0,1-3.66,29.68,29.68,0,0,0-.43-7.91,26.16,26.16,0,0,0-2.47-7.44c-.3-.58-.63-1.15-1-1.76a9.12,9.12,0,0,1-1-2.14,3.35,3.35,0,0,1,0-1.58,3.77,3.77,0,0,1,.64-1.35,7.69,7.69,0,0,1,.83-.93l.21-.19a2.48,2.48,0,0,1,1.11-.66,4.35,4.35,0,0,1,2.78.25,13.67,13.67,0,0,1,2,1c1.25.72,2.39,1.52,3.52,2.31s2.23,1.6,3.34,2.35a14.51,14.51,0,0,0,3.25,1.78,1.16,1.16,0,0,0,.45.06.84.84,0,0,0,.34-.14,1.26,1.26,0,0,0,.25-.91,13.92,13.92,0,0,0-.75-3.62c-.2-.65-.41-1.29-.6-2s-.31-1.31-.5-2a22.18,22.18,0,0,0-1.35-3.63,14.89,14.89,0,0,0-2-3.17,32.18,32.18,0,0,0-2.87-2.77A5.2,5.2,0,0,1,9.87,72a3.28,3.28,0,0,1-.42-1.66,4.17,4.17,0,0,1,.09-.76A4.71,4.71,0,0,1,9.7,69a5.23,5.23,0,0,1,.55-1.24,4.64,4.64,0,0,1,2.12-1.87,6.6,6.6,0,0,1,2.54-.52,14.59,14.59,0,0,1,4.47.79,31.62,31.62,0,0,1,4,1.63,40.92,40.92,0,0,1,7.25,4.49c.57.48,1,.85,1.52,1.21a6.33,6.33,0,0,0,1.45.81,1.56,1.56,0,0,0,.51.11.3.3,0,0,0,.18-.06,2,2,0,0,0,.54-1,6.2,6.2,0,0,0,.26-3.29,10.2,10.2,0,0,0-1.41-3.29c-.66-1.1-1.46-2.17-2.26-3.32a13.19,13.19,0,0,1-2.13-4.1,4.73,4.73,0,0,1,.14-2.87,6.11,6.11,0,0,1,4-3.52A6.45,6.45,0,0,1,36,52.87a12.51,12.51,0,0,1,4.33,1.61,29.39,29.39,0,0,1,3.58,2.4c2.24,1.7,4.3,3.61,6.33,5.31a12.18,12.18,0,0,0,1.44,1.05,3,3,0,0,0,.64.24,3.7,3.7,0,0,0,.74.13,2.45,2.45,0,0,0,2.31-.83A3.62,3.62,0,0,0,55.57,60a13.7,13.7,0,0,0-1.35-3.4,37.92,37.92,0,0,0-2.28-3.18,40.82,40.82,0,0,1-2.45-3.5,11.48,11.48,0,0,1-1-2.11,4.73,4.73,0,0,1-.18-2.94,11.45,11.45,0,0,1,1-2.18,5.55,5.55,0,0,1,1.88-2,4.51,4.51,0,0,1,2.92-.6,7.49,7.49,0,0,1,2.42.8,18.75,18.75,0,0,1,3.63,2.59c2.14,1.9,4,3.95,5.88,5.94.93,1,1.85,2,2.8,2.91a17.58,17.58,0,0,0,1.41,1.25,3.61,3.61,0,0,0,1.09.66.76.76,0,0,0-.18,0,.59.59,0,0,0-.23.15c-.06.11,0,0,0-.22a6.76,6.76,0,0,0,0-1.66,33.18,33.18,0,0,0-.77-3.85c-.64-2.61-1.41-5.24-2-8a29.21,29.21,0,0,1-.74-4.27,8.41,8.41,0,0,1,0-1.23,3.92,3.92,0,0,1,.37-1.54,2.55,2.55,0,0,1,.77-.91,2.22,2.22,0,0,1,1.19-.43,3.72,3.72,0,0,1,1.66.31A15.37,15.37,0,0,1,75,35.26c1.06,1,2,1.93,3,2.93l2.82,3a22.41,22.41,0,0,0,2.86,2.57,4.53,4.53,0,0,0,.67.39c.17.1.32,0,0,.11a.61.61,0,0,0-.23.19s0,0,0-.11a3.08,3.08,0,0,0,0-.73,23,23,0,0,0-.58-3.83c-.57-2.64-1.3-5.28-1.78-8.08a21,21,0,0,1-.25-2.18,8,8,0,0,1,0-1.19A4.22,4.22,0,0,1,82,26.91a2.55,2.55,0,0,1,.61-.8,2.3,2.3,0,0,1,.49-.32,2.45,2.45,0,0,1,.45-.16,2.86,2.86,0,0,1,1.71.11,6.06,6.06,0,0,1,2.11,1.43,23.46,23.46,0,0,1,2.74,3.36c.8,1.15,1.55,2.32,2.28,3.48s1.47,2.31,2.23,3.33a8.38,8.38,0,0,0,.57.69,1.64,1.64,0,0,0,.24.23c.06.06.12.06,0,0a.8.8,0,0,0-.48,0,.79.79,0,0,0-.26.13h0a2.8,2.8,0,0,0,.58-.81,6.8,6.8,0,0,0,.26-3.37,32.86,32.86,0,0,0-.74-3.87c-.31-1.33-.67-2.65-.91-4.12a8.46,8.46,0,0,1-.07-2.5,3.19,3.19,0,0,1,.77-1.67,2.88,2.88,0,0,1,1.79-.87,4.52,4.52,0,0,1,2.91.51,5.84,5.84,0,0,1,2,1.89,24.68,24.68,0,0,1,2,3.92c1,2.46,2.26,4.75,4.1,5.49a3.07,3.07,0,0,0,1.22.32h0s-.07,0,0,0a1.25,1.25,0,0,0,.3-.33,7.58,7.58,0,0,0,.78-3.14c.2-2.55,0-5.24,0-8.11a14.29,14.29,0,0,1,.21-2.34,4.75,4.75,0,0,1,.52-1.49,3,3,0,0,1,.84-.93,2.55,2.55,0,0,1,1.5-.45,3.33,3.33,0,0,1,1.91.76,8.36,8.36,0,0,1,1,.89c.54.58,1,1.15,1.41,1.7.85,1.1,1.65,2.17,2.48,3.05a6.7,6.7,0,0,0,1.22,1c.4.23.55.21.62.19s.36-.19.63-.63a8.85,8.85,0,0,0,.73-1.57c.46-1.2.8-2.51,1.37-3.93a9.17,9.17,0,0,1,.53-1.11,4.17,4.17,0,0,1,1-1.21,2.94,2.94,0,0,1,1-.5,4.31,4.31,0,0,1,.55-.1h.43a3.45,3.45,0,0,1,1.61.48A5.91,5.91,0,0,1,131,17.46,19,19,0,0,1,132,19.38a17.84,17.84,0,0,0,1.86,3.27l.11.12.05.05-.08-.05a.35.35,0,0,0-.22-.05,1.39,1.39,0,0,0,.44-.21,7.74,7.74,0,0,0,1.33-1.17,19.13,19.13,0,0,0,2.31-3.09,15.82,15.82,0,0,0,.86-1.69,6.53,6.53,0,0,0,.28-.81l.25-1a9.11,9.11,0,0,1,.36-1.08,3.57,3.57,0,0,1,.29-.6,2,2,0,0,1,.29-.38,1.21,1.21,0,0,1,1-.37,1.19,1.19,0,0,1,.78.45,1.74,1.74,0,0,1,.24.37,3.82,3.82,0,0,1,.23.6c.12.37.2.72.28,1.07l.42,2a11.55,11.55,0,0,0,.5,1.81s.08.08-.08-.07a.69.69,0,0,0-.77,0c-.15.11-.17.16-.18.18l.18-.42c.15-.33.33-.66.52-1A4.57,4.57,0,0,1,145,15.52a2.84,2.84,0,0,1,1.4-.31,5.27,5.27,0,0,1,1.22.2,3.81,3.81,0,0,0,.79.16c.07,0,.05,0,0,0s0,0,0,0a4.89,4.89,0,0,0,.33-1.53c.07-.64.07-1.25.11-2a17.68,17.68,0,0,1,.77-4.33,11,11,0,0,1,2.24-4A10,10,0,0,1,155.76.94,13.69,13.69,0,0,1,160.21,0a23.46,23.46,0,0,1,4.37.2,52.74,52.74,0,0,1,8.17,2c2.63.81,5.24,1.67,7.85,2.55q7.8,2.64,15.53,5.42c2.59.89,5.17,1.83,7.76,2.7l3.88,1.29.84.26H209l.51,0,2-.06,8.24-.32c2.76-.12,5.52-.2,8.31-.19,1.41,0,2.81.06,4.27.2a15.25,15.25,0,0,1,2.28.35,7.78,7.78,0,0,1,1.33.43,7.07,7.07,0,0,1,1.27.77,8.38,8.38,0,0,1,2,1.94A9.86,9.86,0,0,1,240.4,20a16.86,16.86,0,0,1,.74,4.7,39.06,39.06,0,0,1-.14,4.36c-.12,1.32-.23,2.65-.41,4a40.25,40.25,0,0,1-1.74,8.1l-1.3,0a25.79,25.79,0,0,1-1.6-8.33,32.94,32.94,0,0,1,.11-4.21c.1-1.3.17-2.6.17-3.84a15,15,0,0,0-.33-3.42,4.43,4.43,0,0,0-1.36-2.3c-.18-.17-.46-.37-.44-.36a2.52,2.52,0,0,0-.6-.26,16.08,16.08,0,0,0-1.74-.47c-1.25-.27-2.58-.47-3.9-.65a133.55,133.55,0,0,0-16.29-1H209a6.2,6.2,0,0,1-.66,0c-.22,0-.26-.07-.36-.09l-.27-.08-.5-.17-3.89-1.35c-2.58-.92-5.19-1.77-7.78-2.65-5.2-1.69-10.42-3.33-15.66-4.87-2.62-.77-5.25-1.52-7.88-2.22a56.54,56.54,0,0,0-7.8-1.75,15.7,15.7,0,0,0-7.39.54,7.84,7.84,0,0,0-2.88,1.87,9.18,9.18,0,0,0-1.87,3,14.87,14.87,0,0,0-.9,3.69c-.08.61-.15,1.38-.27,2.09a6.08,6.08,0,0,1-.83,2.37,2,2,0,0,1-.76.64,1.78,1.78,0,0,1-1,.17,5.18,5.18,0,0,1-1.2-.3,1.8,1.8,0,0,0-1.38-.1,2.79,2.79,0,0,0-1.11,1.09,7.08,7.08,0,0,0-.46.81l-.26.51a1,1,0,0,1-.35.38.91.91,0,0,1-1-.07,1.12,1.12,0,0,1-.36-.5,6.29,6.29,0,0,1-.34-1.12l-.23-1c-.16-.67-.31-1.33-.5-2a8.54,8.54,0,0,0-.32-.9,1.63,1.63,0,0,0-.17-.35l0,0s.05.12.36.18a.69.69,0,0,0,.52-.15s0,0,0,0a1.83,1.83,0,0,0-.12.34c-.07.27-.14.58-.21.9l-.18,1a7.59,7.59,0,0,1-.33,1.14,14.66,14.66,0,0,1-.94,2,20.09,20.09,0,0,1-2.49,3.55,9.34,9.34,0,0,1-1.71,1.58,3.36,3.36,0,0,1-1.42.62,2,2,0,0,1-1.22-.2,2.49,2.49,0,0,1-.3-.19l-.14-.12a1.84,1.84,0,0,1-.25-.23,9.81,9.81,0,0,1-1.4-1.9l-1-1.81a18.37,18.37,0,0,0-1-1.6,3.31,3.31,0,0,0-1-1,.69.69,0,0,0-.34-.08h-.09s0,0,0,0h.06a4.14,4.14,0,0,0-.59,1.15c-.43,1.14-.74,2.49-1.21,3.88a12.82,12.82,0,0,1-1,2.17,5.64,5.64,0,0,1-.86,1.13,3.7,3.7,0,0,1-1.48.94,3.42,3.42,0,0,1-1.84.12,4.83,4.83,0,0,1-1.46-.56,9.3,9.3,0,0,1-1.94-1.58,42.43,42.43,0,0,1-2.74-3.27c-.42-.53-.83-1-1.23-1.46a4.52,4.52,0,0,0-.55-.5c-.14-.13-.28-.1.06-.06a.94.94,0,0,0,.53-.15.68.68,0,0,0,.17-.17,1.67,1.67,0,0,0-.13.44A11.14,11.14,0,0,0,113,21.8c-.06,2.6.18,5.38-.07,8.31a15.59,15.59,0,0,1-.34,2.27,7.63,7.63,0,0,1-1,2.43A4.4,4.4,0,0,1,110.49,36a3.22,3.22,0,0,1-.89.47,3.48,3.48,0,0,1-.95.19A6.1,6.1,0,0,1,105.9,36a8.85,8.85,0,0,1-3.66-3.33,24.63,24.63,0,0,1-1.94-3.93,23.9,23.9,0,0,0-1.62-3.46,3,3,0,0,0-.92-1,1.63,1.63,0,0,0-1.06-.19c-.22,0-.07,0,0-.05s0,0,0,.18a5.81,5.81,0,0,0,0,1.59c.17,1.24.49,2.57.77,3.92A36.22,36.22,0,0,1,98.13,34a9.61,9.61,0,0,1-.56,4.71,5.17,5.17,0,0,1-.74,1.16,4.62,4.62,0,0,1-.49.5c-.07.05,0,0-.18.15a1.88,1.88,0,0,1-.49.25,1.72,1.72,0,0,1-1,0,2.52,2.52,0,0,1-.92-.5c-.19-.17-.35-.33-.49-.48-.28-.31-.51-.61-.73-.9-.86-1.19-1.56-2.36-2.29-3.53a39.59,39.59,0,0,0-4.59-6.44A4.09,4.09,0,0,0,84.43,28a.56.56,0,0,0-.31,0s-.05,0,0,0,0,0,.06,0,0,0,0,0A3.55,3.55,0,0,0,84,29.39a18.79,18.79,0,0,0,.22,1.9c.45,2.61,1.18,5.25,1.78,8a25.23,25.23,0,0,1,.69,4.27,5.67,5.67,0,0,1-.09,1.32,2.56,2.56,0,0,1-.3.85,2,2,0,0,1-1,.88,2,2,0,0,1-.65.16,2.37,2.37,0,0,1-.54,0,3.55,3.55,0,0,1-.79-.23,6.19,6.19,0,0,1-1.12-.62c-2.49-1.76-4.23-3.92-6.16-5.79-1-1-1.92-1.88-2.92-2.73a13.1,13.1,0,0,0-3-2.08,1.4,1.4,0,0,0-.33-.1.56.56,0,0,0,.24-.1.33.33,0,0,0,.12-.12,3.77,3.77,0,0,0-.06,1.28,26.18,26.18,0,0,0,.7,3.8c.64,2.61,1.42,5.24,2.08,7.94a38.06,38.06,0,0,1,.83,4.2,9.36,9.36,0,0,1,0,2.44,3.37,3.37,0,0,1-.69,1.67,2.41,2.41,0,0,1-2.25.85,4.06,4.06,0,0,1-1.48-.55,9.36,9.36,0,0,1-1-.7,21.89,21.89,0,0,1-1.66-1.46c-1-1-2-2-2.9-3-1.87-2-3.7-4-5.67-5.74a15.86,15.86,0,0,0-3-2.19,4.73,4.73,0,0,0-1.45-.5,1.56,1.56,0,0,0-1,.19,4.86,4.86,0,0,0-1.55,2.57,1.89,1.89,0,0,0,.15,1.08A8.16,8.16,0,0,0,52,48.39a35,35,0,0,0,2.26,3.22,36.81,36.81,0,0,1,2.49,3.5,17,17,0,0,1,1.67,4.21,8.55,8.55,0,0,1,.22,2.46,5.26,5.26,0,0,1-.88,2.66,4.71,4.71,0,0,1-2.32,1.76,6.21,6.21,0,0,1-2.64.33,8.88,8.88,0,0,1-1.27-.23,6.34,6.34,0,0,1-1.28-.5,13.29,13.29,0,0,1-1.88-1.36c-2.16-1.81-4.13-3.64-6.25-5.25A28.5,28.5,0,0,0,38.9,57a10.12,10.12,0,0,0-3.32-1.27,3,3,0,0,0-2.64.71,2.88,2.88,0,0,0-.81,1.07,1.91,1.91,0,0,0,0,1.17,10.59,10.59,0,0,0,1.68,3.12c.76,1.1,1.61,2.22,2.36,3.47a13,13,0,0,1,1.77,4.23A9.19,9.19,0,0,1,38.06,72a10.61,10.61,0,0,1-.52,2.34,4.6,4.6,0,0,1-1.67,2.41,3.17,3.17,0,0,1-1.76.54A4.35,4.35,0,0,1,32.62,77a9,9,0,0,1-2.14-1.18c-.6-.43-1.21-1-1.68-1.35a38.45,38.45,0,0,0-6.67-4.18,28.09,28.09,0,0,0-3.61-1.5,11.47,11.47,0,0,0-3.58-.68,3.77,3.77,0,0,0-1.46.27,2,2,0,0,0-.92.79,3.16,3.16,0,0,0-.28.64,3.29,3.29,0,0,0-.1.37.91.91,0,0,0,0,.25.59.59,0,0,0,.07.31,3.24,3.24,0,0,0,.41.5,31.83,31.83,0,0,1,3,3A17.49,17.49,0,0,1,18,77.93,23.91,23.91,0,0,1,19.5,82c.19.67.36,1.43.5,2s.36,1.25.56,1.92a15.74,15.74,0,0,1,.81,4.41,4.53,4.53,0,0,1-.23,1.39,3.08,3.08,0,0,1-.95,1.41,3.34,3.34,0,0,1-1.52.68,3.68,3.68,0,0,1-1.58-.13,16.1,16.1,0,0,1-3.94-2.13C12,90.78,10.88,90,9.78,89.17S7.57,87.61,6.45,87a11.49,11.49,0,0,0-1.65-.82,2.38,2.38,0,0,0-1.23-.22.12.12,0,0,0-.07,0l-.12.1-.16.15a4.23,4.23,0,0,0-.55.6,1,1,0,0,0-.24.93,7.69,7.69,0,0,0,.72,1.58c.32.6.66,1.22,1,1.86a25.66,25.66,0,0,1,2.46,8.16,31.92,31.92,0,0,1,.12,8.46A12.14,12.14,0,0,1,5.36,112a5.15,5.15,0,0,1-3.71,2.77Z"/><path class="cls-1" d="M13.37,108.41c-.23.67-3.26,1.72-.1,2.64,1.56.46,2.79,2.63,4.77.58,1.25-1.3,1.51-2.6.56-4C15.44,103.06,12.2,98.52,9,94c1.16,2.39,2.36,4.78,3.39,7.23C13.35,103.46,14.26,105.76,13.37,108.41Z"/><path class="cls-1" d="M234.3,33c-.84-.63-2.67,3.26-3.89.94-2.63-4.16-2.31,1-4.17,1.62-1.15-.95-2-5.27-2.56-3.14-1.93,7-1.43,5.25-3.64-.24-4.84,6.41-3.52-1.52-8.38,4.34-1.11-6.73-3.49.49-5.55-.39A3,3,0,0,0,202,39.36c-3.2-5.39-2.06-2.78-4.14,1.24-4-5.69-6-3-7.08,2.21-1.44-7.48-5-2.27-8.39.6-3.84-8.53-3.37,1.81-6.48.1-8.4-7.55-20.83,5-27.24-2,12.44-7.82,18.83-2.33,47.32-8.68,21.89-4.63,51.5-1.13,43.29-3.8-43.95-2.86-48.15,5.28-68.32,4.32-8.56-5.78-24.52,5.3-28.48-7.75.1,3.92-1.59,6.24,1.65,10.7-11.94,7.3-15.86,6.59-15.07-11.35-7.21,11.07,3,31.82-4,32.91-3.24.61-17.07,2.78-20,3.44-2.61.58-3.08-44.77-4.46-1.45-4.3,4.86-18,2.37-25.78-14,3.06,12.34,11.34,16.48,17.34,18.83a2.35,2.35,0,0,0,.18.6c.44,1,.39,1.8-.71,1.65-5.19-.69-4.8,2.8-4.66,6.13,5-.64,7.85-4.39,11.93-7,9.29.42,19.93-3.77,29.38-3.92-6.63,4.11-22.42,15-29.24,29.41a31.14,31.14,0,0,1-4.09,6.15c-3-3.61-5.53-7.54-8.35-11.28,1,5.24,5.28,9.18,5.24,14.75-2,2.1-4.3,4.26-6.81,6.45-2.19-2.17-4-4.67-6.42-6.68,0,2.15,1.35,3.62,2.35,5.23a16.71,16.71,0,0,1,1.43,3.71c-2.88,2.41-6,4.84-9.18,7.25-3.31-3.85-6-8.12-9.1-12.17,1,5.32,5.41,9.3,5.24,15-3.1,2.24-6.25,4.44-9.37,6.56-6.5,1.08-8.37-.72-14.53-7.36-2.56-2.77-3.75-6.53-2.27-10,1.07-2.48,4.8-6.76,7.59-10.05,0,0,6.06-10,8-12.18a9.73,9.73,0,0,1-3.55-4.45,30.41,30.41,0,0,0-.85,3.11c-.24,1.59-.88,3.24-2.46,3.35-1.91.14-1.87-2-2.41-3.3-1.48-3.54-7.17-19-8.59-22.57.19,4.09,5.57,19.78,6.33,23.64.45,2.29.57,6.12,3.35,5.91,2.25-.18-6.49,11.92-10.7,12.51-3,.42-7.13-2.52-8.42-5.38-2.26-5-4.58-10-6.88-15,.54,3.47,4,16,9.16,26.59a35.75,35.75,0,0,0,3.39,6.19,32.89,32.89,0,0,0,5.33,6.74h0c4,4.54,7.07,7.66,5.06,9.56l-2,1.74c-6.56-.35-17.14-16.51-18.72-18.52-.12,2.78,8.93,20.32,10.08,22.39.2.34.45.77.65,1.19-9.36,5.8-11.6,7.06-11.6,7.06l5.62.09S77.08,122.05,96,102.73a4.19,4.19,0,0,0,1.31-1,1.1,1.1,0,0,0,.4-.82c3.67-3.89,6.4-7.35,7.66-10,6.79-14.42,16-22.43,21.7-26.09l4-2.58c9,1.63,11.32,8.61,18.63,13.6,3.25,4.75,40-2.66,18,10.85-18.9,12.51-21.83,15.87-27.11,29s4.52,22.65,4.28,36.58c6.05,1.4,4.9-.27,5.37-1.38,4-6.41-25.65-34.43,20.33-60.55,18-9.72,20.71-4.23,32.68,1,6.41,2.85,7.42.82,9.6-.81l11.6-8.67S212.93,72.74,210.67,71C194.61,58.74,259.73,53.84,234.3,33Zm-14,49L210,89.12c-4,2.69-27.09-18.15-37.62-16.9-14.53.62-33-3-29.76-23.27.48-2.93,1.46-2.76,5-2.53C172.42,49.87,220.35,82,220.35,82ZM207.18,63.19c-.09-.34-2.27-3.53-2.27-3.53s-.31,4.62-.33,5a4.51,4.51,0,0,1-2.43.72c-.47-2.63-1-6.57-1.54-7.47,0,0-1.62,3.8-1.65,3.76-.11.16-2.92,6-4.52-3.55a8.2,8.2,0,0,0-.19-1.75c-.48.16-1.11,2.34-1.41,2.71-1.09,1.34-1.36,1.74-2.58.56s-1.5-2.86-1.89-4.38a8.47,8.47,0,0,1-1.56,1.94,3.24,3.24,0,0,1-4.55-.56c-.4-.47-2.07-4.13-2.08-4.12-.86.88-2,4.11-3.32,1.27a5.31,5.31,0,0,0-2.44,0c-5.8-2.43-10.5-4.3-12.53-5.2-2.26-1-1.39-4.68,1-4.71.2,0,5.09-1,6.43-1a6.59,6.59,0,0,1,4.34,1.27c.79.64,4.35,2.16,4.61,1.86,2.06-2.36,2.24,1.07,2.82,2.16,0,0,2.65-3,3.16-3.36a3.25,3.25,0,0,1,4.52.75,8.62,8.62,0,0,1,1,2.3c.8-1.34,1.62-2.93,3-3.66s1.66-.32,2.32,1.27c.19.44.17,2.71.59,3a7.82,7.82,0,0,0,.67-1.62c4.26-8.72,5.28-2.31,5.35-2.12,0,0,.47,4.1.51,4.07,1.13-1,4-8.1,4.84-8.8a1.4,1.4,0,0,1,2.36.91,16.7,16.7,0,0,1-.66,4.22s2.28-3.75,2.44-4.15c.89-2.25,1.65-3.52,4.11-3.14,1.87.29,3.25,1,2.14,5,3-2.05,8.09-6,6.89.37.21-.13,4.71-4.44,6.17-4.92a2.54,2.54,0,0,1,3.28,2.24c.39,3.2-2.42,5.31-4.58,7.12s-4.49,3.61-6.85,5.26c-4.19,2.92-8.38,5.88-12.69,8.6C208.39,62.37,208.36,62.51,207.18,63.19Z"/><path class="cls-1" d="M67,75.43c0,.51-.24.84-1,.75-5.18-.7-4.79,2.8-4.65,6.12,6.09-.78,9-6.2,14.87-8.61-3-.16-5.32,1-7.52,0-.72-1-1.42-2-2-3-1.16-1.91-2.11-4-3.38-6.35C64.36,72.47,64.65,74.64,67,75.43Z"/><rect class="cls-1" x="126.16" y="57.82" width="12.9" height="12.9"/><rect class="cls-1" x="128.85" y="61.39" width="12.9" height="12.9"/><rect class="cls-1" x="132.24" y="71.23" width="6.11" height="6.11"/><rect class="cls-1" x="141.53" y="66.83" width="6.11" height="6.11"/><rect class="cls-1" x="145.98" y="71.23" width="6.11" height="6.11"/><rect class="cls-1" x="147.63" y="72.94" width="6.11" height="6.11"/><rect class="cls-1" x="150.22" y="74.28" width="25.91" height="6.11"/><rect class="cls-1" x="123.79" y="53.16" width="6.11" height="6.11"/><rect class="cls-1" x="125.79" y="50.1" width="6.11" height="6.11"/><rect class="cls-1" x="171.86" y="21.33" width="6.11" height="6.11"/><rect class="cls-1" x="177.28" y="20.48" width="6.11" height="6.11"/><rect class="cls-1" x="183.39" y="18.93" width="6.11" height="6.11"/><rect class="cls-1" x="189.5" y="17.42" width="6.11" height="6.11"/><rect class="cls-1" x="195.61" y="18.28" width="6.11" height="6.11"/><rect class="cls-1" x="170.02" y="18.64" width="6.11" height="6.11"/><rect class="cls-1" x="159.62" y="19.51" width="6.11" height="6.11"/><rect class="cls-1" x="156.56" y="17.03" width="6.11" height="6.11"/><rect class="cls-1" x="150.94" y="19.51" width="6.11" height="6.11"/><rect class="cls-1" x="153.24" y="15.59" width="6.11" height="6.11"/><rect class="cls-1" x="154.88" y="10.92" width="6.11" height="6.11"/><rect class="cls-1" x="156.3" y="7.2" width="6.11" height="6.11"/><rect class="cls-1" x="167.87" y="14.57" width="6.11" height="6.11"/><rect class="cls-1" x="162.24" y="8.79" width="6.11" height="6.11"/><rect class="cls-1" x="165.75" y="10.92" width="6.11" height="6.11"/><rect class="cls-1" x="170.02" y="8.79" width="6.11" height="6.11"/><rect class="cls-1" x="176.13" y="9.31" width="6.11" height="6.11"/><rect class="cls-1" x="179.93" y="11.31" width="6.11" height="6.11"/><rect class="cls-1" x="183.39" y="14.57" width="6.11" height="6.11"/><rect class="cls-1" x="150.41" y="68.67" width="6.11" height="6.11"/><rect class="cls-1" x="146.2" y="67.32" width="6.11" height="6.11"/><rect class="cls-1" x="143.45" y="64.78" width="6.11" height="6.11"/><rect class="cls-1" x="141.53" y="61.98" width="6.11" height="6.11"/><rect class="cls-1" x="139.28" y="58.93" width="6.11" height="6.11"/><rect class="cls-1" x="137.34" y="55.87" width="6.11" height="6.11"/><rect class="cls-1" x="139.28" y="43.84" width="6.11" height="6.11"/><rect class="cls-1" x="154.69" y="70.73" width="6.11" height="6.11"/><rect class="cls-1" x="159.86" y="71.39" width="6.11" height="6.11"/><rect class="cls-1" x="142.93" y="42.77" width="6.11" height="6.11"/><rect class="cls-1" x="191.93" y="80.16" width="4.27" height="4.27"/><rect class="cls-1" x="194.9" y="82.3" width="5.19" height="5.19"/><rect class="cls-1" x="199.64" y="84.43" width="4.42" height="4.42"/><rect class="cls-1" x="186.04" y="82.75" width="6.11" height="6.11"/><rect class="cls-1" x="179.18" y="92.55" width="6.11" height="6.11"/><rect class="cls-1" x="167.87" y="96.8" width="6.11" height="6.11"/><rect class="cls-1" x="154.88" y="96.8" width="6.11" height="12.86"/><rect class="cls-1" x="186.04" y="106.6" width="6.11" height="6.11"/><rect class="cls-1" x="179.18" y="124.64" width="6.11" height="15.31"/><rect class="cls-1" x="215.42" y="18.93" width="6.11" height="6.11"/><rect class="cls-1" x="135.3" y="116.23" width="6.11" height="6.11"/><rect class="cls-1" x="128.85" y="106.6" width="6.11" height="6.11"/><rect class="cls-1" x="113.24" y="109.63" width="6.11" height="6.11"/><rect class="cls-1" x="113.24" y="115.79" width="6.11" height="6.11"/><rect class="cls-1" x="128.85" y="100.49" width="6.11" height="6.11"/><rect class="cls-1" x="95.77" y="101.7" width="6.11" height="6.11"/><rect class="cls-1" x="107.14" y="109.66" width="6.11" height="6.11"/><rect class="cls-1" x="73.5" y="122.96" width="6.11" height="6.11"/><rect class="cls-1" x="84.86" y="130.92" width="6.11" height="6.11"/><rect class="cls-1" x="171.54" y="112.24" width="6.11" height="6.11"/><rect class="cls-1" x="107.14" y="103.55" width="6.11" height="6.11"/><rect class="cls-1" x="119.35" y="120.92" width="6.11" height="6.11"/><rect class="cls-1" x="119.35" y="115.25" width="6.11" height="6.11"/><rect class="cls-1" x="113.24" y="82.3" width="6.11" height="6.11"/><rect class="cls-1" x="113.24" y="76.19" width="6.11" height="6.11"/><rect class="cls-1" x="119.35" y="76.34" width="6.11" height="6.11"/><rect class="cls-1" x="119.35" y="70.23" width="6.11" height="6.11"/><rect class="cls-1" x="61.28" y="135.72" width="6.11" height="6.11"/><rect class="cls-1" x="79.61" y="122.96" width="6.11" height="6.11"/><rect class="cls-1" x="92.96" y="136.89" width="6.11" height="6.11"/><rect class="cls-1" x="84.86" y="136.89" width="6.11" height="6.11"/><rect class="cls-1" x="101.03" y="147.85" width="6.11" height="6.11"/><rect class="cls-1" x="42.21" y="109.66" width="6.11" height="6.11"/><rect class="cls-1" x="68.75" y="85.35" width="6.11" height="6.11"/><rect class="cls-1" x="55.17" y="96.8" width="6.11" height="6.11"/><rect class="cls-1" x="80.75" y="73.28" width="6.11" height="6.11"/></g></g></svg>