<svg xmlns="http://www.w3.org/2000/svg" xmlns:xlink="http://www.w3.org/1999/xlink" viewBox="0 0 201.77 128.62"><defs><style>.cls-1,.cls-4{fill:none;}.cls-2{clip-path:url(#clip-path);}.cls-3{fill:#312783;}.cls-4{stroke:#312783;stroke-miterlimit:10;}</style><clipPath id="clip-path" transform="translate(0 0)"><rect class="cls-1" width="201.77" height="128.62"/></clipPath></defs><g id="Calque_2" data-name="Calque 2"><g id="Calque_2-2" data-name="Calque 2"><g class="cls-2"><path class="cls-3" d="M110.72,80s-6.13-2.5-9.43-4.16-12.5-9.3-12.5-9.3c-.48-.32-.73.17-.45.48,1.55,1.74,3.87,3.22,5.58,4.75,6.54,5.83,12.49,7.37,16.69,9.08" transform="translate(0 0)"/><path class="cls-3" d="M134.92,81.2c2.31-2.72,5.08-15.74,5.08-15.74.19-.54,1-.27.92.13-2.79,11.78-3.12,13.11-5.23,16.75" transform="translate(0 0)"/></g><polyline class="cls-4" points="136.12 58.82 132.89 62.64 127.17 58.82 123.69 62.64 117.07 57.01 114.98 60.99 110.75 57.01 108.76 59.86 104.53 57.01"/><polygon class="cls-3" points="195.66 15.81 198.11 5 189.63 14.44 195.66 15.81"/><polygon class="cls-4" points="195.66 15.81 198.11 5 189.63 14.44 195.66 15.81"/><polygon class="cls-3" points="164.18 18.72 160.54 6.37 171.41 15.6 164.18 18.72"/><polygon class="cls-4" points="164.18 18.72 160.54 6.37 171.41 15.6 164.18 18.72"/><g class="cls-2"><path class="cls-3" d="M176.24,32.85A1.88,1.88,0,1,0,178.12,31a1.88,1.88,0,0,0-1.88,1.88" transform="translate(0 0)"/><circle class="cls-4" cx="178.12" cy="32.85" r="1.88"/><path class="cls-3" d="M192,32.08a1.88,1.88,0,1,0,1.87-1.87A1.88,1.88,0,0,0,192,32.08" transform="translate(0 0)"/><circle class="cls-4" cx="193.84" cy="32.08" r="1.88"/><path class="cls-3" d="M197.21,43c0-.41,0-.58-.44-1.17a1.91,1.91,0,0,0-1.74-.91c-.92,0-4.3,0-4.3,1.83s4,3.8,4,3.8,2.1-1.77,2.36-2.82a4.39,4.39,0,0,0,.16-.73" transform="translate(0 0)"/><path class="cls-4" d="M197.21,43c0-.41,0-.58-.44-1.17a1.91,1.91,0,0,0-1.74-.91c-.92,0-4.3,0-4.3,1.83s4,3.8,4,3.8,2.1-1.77,2.36-2.82A4.39,4.39,0,0,0,197.21,43Z" transform="translate(0 0)"/><path class="cls-4" d="M168.81,40.76,168,45.29l5.46-1-1.27,3.82,4.46-2v3.64L180,48.61m11-17.53s7.64,8.61,7.45,11.47.2,7.46-3.72,7.46-6.4.77-7.74,0-5-3.63-5-3.63m-45.16,41-.36,40.23s1.27.85,4.48,0a10.76,10.76,0,0,0,4.5-2.07l-3.62-5.21ZM75,90.86s-12.19,13.56-13.49,17c-1.85,4.88-1.32,16.66-1.32,16.66s3.07.71,4.15,2.07,1.07,1.56,1.07,1.56H53.37s-3-23.11-1.27-25.36,8.38-7.8,8.77-11.12.55-21.15.55-21.15l5.29,8.85,4,4.83,1.91,1.43,1.76,2ZM191.15,50.35s-4.2,11.72-9.36,11.72S168.7,76.82,168.7,76.82C164.42,83.06,156,81.5,154.48,86s-2.92,4.68-2.92,4.68-1,32.77,3.12,33.55,3.11,3.38,3.11,3.38H146.88l-5.06-7.28L135.93,81.5a114.89,114.89,0,0,1-20.22.06c-5.78-.45-17.27-6.63-17.27-6.63a95.14,95.14,0,0,1-17,26.66c-3.84,4.16,3.32,22.63,6.43,22.63s4.68,3.38,4.68,3.38H78.7s-8.58-15.86-10.13-21.13,4.28-5.07,4.28-5.07,5.07-12.88-.19-15.8S61,69.6,61,69.6,55.32,85.4,50.45,90.47s-23.19,18.53-25.91,24S9.73,129.29,4.27,127.34s-3.5-18.73-3.11-25.16,39-60.09,44.61-60.48,22-8,23.38-9.56,4.87.4,9,0S80.64,29.61,90.78,29s25.32,3.91,30.78,5.27,21.23,1,21.23,1h5.85s2.14-4.1,5.45-5.08c0,0,2.1-10,3.06-12.31S156,3.15,160.21,3.15s14.1,10,14.1,10l9.78-1.53s15.85-13.39,17-10.72-3.63,12.63-3.25,17.6,1.72,8.8,1.53,13a17.05,17.05,0,0,1-2.68,7.84" transform="translate(0 0)"/><path class="cls-3" d="M24.58,114.92l-8.32,2.39-1.19-2.39H11.13l-3.74-2.61-3.74.82-3-3.6S-.3,125.31,3.73,127c9.81,4.07,20.85-12.07,20.85-12.07" transform="translate(0 0)"/><path class="cls-4" d="M24.58,114.92l-8.32,2.39-1.19-2.39H11.13l-3.74-2.61-3.74.82-3-3.6S-.3,125.31,3.73,127C13.54,131.06,24.58,114.92,24.58,114.92Z" transform="translate(0 0)"/></g><path class="cls-3" d="M151.52,63.59a10.52,10.52,0,0,0-4.4-2.35c-1.38-.25-1.45.52.29.95,0,0,0,0,0,0h0c2,.44,3.48,2.05,7,5.16C154.59,67.56,155.93,67.55,151.52,63.59Z" transform="translate(0 0)"/><path class="cls-3" d="M91,41.73a10.58,10.58,0,0,1-4.76-1.47c-1.16-.81-.65-1.4.87-.47,0,0,0,0,0,0h0c2.13,2.47,30.54-.46,25.56,1.32C112.44,41.2,96.93,42.09,91,41.73Z" transform="translate(0 0)"/><path class="cls-3" d="M62.39,72.18C59.86,70,64.28,57.44,64.28,57.44c0-1.07-.77-.82-.89-.43-3.64,11.48-3.37,12.19-2,16.15" transform="translate(0 0)"/></g></g></svg>