<svg xmlns="http://www.w3.org/2000/svg" xmlns:xlink="http://www.w3.org/1999/xlink" viewBox="0 0 206.62 81.27"><defs><style>.cls-1,.cls-3,.cls-5{fill:none;}.cls-2{clip-path:url(#clip-path);}.cls-3,.cls-5{stroke:#312783;stroke-miterlimit:10;}.cls-3{stroke-width:1.5px;}.cls-4{fill:#312783;}</style><clipPath id="clip-path" transform="translate(0 0)"><rect class="cls-1" width="206.62" height="81.27"/></clipPath></defs><g id="Calque_2" data-name="Calque 2"><g id="Calque_2-2" data-name="Calque 2"><g class="cls-2"><path class="cls-3" d="M162.58,3.8s1,3.93.56,6.05-2.55,1.11-4.46,1.93-4-.71-3.59-6.1c.4-5,5.58-2.86,7.49-1.88,3.61,1.86,3.18-.4,8.68-2.45s22.4,1.8,25,1.56S199.68,6,201,7.24a9.73,9.73,0,0,1,1.89,2.52l1.39,2" transform="translate(0 0)"/><path class="cls-4" d="M194.72,12.88c-.4,3.55,3.34,3.55,5.75,3.55s4.62,0,4.62-3c0-2-2.53-4.9-4.94-4.9s-5.2,2.4-5.43,4.37" transform="translate(0 0)"/><path class="cls-5" d="M194.72,12.88c-.4,3.55,3.34,3.55,5.75,3.55s4.62,0,4.62-3c0-2-2.53-4.9-4.94-4.9S195,10.91,194.72,12.88Z" transform="translate(0 0)"/><path class="cls-3" d="M194.67,57.1s.28-1.11-.46-4-5.06-3.56-5.06-3.56a13.79,13.79,0,0,0,2.78-8.16c0-4.83,0,0,4.57-2.93l2.69,1.27.72-4.68,2,1,1.31-3.09,1.55,1-.52-22.73" transform="translate(0 0)"/><path class="cls-4" d="M194.8,57s6.27-1.48,7.8,0,3.24,4.06,3.52,6c.12.82-2.11,6.12-2.11,6.12l-.59-2.24a15.34,15.34,0,0,1-1.1,3.62s-1.6-5-2.38-7.42-5.75-6.32-5.75-6.32-2.16-1.8-3.53.17S186.58,64,186.58,64s-1.92,2.22,0,3.94,3.36,1.23,3.36,1.23,3.34.36,2.25-3.94c-.78-3.05,3.2,1.64,2.56,4.76a32.7,32.7,0,0,0-.64,3.53l1.87-3-.51,4.84L198.19,70l.31,3.56,2.84-6.11-1.4-4.42Z" transform="translate(0 0)"/><path class="cls-5" d="M194.8,57s6.27-1.48,7.8,0,3.24,4.06,3.52,6c.12.82-2.11,6.12-2.11,6.12l-.59-2.24a15.34,15.34,0,0,1-1.1,3.62s-1.6-5-2.38-7.42-5.75-6.32-5.75-6.32-2.16-1.8-3.53.17S186.58,64,186.58,64s-1.92,2.22,0,3.94,3.36,1.23,3.36,1.23,3.34.36,2.25-3.94c-.78-3.05,3.2,1.64,2.56,4.76a32.7,32.7,0,0,0-.64,3.53l1.87-3-.51,4.84L198.19,70l.31,3.56,2.84-6.11-1.4-4.42Z" transform="translate(0 0)"/><path class="cls-3" d="M192.43,39.45l-3.72,6-.32-4.72-2.8,5.44-1.7-4.46-3,4.46-2-4.78L175.37,44l-.75-4.43-5.43,2.13-.53-5.15-5.11,2.48V34.81l-5.65,1.25-1-4.37-5.14,1.47-.18-4.36-6.52,1.52V26.8l-4.24.56v-3.2h-3.11L139,20.79l-3.76-2,5.19-3-4.55-3.33,7.43-.68L140.22,7.9s8.58,1.76,10.15,2.4c2.95,1.2,4.71-4.65,4.71-4.65" transform="translate(0 0)"/><path class="cls-4" d="M177,7.35a1.76,1.76,0,1,0,1.76-1.76A1.76,1.76,0,0,0,177,7.35" transform="translate(0 0)"/><circle class="cls-5" cx="178.76" cy="7.35" r="1.76"/></g><line class="cls-3" x1="189.58" y1="48.91" x2="182.87" y2="56.98"/><polyline class="cls-5" points="196.08 10.77 193.25 6.27 191.73 6.9 190.77 5.59 185.85 5.59"/><g class="cls-2"><path class="cls-4" d="M73.11,58.73S53.57,59.09,34.54,50C15.86,41,7.27,28.57,2.47,38.82c-4.32,9.25-3.49,26.12,23,31.7,22.21,4.67,48.22-.77,56.06-2.66a1.19,1.19,0,0,0,.45-2.1Z" transform="translate(0 0)"/><path class="cls-5" d="M73.11,58.73S53.57,59.09,34.54,50C15.86,41,7.27,28.57,2.47,38.82c-4.32,9.25-3.49,26.12,23,31.7,22.21,4.67,48.22-.77,56.06-2.66a1.19,1.19,0,0,0,.45-2.1Z" transform="translate(0 0)"/></g><path class="cls-5" d="M202.58,16.19l-1.84,7.63-1.62.16v-7.7m5.51,10.18-4.1-.42m-3.8.42,2.47-.68,1.94.47-1.33,5.51h-1.76l1.15-6-1.15,6-1.73,0,.41-5.27-8.36,3.62-2.72-.24v2.8l-4.29,1" transform="translate(0 0)"/><g class="cls-2"><path class="cls-3" d="M190.13,69s-3.89,3.15-17.22,3.29A53.72,53.72,0,0,1,149.43,67s.32,10.5-13.8,9.23-19.12-7.32-29.79-7.32-5.28,4.45-12.57,4.77-10.75-7.26-10.75-7.26l-2.9-2.76c-13.17-6.68-7.77-14-5.1-24.34S104.85,7.68,111.67,4.82s31.28,7,31.28,7" transform="translate(0 0)"/><path class="cls-4" d="M93.28,73.69s3.31,2.08,6.07,1.42,1.71-2.22,5.85-1.2,13.78,8.37,13.27,6.57-1.77-3-.28-2.7,4.48,3.77,4.34,2.38a16.11,16.11,0,0,0-1-3.49,2.24,2.24,0,0,1,2.07.69c.66,1,1.35-3.68-.54-4.19,0,0-8.46-3.43-11.53-3.91s-8.91-1.21-11.38.17-2.27,2.31-3.47,3.16a8.65,8.65,0,0,1-3.36,1.1" transform="translate(0 0)"/><path class="cls-5" d="M93.28,73.69s3.31,2.08,6.07,1.42,1.71-2.22,5.85-1.2,13.78,8.37,13.27,6.57-1.77-3-.28-2.7,4.48,3.77,4.34,2.38a16.11,16.11,0,0,0-1-3.49,2.24,2.24,0,0,1,2.07.69c.66,1,1.35-3.68-.54-4.19,0,0-8.46-3.43-11.53-3.91s-8.91-1.21-11.38.17-2.27,2.31-3.47,3.16A8.65,8.65,0,0,1,93.28,73.69Z" transform="translate(0 0)"/><path class="cls-3" d="M188.32,61.29s-9.49-9.23-17.71-12.47l-9.23,4.33-2.46-6-4.26,3.14L151.74,45l-4,3.3-3.18-4.21-3.49,4.21L137.13,45l-2.26,5.69-5.08-3.3" transform="translate(0 0)"/><path class="cls-4" d="M106.28,14.29C110.47,10.36,115,7,123.07,8.77c9.77,2.14,7.82,3,7.34,2.91-12-2.43-13.81-3.64-20.76,2-2.54,2-7.81,6.73-10.43,8.65-20,14.62-17.43,11.14-17.11,10.91-1.32,1,20.93-15.87,24.17-18.91" transform="translate(0 0)"/><path class="cls-4" d="M104,68.47a18.91,18.91,0,0,0,7-13.9c.06-1.47-.6-.53-.65-.1-.81,7.52-6.53,12.52-10.25,15a18.23,18.23,0,0,1,3.9-1" transform="translate(0 0)"/></g><path class="cls-4" d="M76.63,40.28a10.52,10.52,0,0,1,2.8-4.13c1.11-.87,1.53-.21.19,1,0,0,0,0,0,0h0C78,38.48,77.49,40.59,75.86,45,75.76,45.22,74.56,45.83,76.63,40.28Z" transform="translate(0 0)"/></g></g></svg>