<svg xmlns="http://www.w3.org/2000/svg" viewBox="0 0 289.13 181.07"><defs><style>.cls-1{fill:blue;}</style></defs><g id="Calque_2" data-name="Calque 2"><g id="Calque_1-2" data-name="Calque 1"><path class="cls-1" d="M285.31,87.71c-2.74-6.37-5.64-12.68-8-19.18-1.85-5-3.23-10.26-5.36-15.21-.52-1.2,0-2.22.17-3.34.53-3-.68-4-3.63-3.49-2.21.39-7.83.24-13.22,3.16-6.4,3.46-11.8,4-18-.12-4.33-2.83-9.12-5-13.45-7.94-2.22-1.49-1.58-3.32-2.24-6.56-1.2-5.86.57-5.07-5.54-7.63a15.85,15.85,0,0,1-4.28-2.29c-2.51-2.18-4.34-2-6.18.39a58.06,58.06,0,0,1-5.78,6.23,3,3,0,0,0-1,2.48c.12,7.33.77,11.77-1.19,18-.55,1.69-.94,1.23-1.56.29-4.58-6.86-9.89-13.16-15-19.61a79,79,0,0,1-9.71-15.06,9.7,9.7,0,0,0-4.52-4.21c-5.58-3-9.22-6-15.68-9.4-2.85-1.52-4.77-1.42-7.58-1.92C138.87,1.53,133.09,1,128.43.13c-1.75-.33-1.64-.07-1.27,1.46.63,2.63,1.41,4.49,2,7,.34,1.36.64,2.07-3.52,1-6.29-1.59-11.08-.37-16.47,2-5.89,2.61-6.41,2.34-5.71,8.36.51,4.3-.19,8.62.68,12.89a4.78,4.78,0,0,0,2.16,3.1c10.11,7.76,17.16,13.63,25.22,21.07,5.33,5.24,11.27,9.87,16,15.7-17.42-5-63-24.74-80.54-31.47C65.1,40.45,63.49,40,61.4,41c-5.49,2.63-11.18,4.84-16.69,7.42-5.79,2.71-9.33,5-15.12,7.68-2.06,1-1.8,2-.67,3.2,5.86,6.25,11,14,15.89,20.42a81.65,81.65,0,0,0,9.12,9.54c8.28,7,9.92,7.91,18.12,10.66,10.32,3.47,22.49,6.44,32.57,10.63-.83,1.4-3.29,1.5-4.43,1.34-10-1.37-20.81-2.56-30.87-3.57-12.24-1.28-22.86-1.44-35.11-2.47-3.09-.26-6.69-1.14-9.45,1.53A145.72,145.72,0,0,1,5.73,123,30.69,30.69,0,0,0,0,128.19c4.16,2.83,9.06,3.16,13.38,5,2.52,1.07,5.07,2.12,7.62,3.13,4.45,1.77,7.19,2.46,11,2.52,12.33.21,24.68.66,37,.39,7.43-.16,14.9.32,22.27-.29,4.89-.4,9.24-.46,14.74-1.18,0,.31,5.67,3.4,5.19,3.5-12,2.58-24.21,3.26-36.2,5.68-1.12.21-2.29.22-3.38.46-3.87.85-6.44,3.23-9.33,5.43-4.94,3.76-10.67,6.21-16,9.41-3.08,1.86-3.52,2.55-2.26,5.93,1.42,3.81,3.05,7.54,4.6,11.31a2,2,0,0,0,2.18,1.37c4.24,0,8.48,0,12.71.2,5.42.24,9.86-2.59,14.6-4.46,20.88-8.23,41.84-16.24,63-23.79a5.91,5.91,0,0,1,5.57.81,8.81,8.81,0,0,0,9.39.6c3.63-1.82,6.65-1,9.49,1.67a25.24,25.24,0,0,0,4.54,3.44c2.27,1.31,3.57,2.88,3.06,5.68-.24,1.31.49,1.89,1.91,1.67,3.17-.51,6.25-1.23,9.59-.42,3.07.74,4.23-2.47,6-4.18a42.79,42.79,0,0,0,3.61-4.41,2.81,2.81,0,0,1,3.4-.78c6.29,2.11,12.55,4.28,18.84,6.4.85.28,1.63.72,2.67.11,5.86-3.48,12.65-4.77,18.74-7.68,6.77-3.24,14.11-5.15,20.61-9,4.78-2.86,10.23-3.45,15.64-4,1.93-.19,3.8,0,4.25-2.55a2.52,2.52,0,0,1,.75-1.2c3.52-3.55,7.52-6.7,9.42-11.57L289.13,91C286.81,91.1,286,89.36,285.31,87.71ZM269.1,65.92c1.17,4.49.56,8.9.66,13.29,0,1.8-.76,2.47-2.46,2.83-2.76.57-10.58-.16-10.58-.16S266.07,67.85,269.1,65.92Zm-29.19,36.26c1.63-.6,1.11.66.93,1.46-.8,3.52-1.84,7-2.39,10.56-.71,4.64-1.18,3.94-6.88,5-1.32,0-3.56,1-4.61-1.39-1.25-2.8.7-9.71,3.23-11.5C233.13,104.22,236.61,103.39,239.91,102.18Zm-9.15-.89c1.72-5,3.59-9.85,5.67-15.48A36.55,36.55,0,0,1,241.9,97.1c.4,1.28-.4,1.79-1.18,2.31a32.31,32.31,0,0,1-8.05,3.7C230.45,103.86,230.22,102.84,230.76,101.29Zm7.81,20.33c6.13,3.88,11.36,9.06,17.87,12.41.56.28,1.34.93.42,1.5s-2.1,1.6-3.67.89a115.83,115.83,0,0,1-24-15.11C232.35,121.22,235.46,119.65,238.57,121.62Zm5.08.72h-.08l0,0-3.89-2.8,2.72-15.23,17,22.33-1,6.31Zm2-23.47a66.5,66.5,0,0,1,7.48-12c2.19,9.33,2,18.39,2.44,27.46a46.07,46.07,0,0,1-9.23-11.7C245.74,101.47,245.06,100.24,245.69,98.87Zm13.2,18.28a72.23,72.23,0,0,1-1.78-12.87c3.16,2.79,5.14,6.1,7.75,8.84,3.39,3.55,3.28,3.9-1.61,5.37C261.2,119.21,259.47,119.91,258.89,117.15Zm-2.08-19.8c.06-4.2.1-7.62.15-11a1.26,1.26,0,0,1,1.45-1.4c2.93.07,5.89-.37,9.23.24A59.62,59.62,0,0,1,256.81,97.35Zm10.77-40.06a77.21,77.21,0,0,1-16.35-3.61C260.64,47.41,264.9,50.49,267.58,57.29Zm0,2.4L241.8,77.41,229.16,53S259,57.64,267.58,59.69ZM220.36,54c2.5,7,9.17,21.32,9.48,22.8-6.4-1.63-12.16-4.8-18.19-7.3-1.19-.5-1-1.62-.61-2.46,2.36-4.58,4.55-9.26,7.54-13.49C219.59,52.14,219.93,52.81,220.36,54Zm-13.67,49.51c-3.76-.87-5.34-3.93-3.9-6.85,1.13-2.3,3.25-3.76,5.1-5.43a1.45,1.45,0,0,1,2.08.11c4.3,4.3,8.63,8.59,12.94,12.87-.19.33-.39.65-.59,1C217.1,104.63,211.81,104.71,206.69,103.52Zm6.51,4c-.15,2.5-.1,12.17-.16,14.57-.13,4.6-.46,4.86-4.84,4.24a17.37,17.37,0,0,0-2.52-.46c-2.7,0-3.34-1.85-3-3.83.62-3.34.37-6.7.66-10,.58-6.49.64-6.49,7-6C211.46,106.2,213.34,105.84,213.2,107.55Zm-6.9-49.71c.91-1.59,8.35-5.52,10.38-5.08-1.53,2.44-6,10-7.79,13.16C207.66,63.37,205.08,60,206.3,57.84Zm18.78,50.22c2.61.66.76,4.3.55,6.1-.32,1.31-1.06,1.9-2,.53-1.85-2.7-4.41-4.75-6.74-7.64C220.05,106.41,222.54,107.41,225.08,108.06ZM203.23,31c5.44-6.47,8.27-4,14.3-.15a70.46,70.46,0,0,1-8.85,2.28c-.66.12-6.55.89-7.7,1.17C201,34.33,202.81,31.5,203.23,31Zm-2.64,6.47c3.41,13.18,1.48,13.36-1.8,15.47C200.14,50.38,200.31,40.14,200.59,37.5ZM144.68,5.29c1.69.39,3,.38,3.39,2.37a26.34,26.34,0,0,0,4,10.17c-8-3.23-14.28-8.93-20.83-14.4A69.6,69.6,0,0,1,144.68,5.29Zm-6.48,6.46c6.77,5.09,14.47,8.75,20.55,15C166,34.19,174,41,181.92,47.78c6.15,5.33,12.51,10.43,18.26,16.18,2.82,2.81,6.16,5.52,6.56,10.1.34,3.88.95,7.73,1.51,12.14a21.08,21.08,0,0,1-2.56-1.62c-6.21-5.56-12.5-11-18.56-16.74-9.62-9.08-19.15-17.61-27.81-25.79-5.09-4.8-10.67-10.22-16.11-14.61a46.36,46.36,0,0,1-7.8-7.37c-3.18-4-3.78-9.41-5.38-14.26C132.91,7.7,135.54,9.75,138.2,11.75Zm-9,21.33,1.59-16.52s4.15,8.79,9.9,12.73C147.49,34,165,51.88,169.33,55.44c5,4.08,35.32,31.42,35.32,31.42l-4.48,3.68L190.3,86.2,129.19,34.33ZM198,100.59c-3.48-1.32-6.93-2.71-10.39-4-.78-.3-1.62-.75-1-1.61.72-1.05.34-2.94,1.69-3.17,3.78.33,6.28,2.38,9.14,3.54,1.66.67,2.18,2.08,2.57,3.56C200.39,100.61,199.59,101.21,198,100.59Zm-93.08-71.4a25.19,25.19,0,0,1-.41-6c0-1.44-.52-3.3.19-4.22,1.12-1.48,12.58,3.43,16.61,5.69,2.36,1.32,2.56,4,2.35,6.08-.17,1.68-2.51,1.13-4,1.27-3.34.3-6.68.58-10,.94C105.86,33.36,105.41,32.94,104.87,29.19Zm8.67,8.69L128,35.83l59,50-2.67,2.57L153.52,74.47Zm20,34.51c9.26,3.88,15.21,6.28,24.26,9.19,2.34.76,12.75,3.49,15,4.62s-1.21,5.41-1.31,5.63c-11-4.41-43.9-12.94-45.74-13.44-4.8-1.31-15.78-12.51-17.8-16.54C116.11,64.84,127.8,70,133.53,72.39Zm34.2,55.27c-4.68,2.13-4.69,2.21-8.17-1.72-2.71-3.06-5.57-6-7.52-9.6.55-.59,1-.34,1.46-.27,7.31,1.15,14.6,2.37,22,2.89,1.81.13,3.66-.22,5.44.47.9.34,2.11.56,2.16,1.62s-1.17,1.13-1.92,1.51C176.87,124.73,172.1,125.67,167.73,127.66ZM168,149c-4.29-2-7.09-4.46-7.59-6.32A17.27,17.27,0,0,1,168,149Zm-6-14.91c1.05,1.33,1,2.14.08,3.2-2,1.9-3.78,5.24-6.47,2.12-12-12.35-25.79-22.81-37.39-35.58-.5-.54-1.24-1-1-2.22.49-.9,7.85-14.86,9.46-13.24,1.43,1.55,13,16.61,16.46,21.35C149.74,118.69,155.49,125.84,162,134.1Zm-9.68,6.73,3.36,5.31-13.88-5.31-14.18-4.18-3.19-11.16,14.91,6.86Zm-46-40.88c8.3,1.67,14,8.59,19.92,14q11.49,10.89,22.94,21.85C133.71,125.33,119.66,113.06,106.29,100Zm9.66-.41c-.94,1.89-3.13.41-4.72-.12-6.19-2-8.49-5.15-12.48-11.22,0,0,0-.11,0-.17-1-1.74-1.93-3.54-2.89-5.32l.05.08,1.76-13.71,14.34,4c7.92,5.42,6.06,9.36,7.93,17.61C120.59,94.5,117.38,96.67,116,99.54ZM74.23,50.24c7.69-.22,17,5.07,25.8,8.38A55.48,55.48,0,0,1,109.32,70L93.74,64.38V79.22c-2.72-2-14.21-13.51-17.06-16.54C74.42,60.27,72.36,50.32,74.23,50.24ZM31.69,57.16c8.26-4,16.28-8.59,24.84-12,5.79-2.32,5.83-2.22,9.45,3,1.76,2.07,3.26,4.47,2.71,7.29-.54,3.1-1.37,6.17-1.66,9.3-.26,2.75-1.46,2.5-3.42,1.82a102,102,0,0,0-15.1-4.51C42.62,61,36.7,60,30.42,58.22A9,9,0,0,1,31.69,57.16Zm61.78,47.33c-6.49-2-13-4.1-19.47-6-.15,0-10.94-5-11-5s-7.58-4.94-10.55-8.11c-2.7-2.86-5.9-5.23-7.89-8.69C43.49,75.41,35,62.1,35,62.1a317.18,317.18,0,0,1,39.21,9.72,18.42,18.42,0,0,1,2.48.67c2.75.81,5.64,1.61,7.93,3.28l.11-.06s0,.08,0,.12a42.61,42.61,0,0,1,4.1,3.8,24.11,24.11,0,0,1,3.45,3.12h0s17.87,24,22.1,27.83C112,110.69,93.92,104.63,93.47,104.49Zm-67,31.3a3.56,3.56,0,0,1-2.26-.07L2.39,127.49c8-6.51,15.72-12.65,23.29-18.92,1.46-1.21,2.26-.95,3.66.06,7.91,5.67,15.3,12.06,23.76,17,.79.46,2.19.66,2.15,1.65,0,1.17-1.44,1.34-2.41,1.65C44.17,131.61,35.27,133.46,26.5,135.79Zm77,.64q-33.66,1.55-67.35.09l-.12-1c4.88-1.27,9.74-2.59,14.64-3.79,2.93-.72,5.67-2,8.9-1.73,7.46.7,15,1.22,22.43,1.51,7.18.29,14.36.37,21.53,1C105.4,132.67,104.48,136.4,103.54,136.43Zm-9-6.63a50.87,50.87,0,0,1-8,0c-2.2,0-12.28-1.09-15.14-1.53,0,0,0,0-.08,0-.9-.15-7.75-1.59-8.48-1.83a47.28,47.28,0,0,1-10.24-4.72c-3.42-2.11-6.72-4.39-9.14-7.64-1-1.36-.67-5.15,3.69-5,8.11.37,14.45.31,22.19,1,1.57.14,37,4.59,40.56,5a42.07,42.07,0,0,1,10.08,2c1,.35,12.32,7.26,14.54,11.24-2.22-1.26-3.89-1.71-6.32-3.07-3.56-2-6.51-4.4-10.75-2.39C115.92,123.57,98.31,129.47,94.56,129.8Zm12.17,6.41a10.2,10.2,0,0,0,0-2.14c.47-6.91.66-6,7.37-8.22a58.67,58.67,0,0,0,5.69-1.95c1.44-.63,2.1-.22,2.63,1.1a64.07,64.07,0,0,1,3,9.25c.42,1.78-.07,2.71-2.14,2.62C119.83,136.71,108.22,136.12,106.73,136.21ZM66,178.89c-1.85.63-15.61,1.87-16.28.38q-2.53-5.62-4.89-11.33a2.88,2.88,0,0,1,1.24-3.77c6.19-3.81,12.43-7.54,18.64-11.31,1-.58,1.41-.31,1.48.78.15,2.21,1.57,21.94,1.65,22.84A2.54,2.54,0,0,1,66,178.89Zm64.43-25.27c-1.48.89-35.43,14.41-44,17.32-2.08.71-4.2,1.21-6.31,1.81a16.06,16.06,0,0,1-4.62,1.05c-2,0-4.07-2.69-4.8-4.53-.24-.61-1.56-5.13-1.75-6-.8-3.52-.07-13,1.59-13.4,9.12-2.36,36.37-5.66,39.89-6.07,6.67-.79,19.58,4.3,20.89,6.38A2.54,2.54,0,0,1,130.47,153.62Zm24.19-1a8.63,8.63,0,0,1-7.49-.27c-6.56-3.41-12.37-4.81-19.45-6.9-4.91-1.45-16.59-4.78-17-7.39-.15-.89,4.13-.35,5.17-.22,4.15.54,7.41.5,11.49,1,12.31,1.48,22.67,7.6,34.59,11.48C159.5,151.1,157,151.74,154.66,152.65Zm16.39,5c-2.16-1.49-4.12-2.81-6-4.18-.57-.41-1.47-1.21-.13-1.53,2.13-.51,3.75,1.07,5.44,2C171.65,154.72,171.84,156,171.05,157.64Zm9.59,5.75c-2.15,0-4.27,1.12-6.44.27a33.35,33.35,0,0,1-.34-6.56c-.75-2.78,1.28-3.4,3.32-3.85,2.32-.52,2.66,1.31,3.07,2.9s.74,3.15,1.05,4.74C181.47,161.83,182.28,163.37,180.64,163.39Zm-.77-16.11c-.67.54-1.47,1.43-2.66.22a71.57,71.57,0,0,1-8.35-10.21c-1.23-1.85-.47-2.7,1.54-2,5.73,1.38,11.15,3.7,16.94,5.57C184.76,143.08,182.38,145.25,179.87,147.28Zm6.27-9.4c-2.07-.72-4.15-1.4-6.25-2-.95-.28-1.65-.57-1.26-1.59a16,16,0,0,1,3.18-8c.79-1.1,1.58-1.51,2.49.18a39.41,39.41,0,0,1,3.46,10.24C188.1,138.17,187.35,138.3,186.14,137.88Zm3.83-31a9.78,9.78,0,0,1-2.94,2.68c-2.18,1.46-4.55,3-7.14,3.53a79.9,79.9,0,0,1-12.48.56,96.91,96.91,0,0,1-12.15-1c-3.21-.47-6.55-1.27-9-3.56-.37-.36-2.22-2.5-2.89-3.4-4.57-6-9.41-11.87-14.07-17.84a4.76,4.76,0,0,1-.73-.88,41.29,41.29,0,0,1-4.45-6.14c.61.15,8.85,2.21,9.35,2.36,4.67,1.4,14.28,4.39,14.28,4.39,1.57.34,43.34,14,48.39,15.43C194,104.19,192,105.54,190,106.83Zm11.93,43.36c-6.39,1.85-6.37,1.93-8.34-4.41-1.88-6-1.46-6.61,4.72-8.09,1.57-.37,2.42.76,3.69,1,6.15,1.11,11.76,3.87,17.58,6.73C213.66,147,207.76,148.49,201.9,150.19Zm21.88,8.14c-.46.2-1.06.75-1.58.27s-.09-1.28.22-1.82c1.52-2.64,3.45-5,4.69-7.85.58-1.31,1.49-.39,2.15-.05a36.7,36.7,0,0,0,8.91,3.7C233.22,155.43,228.31,156.4,223.78,158.33Zm15.73-13.09c-1,2-3.23.48-4.83-.15-7.29-2.88-14.23-6.59-21.67-9.13a61.19,61.19,0,0,1-7.87-3.46c-1.28-.65-2.46-2.11-2.17-3.39.25-1.08,9.13-.73,11,.44,7.24,4.47,14.42,9,22.33,12.32C237.75,142.46,240.37,143.43,239.51,145.24Zm-22.83-18.63V109.73l6.23,9.81,20.66,17.33-3.89,2.51Zm24.95,23.68a1.36,1.36,0,0,1-1.72-.69c-.14-.37.33-1,.61-1.49s.86-1.08,1.64-.65,1.79,1,2.83,1.67C244,150.2,242.69,149.91,241.63,150.29ZM252.69,144a17.51,17.51,0,0,1-6.3,2.27c-1.92.44-2.33-1-2.94-2.17-.31-.59-1.1-1.14-.07-1.9a15.54,15.54,0,0,1,7.83-3.13c1.9-.19,2.35,1.47,3,2.63C254.9,143,253.54,143.47,252.69,144Zm5.86-2c-2.47.61-3.37-2.56-1.49-4,3.12-2.81,5.69-2.77,11,.28A25,25,0,0,1,258.55,142Zm2.71-18.68c-.59-.68-.31-1.47.55-1.87a25.06,25.06,0,0,1,5.86-2.33c.8-.14,1.93-.33,2,1,.26,4.24-.33,8.49.21,12.83C266.23,130.28,264.08,126.51,261.26,123.33Zm11.06-10.91-2.44,2,.43-28.27,1.62-5.4,9,24.39-7.24,6.07A3.88,3.88,0,0,1,272.32,112.42Zm7.26,11.16a19.37,19.37,0,0,1,.6-10.86C283.82,118.49,283.76,119.5,279.58,123.58Zm1.43,8.87c-1,1.77-2.51,3-4.64,4.8.49-2.54,2.36-8.57,5-6.6C282.46,131.5,281.32,131.89,281,132.45Zm5.36-8.87c-.39.87-.94,2.29-1.63,3.64-.47.92-.68,2.27-2.42,1.07-1.44-1-1.82-1.74-.82-3.17a33,33,0,0,1,2-3.09c.45-.51.56-2,1.83-1.2C286.15,121.29,286.62,122,286.37,123.58Z"/></g></g></svg>