<?xml version="1.0" encoding="utf-8"?>
<!-- Generator: Adobe Illustrator 25.0.0, SVG Export Plug-In . SVG Version: 6.00 Build 0)  -->
<svg version="1.1" id="Calque_1" xmlns="http://www.w3.org/2000/svg" xmlns:xlink="http://www.w3.org/1999/xlink" x="0px" y="0px"
	 viewBox="0 0 192.5 97.4" style="enable-background:new 0 0 192.5 97.4;" xml:space="preserve">
<style type="text/css">
	.st0{stroke:#000000;stroke-miterlimit:10;}
</style>
<g id="Calque_2_1_">
	<g id="Calque_1-2">
		<g id="Calque_2-2">
			<g id="Calque_1-2-2">
				<path class="st0" d="M169.5,42.8c-1.9-3.6-5-5.3-9.2-5.4c-4.7-0.2-9.4,0.7-13.7,2.6c-10.1,4.5-20,9.5-29.8,14.4
					c-2.8,1.4-5.6,2.8-8.8,1.6c-6.9-2.7-13.3-6-16.8-13c-0.8-1.5-1.8-2.9-2.6-4.4c-2.6-5-5.2-10-7.5-15.1c-2-4.5-3.4-9.2-5.6-13.6
					c-2.7-5.6-6.7-9.4-23-9.4C40.2,0.4,28,1,15.9,2.5c-4.1,0.6-8.2,1.8-12,3.4c-4.2,1.7-4.5,6.4-0.7,9.1c0.8,0.6,1.7,1.1,2.6,1.6
					c-0.2,1,0,2,0.6,2.7c1.4,1.5,7.2-0.8,7.2-0.5c-0.1,3.6,3.9,2.1,5.6,1.6c0.9-0.3,1.8-0.7,2.6-1.1c0.9,3.5,6-0.1,6-0.1
					c1,3.5,7.8-0.7,8.1,0.2c0.7,2.5,6.5-0.5,6.6-0.4c1.5,1.6,3,0.4,4.5,0.2c2.4-0.5,5-1.1,7.5-1.7c-0.6,1.4-1.5,2.2-1.7,3.7
					c-0.1,0.8,0.4,1.5,1.1,1.6c0.3,0,0.6,0,0.9-0.1c-0.2,1.2-0.3,2.6,1.2,3.4c-1,1.9-0.8,3.5,0.2,3.9c0.3,0.1,0.6,0.5,0.5,0.8
					c-0.9,2,0.4,2.7,1.7,2.8c-1,2.6-0.1,3.6,1.4,4.2c0.4,0.2-0.2,0.8,0.6,1.4c0.1,0.1,0.9,0.5,1.3,0.3c-0.6,2.1-0.7,2.3-0.3,2.7
					c0.4,0.3,1.4,0.4,1.2,0.8c-0.4,1.4,0.1,1.8,1.4,2.3c0.6,0.3,0.4,1,0.4,1c-0.5,1,0.3,2.4,1.4,2.8c-0.2,0.8-0.7,1.3,0.1,2.1
					c0.5,0.3,1.1,0.5,1.7,0.4c0.6,0.3,0.2,0.9,0.3,1.4c0.3,1.3,1.4,0.6,1.2,1.5c-0.5,1.7,1,2.3,2.2,2.4c-0.4,1.3-0.3,1.7,0,2.1
					s1.6-0.2,1.5-0.2c0.1,1.2,0.2,1.9,1.6,2c0,0.8,0,1.7,0.1,2.5c0.1,2.8-1.1,5.4-3.2,7.2c-2.6,2.2-4.3,3.6-6.9,5.8
					c-1.3,1.2-3,3.3-4.5,4.3c-2.2,1.5-4.5,2.8-6.8,4.3c-1.4,0.8-0.2,2.4-0.1,2.7l5,6.3c0.1,0,0.7,0.1,1,0.1c4.4-3.7,10.1-5.5,15.9-5
					c-0.2,1.7-0.4,3.1-0.4,4.6c-0.1,2.8,2.2,4.3,4.3,2.7c2.5-1.9,4.6-4.3,7.2-7c3.6-0.5,7.8-1,11.8-3.3c0,0,7.3-4.8,10-6.5
					c4.3-2.8,8.8-3.6,13.8-1.7c6.4,2.4,12.9,5,19.9,5.3c2.3,0.1,5.4-0.4,7.6,0.3c3.9,1.3,6.7,0.5,10.4,0.8c0.3,0,0.7-0.1,0.9-0.3
					l0.7-0.8c-0.8-0.5-1.6-0.9-2.4-1.4c-2.6-1.6-5.1-3-7.2-5.3c-1.3-1.5-3.4-2-5.3-1.2c-9.6,3.3-20.3-4.3-24.7-9.2
					c-0.8-0.9-0.9-2.1,0.3-2.6c4.2-1.8,8.5-3.4,12.9-4.7c2.9-0.8,6-0.7,9.2-0.9c0.4,2.8,0.6,4,2.9,2.8c-0.2,3.2,1.3,3.3,2,3h0.1
					c-0.2,1.5,0.7,2.7,2.6,2.4c0,0.6,0.2,1.2,0.6,1.6c0,0,1.6,0.7,2.3-0.2c0,0.8-0.1,1.8,0.4,2.3c0.3,0.3,0.9,0.5,2.2,0.2
					c0,0.7,0.1,3,1.9,1.9c0,1.3,0.4,2.9,2.1,1.9c0.9,2,1.4,4.2,2.4,6.2c0.2,0.5,0.8,0.8,1.3,0.6c0,0,0,0,0,0h0.1l0,0l2.8-1.5
					c0.8,1.2,1.6,2.4,2.5,3.6c1.5,2,2.8,2.1,3.9,0c0.7-1.6,1.3-3.2,1.8-4.8c0.9,1.4,1.9,2.7,3,3.9c0.6,0.8,1.8,1,2.6,0.4
					c0.4-0.3,0.6-0.7,0.7-1.1c0.2-0.8,0.4-1.7,0.5-2.6c1.7,0.5,2.4,0.8,3,0.5c1.8-1,1.8-2.4,1.6-3.9c-0.1-0.4-0.2-0.8-0.2-1.3
					c0.7,0.4,1.4,0.9,1.6,1c1.2,0.5,2.6-0.2,3.1-1.4c0.1-0.3,0.1-0.5,0.1-0.8C191.7,71.4,174.6,52.3,169.5,42.8z M189.6,73.6
					c-0.7,0.1-3.6-1.8-3.6-2c0.3,1.5,0.4,3,0.4,4.5c-0.1,0.7-0.5,1.3-1.2,1.6c-0.7,0-1.4-0.3-1.8-0.8c-0.8-0.9-1.6-1.9-2.2-2.9
					c0.1,2.9,1,7.3-0.8,7.7c-0.7-0.2-1.3-0.7-1.7-1.3c-4.8-6.6-6-14.7-8.8-22.1c-0.1,0.7,2.7,10.6,4.3,14.8c0.8,2.5,0.8,5.2-0.2,7.7
					c-0.7,2.2-3.4,1-3.5,1c-2.4-2-3.7-17.5-3.9-17.5v13.4c-0.9,1.6-2.9,1.3-3.1,0.1c-0.5-1.4-1.3-12.3-1.5-15c0,0-0.4,10.7-2.2,10.1
					c0-5.2,1-9.6,1-14.8c-0.2,0.1-1.4,14-2.8,13c-0.1-2.1,0.2-9.9,0.2-9.9s-0.3,8.5-2.8,7.8c0-1.8,0.4-8.7,0.4-8.7s-1.2,5.6-2,6.1
					s-1.2,0.3-1.2,0.3l1.2-7.7c0,0-1.8,5.4-2.2,5.6c-0.6,0.3-1.3,0.3-1.8-0.1c0.5-2.4,1.1-4.8,1.9-7.1c-0.1,0-3.3,5.5-3.3,5.5
					c-1.9-0.7,1-7.2,1-7.2s-3,4.7-4.1,4.4c-0.3-1.5-0.6-2.6-0.8-3.6l-15.2,2.2c9.8-8,19.4-16.5,33-18c-1.8,0-3.5,0.2-5.3,0.4
					c-9.7,2.1-17.4,8-25,13.8c-3.2,2.4-5.8,5.4-9.7,7c-2.4,1-2.8,3.2-0.8,4.9c3.2,2.8,6.6,5.4,10.2,7.5c4.4,2.6,9.6,3.2,14.5,1.7
					c1-0.3,2.1-0.4,3.1-0.2c0,0.2,0,0.4,0.1,0.6c-0.3,0.1-0.7,0.1-1,0.2c-0.9,0.3-1.7,0.6-2.5,1c0.4,0.9,0.8,1.7,1.2,2.6
					c0.3,0.7,0.7,1.3,1.1,2.1c-7,0.7-13.3-0.7-19.6-2.8c-4.3-1.4-8.7-3-13.1-3.5c-3.8-0.5-7.4-1-10.5-3.3c-2.9-2-6.4-3.2-9.9-3.3
					c-1,0-2.1,0.4-2.9,1c7.7-1.8,12.8,4.3,19.2,6.1c-4,2.4-9.8,6.4-13.9,8.9l0,0c-7.5,4.1-16,2.9-24.5,2.5c-1.7-0.1-3.4,0-5.1,0.4
					c-2.3,0.4-4.5,1.3-6.4,2.5c-3,1.7-3.8,1.8-5.4-2c2.1-1.2,4.4-2.2,6.6-3.1c4.4-1.6,8.3-7.2,8.1-12.9c-1.3,1.2-2.4,1.9-2.9,2.9
					c-1.7,3.6-4.9,5-8,6.6c1.9-1.9,3.8-3.8,5.8-5.6c1.4-1.4,2.9-2.7,4.4-3.9c4.4-3.2,5.7-6.2,4.7-11.5l0,0c0.7-1.2,1.4-2.5,1.9-3.8
					c-0.8,0.9-1.7,1.7-2.7,2.4c-0.2,0.1-0.5-0.3-0.3-0.9c0.6-1.4,1.3-2.8,2.1-4.1c-1.3,1.2-2.7,2.3-4.2,3.3c0.6-1.3,2.7-5.5,2.9-6
					c-0.4,0.1-2.6,3.6-3,3.7c-0.8,0.2-1.6-0.3-1.8-1.1c0-0.1,0-0.3,0-0.5c0-0.5,3.4-5.6,3.4-5.6l-4.6,4.5c-0.5-0.6-0.5-1.5,0-2.1
					c1-2.1,2.2-4.1,3.3-6.1c0,0-1.7,2.5-2.6,3.7s-2.2,2.5-3.4,1.5c1.6-2.6,3.3-5,5-7.9c0,0-4.7,6-5.5,5.8c-0.4-0.3-0.6-0.8-0.7-1.4
					c0.2-1.2,0.8-2.3,1.8-3.1c1.9-2.7,2.1-2.6,3-5.1c0,0-4.4,6-5.3,5.8c-1,0.1-1.3-0.5-1.3-0.8c1.6-2.8,3.1-5.6,4.3-8.5
					c-1.2,1.3-3.1,6.2-5.1,6.8c-0.5-0.1-0.6-0.2-0.8-0.4c0.6-1.7,3.8-9.1,3.8-9.1c-1.1,1.7-2.8,4.8-3.9,6.5c-0.5-0.1-1.1-0.3-1-0.9
					c0.8-2.2,3-8.7,3-8.8c-0.7,1.7-2.8,6.3-3.6,7.8c-0.3-0.2-1.3-0.9-1.1-1.7c1.1-3.1,2.6-7.3,3.7-10.3c-0.8,1.6-1.9,4.4-2.5,5.6
					s-1.7,2.6-3.2,1.5c1.5-3.4,2.8-6.5,4.3-9.8c-1.3,2.5-2.7,4.9-4.2,7.2c-1.3-0.5-1.3-1.4-0.5-3.4l0,0c1-1.8,3.2-6.9,3.2-6.9
					c-1.1,2.1-2.3,4.1-3.6,6c-0.5-0.2-0.7-0.7-0.6-1.3c0.2-0.8,0.6-1.6,1-2.4c0.8-1.7,2.2-4.5,2.1-4.6l-3.6,5
					c-1.4-0.1-1.7-1-1.2-1.9c0.8-1.3,1.6-2.5,2.5-3.7l-12.2,2.8c-0.5,0.1-0.5-0.3-0.6-0.5c1.7-0.9,5.7-2.4,5.7-2.5
					c-3.8,1.1-8.1,2.5-11.9,3.6c-0.4,0-0.5-0.6-0.6-0.8c0.7-0.4,2.4-0.9,3.7-1.6c-3.6,0.8-9.2,3.1-11.1,2.7
					c-0.4-0.3-0.7-0.7-0.8-1.2c1.3-0.7,2.7-1.5,3.9-2.3c-3,1.2-7.9,4.1-9.1,3.7c-0.4-0.3-0.6-0.8-0.7-1.3c1.1-1,2.5-1.5,3.9-2.7
					c-3.1,1.6-12.2,6.3-11.8,2.1c6-2.6,21.3-7.8,21.3-7.8s-14,4.3-18.9,5.6c-4.5,1.2-3.5,1.2-8.2,2.1c-1.1,0.2-1.8-0.4-2.2-1.7
					c6.8-3.5,14-6.4,21.3-8.7C22.2,8.1,7,15.4,5.7,15.4c-1.9,0-4-2.4-4.3-4.2C1,9.1,2.3,7,4.4,6.4C8.1,5.1,11.9,4,15.8,3.3
					c6.5-1,13.1-1.5,19.8-1.7c7.9-0.4,15.9-0.4,23.8,0C67.6,2.1,74,5.8,76.8,14.3c2.5,7.4,5.6,14.6,9.2,21.5
					c4.6,8.6,9.6,16.4,19.3,20c4.2,1.6,7.8,1.9,11.6-0.8c2.3-1.5,4.6-2.8,7.1-4c3.9-1.9,7.9-3.5,11.8-5.6c5.3-2.8,10.9-4.9,16.6-6.4
					c6.2-1.6,12.4-2.1,15.8,3.9c5.8,10.2,22.2,28.6,22.7,29.3C190.6,73.9,189.8,73.5,189.6,73.6L189.6,73.6z"/>
				<polyline class="st0" points="159.3,83.4 152.1,82.2 152.9,80.7 				"/>
				<path class="st0" d="M83.5,34.6c-3.5-5.6-5.8-11.8-8.1-18c-3-8-8.9-12.2-17.5-12.4c-0.5,0-1.1,0.1-1.6,0.1
					c0.1,0.3,1.6,0.6,2.3,0.6c6.4,0.4,11.6,3,14.7,9c1,1.9,1.6,3.9,2.5,5.9c2,4.4,3.9,8.8,6,13.2c9.4,14.8,11.2,20.2,11.4,20.1
					c-0.8-2.3-1.7-4.6-2.7-6.8C88.3,42.3,85.9,38.4,83.5,34.6z"/>
				<path class="st0" d="M39.3,4.1v0.7l9-0.5V3.5L39.3,4.1z"/>
				<circle class="st0" cx="143.8" cy="78.5" r="1"/>
			</g>
		</g>
	</g>
</g>
</svg>
