<svg xmlns="http://www.w3.org/2000/svg" viewBox="0 0 192.49 97.36"><defs><style>.cls-1{fill:blue;stroke:blue;stroke-miterlimit:10;}</style></defs><g id="Calque_2" data-name="Calque 2"><g id="Calque_1-2" data-name="Calque 1"><g id="Calque_2-2" data-name="Calque 2"><g id="Calque_1-2-2" data-name="Calque 1-2"><path class="cls-1" d="M169.48,42.79c-1.93-3.61-5-5.27-9.18-5.39A31.2,31.2,0,0,0,146.56,40c-10.08,4.48-20,9.48-29.85,14.39-2.85,1.42-5.57,2.83-8.76,1.6-6.89-2.66-13.29-6-16.82-13-.75-1.51-1.79-2.87-2.55-4.37-2.56-5-5.2-10-7.54-15.12-2-4.46-3.43-9.21-5.59-13.61C72.71,4.31,68.79.52,52.41.52A284.2,284.2,0,0,0,15.87,2.46a49.52,49.52,0,0,0-12,3.39C-.38,7.57-.6,12.28,3.15,15a28.31,28.31,0,0,0,2.59,1.57,3.19,3.19,0,0,0,.6,2.73c1.42,1.46,7.15-.78,7.15-.48-.06,3.61,3.92,2.15,5.6,1.64a24.4,24.4,0,0,0,2.62-1.14c.94,3.51,6-.07,6-.07,1,3.45,7.85-.67,8.07.16.67,2.48,6.47-.55,6.62-.39,1.45,1.58,3,.44,4.45.17,2.38-.45,5-1.12,7.46-1.69-.58,1.41-1.46,2.17-1.7,3.73a1.39,1.39,0,0,0,2,1.47c-.17,1.22-.33,2.63,1.24,3.36-1,1.88-.85,3.5.25,3.9.35.14.64.52.53.76-.86,2,.44,2.72,1.71,2.83-1,2.63-.07,3.59,1.39,4.19.43.18-.2.78.6,1.41.14.12.91.47,1.3.28-.61,2.07-.72,2.26-.34,2.74.36.3,1.36.38,1.25.76-.42,1.43.11,1.85,1.42,2.3.61.27.36,1,.36,1-.53,1,.35,2.41,1.4,2.78-.16.81-.69,1.33.09,2.1a2.49,2.49,0,0,0,1.7.38c.56.28.23.91.35,1.39.34,1.33,1.41.64,1.17,1.53-.47,1.67,1,2.3,2.25,2.39-.44,1.29-.33,1.68,0,2.07s1.58-.17,1.51-.15c.13,1.18.23,1.88,1.6,2q0,1.24.09,2.49a9.17,9.17,0,0,1-3.18,7.22C68.73,72.63,67,74,64.44,76.21c-1.32,1.21-3,3.31-4.49,4.31-2.21,1.46-4.47,2.81-6.83,4.26-1.37.81-.23,2.4-.06,2.66l5,6.33c.11,0,.74.1,1,.11a21.73,21.73,0,0,1,15.89-5c-.16,1.68-.38,3.13-.43,4.59-.08,2.79,2.15,4.32,4.34,2.68,2.5-1.88,4.56-4.35,7.22-7,3.62-.48,7.84-1,11.82-3.28,0,0,7.33-4.78,10-6.54,4.32-2.83,8.76-3.62,13.8-1.72,6.44,2.44,12.9,5,19.92,5.29,2.34.11,5.35-.45,7.56.31,3.91,1.35,6.74.5,10.38.81a1.23,1.23,0,0,0,.95-.33l.66-.84c-.79-.47-1.55-.88-2.39-1.39-2.64-1.62-5.13-3-7.2-5.26A4.71,4.71,0,0,0,146.3,75c-9.58,3.34-20.28-4.27-24.65-9.24-.82-.94-.87-2.11.32-2.59a123,123,0,0,1,12.91-4.73c2.89-.8,6-.65,9.16-.94.37,2.75.6,4,2.88,2.8-.16,3.21,1.29,3.29,2,3H149c-.22,1.54.68,2.65,2.61,2.45a2.53,2.53,0,0,0,.6,1.64s1.55.67,2.34-.22c0,.85-.13,1.75.4,2.26.32.31.92.49,2.16.24,0,.74.06,3,1.95,1.87,0,1.34.4,2.92,2.14,1.88.91,2,1.35,4.23,2.35,6.18a1,1,0,0,0,1.28.61l.05,0h0l2.83-1.52a36.88,36.88,0,0,0,2.49,3.58c1.47,2,2.75,2.06,3.9,0a31.75,31.75,0,0,0,1.75-4.84,43.71,43.71,0,0,0,3,3.92,1.88,1.88,0,0,0,2.62.36,1.84,1.84,0,0,0,.7-1.1,15,15,0,0,0,.5-2.56c1.67.54,2.4.82,3,.48,1.82-1,1.82-2.42,1.64-3.89a6.16,6.16,0,0,1-.17-1.28c.67.38,1.4.94,1.64,1a2.4,2.4,0,0,0,3.08-1.42,2.28,2.28,0,0,0,.15-.81C191.68,71.43,174.6,52.27,169.48,42.79Zm20.1,30.78c-.66.08-3.55-1.83-3.57-2a32.05,32.05,0,0,1,.44,4.49,2.09,2.09,0,0,1-1.18,1.6,2.37,2.37,0,0,1-1.82-.76A27.44,27.44,0,0,1,181.21,74c.13,2.88,1,7.33-.8,7.72a3.07,3.07,0,0,1-1.68-1.3c-4.81-6.61-6-14.67-8.83-22.11-.08.65,2.74,10.57,4.28,14.84a11.81,11.81,0,0,1-.17,7.72c-.67,2.23-3.45,1-3.47,1-2.38-2-3.69-17.5-3.89-17.47v13.4c-.88,1.61-2.87,1.27-3.1.06-.51-1.42-1.31-12.26-1.53-15,0,0-.44,10.7-2.23,10.14,0-5.23,1-9.61,1-14.84-.17.09-1.41,14-2.78,13-.12-2.12.18-9.93.18-9.93s-.29,8.5-2.81,7.75c0-1.82.44-8.71.44-8.71s-1.25,5.55-2,6.13-1.22.26-1.22.26L153.82,59s-1.79,5.37-2.2,5.56a1.54,1.54,0,0,1-1.76-.14,58.5,58.5,0,0,1,1.86-7.14c-.11,0-3.27,5.49-3.27,5.49-1.92-.7,1-7.22,1-7.22s-3,4.73-4.09,4.37c-.33-1.48-.57-2.59-.79-3.56l-15.18,2.19c9.78-8,19.39-16.54,33-18a40.73,40.73,0,0,0-5.29.44c-9.72,2.07-17.38,8-25,13.84-3.16,2.42-5.85,5.43-9.68,7-2.39,1-2.75,3.16-.81,4.85a66.8,66.8,0,0,0,10.24,7.53,17.85,17.85,0,0,0,14.48,1.66,6.23,6.23,0,0,1,3.09-.18,2.09,2.09,0,0,0,.05.56,8.56,8.56,0,0,0-1,.24c-.85.31-1.68.64-2.52,1,.42.86.82,1.74,1.25,2.59.33.66.71,1.3,1.15,2.11-7,.72-13.33-.66-19.6-2.78-4.28-1.45-8.65-3-13.1-3.54-3.82-.48-7.37-1-10.54-3.27a19.21,19.21,0,0,0-9.9-3.33,5.18,5.18,0,0,0-2.91,1c7.66-1.77,12.79,4.28,19.18,6.09-4,2.44-9.8,6.37-13.87,8.89h0c-7.54,4.11-16,2.92-24.55,2.47a20.54,20.54,0,0,0-5.07.37,18.91,18.91,0,0,0-6.43,2.53c-3,1.69-3.79,1.8-5.41-2a67.68,67.68,0,0,1,6.62-3.12c4.44-1.6,8.33-7.15,8.08-12.88-1.26,1.18-2.44,1.88-2.91,2.88-1.69,3.56-4.93,5-8,6.56,1.94-1.87,3.84-3.78,5.82-5.62a48.94,48.94,0,0,1,4.45-3.94c4.39-3.17,5.69-6.23,4.71-11.45h0a23.35,23.35,0,0,0,1.88-3.78,12.9,12.9,0,0,1-2.67,2.38c-.16.11-.54-.33-.26-.89a24.23,24.23,0,0,1,2.07-4.06A28.6,28.6,0,0,1,71.78,58c.61-1.35,2.68-5.45,2.94-6-.4.09-2.57,3.62-3,3.71a1.49,1.49,0,0,1-1.78-1.11,1.71,1.71,0,0,1,0-.45c0-.51,3.41-5.56,3.41-5.56l-4.56,4.5a1.71,1.71,0,0,1,0-2.06c1-2.06,2.18-4.06,3.29-6.09,0,0-1.7,2.52-2.62,3.66s-2.21,2.54-3.36,1.52c1.61-2.57,3.28-5,5-7.87,0,0-4.69,6-5.47,5.76a1.9,1.9,0,0,1-.67-1.37,5.62,5.62,0,0,1,1.75-3.13c1.92-2.69,2.1-2.64,3-5.06,0,0-4.44,6-5.26,5.85-1,.08-1.31-.5-1.29-.8a72.28,72.28,0,0,0,4.35-8.55c-1.18,1.26-3.14,6.17-5.06,6.76-.52-.12-.56-.16-.76-.4.64-1.72,3.77-9.09,3.77-9.09-1.13,1.74-2.81,4.76-3.94,6.5-.55-.1-1.06-.26-1-.88.8-2.16,3-8.74,3-8.75-.74,1.69-2.79,6.26-3.59,7.84-.31-.17-1.31-.86-1.07-1.69,1.09-3.06,2.61-7.27,3.7-10.34-.78,1.64-1.94,4.42-2.51,5.64S58.38,33.15,56.85,32c1.48-3.4,2.84-6.49,4.28-9.78a73.91,73.91,0,0,1-4.24,7.18c-1.32-.46-1.31-1.41-.5-3.38h0c1-1.84,3.15-6.92,3.15-6.92a61,61,0,0,1-3.64,6,1.13,1.13,0,0,1-.64-1.26,9.6,9.6,0,0,1,1-2.38c.77-1.67,2.22-4.52,2.11-4.58l-3.64,5c-1.4-.11-1.66-1-1.2-1.88A38.44,38.44,0,0,1,56,16.31L43.85,19.06c-.45.09-.54-.32-.59-.5C45,17.7,49,16.2,49,16.08c-3.75,1.12-8.1,2.49-11.86,3.62-.39,0-.53-.56-.61-.78.7-.39,2.39-.89,3.65-1.59-3.56.8-9.16,3.14-11.06,2.73a1.8,1.8,0,0,1-.81-1.21,44,44,0,0,0,3.92-2.33c-3,1.19-7.91,4.14-9.06,3.7a2.1,2.1,0,0,1-.66-1.3c1.15-1,2.53-1.48,3.93-2.67-3.11,1.58-12.22,6.27-11.75,2.14,6-2.62,21.26-7.8,21.26-7.8s-14,4.29-18.9,5.62c-4.54,1.24-3.54,1.22-8.22,2.09-1.09.21-1.84-.43-2.21-1.71a130.83,130.83,0,0,1,21.3-8.67C22.19,8.07,7,15.39,5.71,15.4c-1.87,0-4-2.35-4.31-4.21a4.1,4.1,0,0,1,3-4.78A68,68,0,0,1,15.79,3.32,167.42,167.42,0,0,1,35.54,1.61a229.83,229.83,0,0,1,23.77,0C67.57,2.11,74,5.8,76.83,14.3a143.93,143.93,0,0,0,9.24,21.52c4.56,8.64,9.56,16.41,19.32,20,4.2,1.56,7.84,1.88,11.64-.78a53.72,53.72,0,0,1,7.09-4c3.89-1.93,7.94-3.55,11.78-5.58a75.34,75.34,0,0,1,16.65-6.38c6.22-1.59,12.41-2.08,15.82,3.92,5.77,10.17,22.24,28.59,22.74,29.26-.52,1.61-1.3,1.21-1.49,1.26Z"/><polyline class="cls-1" points="159.33 83.38 152.08 82.24 152.9 80.74"/><path class="cls-1" d="M83.48,34.6c-3.54-5.64-5.76-11.84-8.08-18-3-8-8.92-12.19-17.52-12.38a14.2,14.2,0,0,0-1.59.13c.08.32,1.56.59,2.29.64,6.45.43,11.6,3,14.66,9,1,1.88,1.63,3.92,2.5,5.86,2,4.41,3.94,8.82,6,13.18,9.44,14.84,11.15,20.16,11.44,20.06a59.07,59.07,0,0,0-2.7-6.78C88.26,42.32,85.86,38.45,83.48,34.6Z"/><path class="cls-1" d="M39.28,4.11v.72l9-.54V3.54Z"/><circle class="cls-1" cx="143.77" cy="78.47" r="1.01"/></g></g></g></g></svg>