<?xml version="1.0" encoding="utf-8"?>
<!-- Generator: Adobe Illustrator 25.0.0, SVG Export Plug-In . SVG Version: 6.00 Build 0)  -->
<svg version="1.1" id="Calque_1" xmlns="http://www.w3.org/2000/svg" xmlns:xlink="http://www.w3.org/1999/xlink" x="0px" y="0px"
	 viewBox="0 0 241.2 153.9" style="enable-background:new 0 0 241.2 153.9;" xml:space="preserve">
<g id="Calque_2_1_">
	<g id="Calque_1-2">
		<path d="M1.6,113.4c0.5-0.1,1-0.4,1.4-0.8c0.4-0.4,0.8-0.9,1-1.4c0.6-1.1,0.9-2.4,1-3.7c0.2-2.6,0.1-5.3-0.4-7.9
			c-0.4-2.6-1.3-5.1-2.5-7.4c-0.3-0.6-0.6-1.2-1-1.8c-0.4-0.7-0.8-1.4-1-2.1c-0.1-0.5-0.1-1.1,0-1.6c0.1-0.5,0.3-0.9,0.6-1.3
			c0.3-0.3,0.5-0.6,0.8-0.9l0.2-0.2C2,84,2.4,83.7,2.9,83.6c0.9-0.2,1.9-0.1,2.8,0.2c0.7,0.3,1.4,0.6,2,1c1.2,0.7,2.4,1.5,3.5,2.3
			s2.2,1.6,3.3,2.3c1,0.7,2.1,1.3,3.2,1.8c0.1,0,0.3,0.1,0.5,0.1c0.1,0,0.2-0.1,0.3-0.1c0.2-0.3,0.3-0.6,0.2-0.9
			c-0.1-1.2-0.3-2.5-0.8-3.6c-0.2-0.7-0.4-1.3-0.6-2s-0.3-1.3-0.5-2c-0.3-1.2-0.8-2.5-1.4-3.6c-0.5-1.1-1.2-2.2-2-3.2
			c-0.9-1-1.9-1.9-2.9-2.8c-0.3-0.3-0.6-0.7-0.8-1.1c-0.3-0.5-0.4-1.1-0.4-1.7c0-0.3,0-0.5,0.1-0.8c0-0.2,0.1-0.4,0.2-0.6
			c0.1-0.4,0.3-0.9,0.6-1.2c0.5-0.8,1.2-1.5,2.1-1.9c0.8-0.3,1.7-0.5,2.5-0.5c1.5,0,3,0.3,4.5,0.8c1.4,0.5,2.7,1,4,1.6
			c2.6,1.2,5,2.7,7.2,4.5c0.6,0.5,1,0.8,1.5,1.2c0.4,0.3,0.9,0.6,1.5,0.8c0.2,0.1,0.3,0.1,0.5,0.1c0.1,0,0.1,0,0.2-0.1
			c0.3-0.3,0.5-0.6,0.5-1c0.4-1.1,0.5-2.2,0.3-3.3c-0.3-1.2-0.7-2.3-1.4-3.3c-0.7-1.1-1.5-2.2-2.3-3.3c-0.9-1.2-1.7-2.6-2.1-4.1
			c-0.3-0.9-0.2-2,0.1-2.9c0.7-1.7,2.2-3,4-3.5c0.8-0.2,1.7-0.2,2.6-0.1c1.5,0.3,3,0.8,4.3,1.6c1.3,0.7,2.4,1.5,3.6,2.4
			c2.2,1.7,4.3,3.6,6.3,5.3c0.5,0.4,0.9,0.7,1.4,1c0.2,0.1,0.4,0.2,0.6,0.2c0.2,0.1,0.5,0.1,0.7,0.1c0.9,0.2,1.7-0.2,2.3-0.8
			c0.4-0.9,0.5-1.9,0.2-2.8c-0.3-1.2-0.8-2.3-1.3-3.4c-0.7-1.1-1.5-2.2-2.3-3.2c-0.9-1.1-1.7-2.3-2.5-3.5c-0.4-0.7-0.7-1.4-1-2.1
			c-0.4-0.9-0.4-2-0.2-2.9c0.3-0.8,0.6-1.5,1-2.2c0.4-0.8,1.1-1.5,1.9-2c0.9-0.5,1.9-0.7,2.9-0.6c0.8,0.1,1.7,0.4,2.4,0.8
			c1.3,0.7,2.5,1.6,3.6,2.6c2.1,1.9,4,4,5.9,5.9c0.9,1,1.8,2,2.8,2.9c0.4,0.4,0.9,0.9,1.4,1.2c0.3,0.3,0.7,0.5,1.1,0.7
			c-0.1,0-0.1,0-0.2,0c-0.1,0-0.2,0.1-0.2,0.2c-0.1,0.1,0,0,0-0.2c0.1-0.6,0.1-1.1,0-1.7c-0.2-1.3-0.4-2.6-0.8-3.8
			c-0.6-2.6-1.4-5.2-2-8c-0.4-1.4-0.6-2.8-0.7-4.3c0-0.4,0-0.8,0-1.2c0-0.5,0.1-1.1,0.4-1.5c0.2-0.4,0.4-0.7,0.8-0.9
			c0.3-0.3,0.8-0.4,1.2-0.4c0.6,0,1.1,0.1,1.7,0.3c1.3,0.7,2.5,1.6,3.6,2.7c1.1,1,2,1.9,3,2.9l2.8,3c0.9,0.9,1.8,1.8,2.9,2.6
			c0.2,0.1,0.4,0.3,0.7,0.4c0.2,0.1,0.3,0,0,0.1c-0.1,0-0.2,0.1-0.2,0.2c0,0,0,0,0-0.1c0-0.2,0-0.5,0-0.7c-0.1-1.3-0.3-2.6-0.6-3.8
			c-0.6-2.6-1.3-5.3-1.8-8.1c-0.1-0.7-0.2-1.4-0.2-2.2c0-0.4,0-0.8,0-1.2c0.1-0.5,0.2-1,0.5-1.4c0.1-0.3,0.4-0.6,0.6-0.8
			c0.1-0.1,0.3-0.2,0.5-0.3c0.1-0.1,0.3-0.1,0.4-0.2c0.6-0.1,1.2-0.1,1.7,0.1c0.8,0.3,1.5,0.8,2.1,1.4c1,1,1.9,2.2,2.7,3.4
			c0.8,1.1,1.6,2.3,2.3,3.5s1.5,2.3,2.2,3.3c0.2,0.2,0.4,0.5,0.6,0.7c0.1,0.1,0.2,0.2,0.2,0.2c0.1,0.1,0.1,0.1,0,0
			c-0.2,0-0.3,0-0.5,0c-0.1,0-0.2,0.1-0.3,0.1l0,0c0.2-0.2,0.4-0.5,0.6-0.8c0.4-1.1,0.5-2.2,0.3-3.4c-0.2-1.3-0.4-2.6-0.7-3.9
			c-0.3-1.3-0.7-2.6-0.9-4.1c-0.1-0.8-0.2-1.7-0.1-2.5c0.1-0.6,0.4-1.2,0.8-1.7c0.5-0.5,1.1-0.8,1.8-0.9c1-0.2,2,0,2.9,0.5
			c0.8,0.5,1.5,1.1,2,1.9c0.8,1.2,1.5,2.6,2,3.9c1,2.5,2.3,4.8,4.1,5.5c0.4,0.2,0.8,0.3,1.2,0.3l0,0c0,0-0.1,0,0,0
			c0.1-0.1,0.2-0.2,0.3-0.3c0.5-1,0.7-2,0.8-3.1c0.2-2.5,0-5.2,0-8.1c0-0.8,0.1-1.6,0.2-2.3c0.1-0.5,0.3-1,0.5-1.5
			c0.2-0.4,0.5-0.7,0.8-0.9c0.4-0.3,1-0.5,1.5-0.5c0.7,0,1.4,0.3,1.9,0.8c0.4,0.3,0.7,0.6,1,0.9c0.5,0.6,1,1.1,1.4,1.7
			c0.8,1.1,1.7,2.2,2.5,3c0.4,0.4,0.8,0.7,1.2,1c0.4,0.2,0.6,0.2,0.6,0.2s0.4-0.2,0.6-0.6c0.3-0.5,0.5-1,0.7-1.6
			c0.5-1.2,0.8-2.5,1.4-3.9c0.2-0.4,0.3-0.8,0.5-1.1c0.3-0.5,0.6-0.9,1-1.2c0.3-0.2,0.6-0.4,1-0.5c0.2,0,0.4-0.1,0.6-0.1h0.4
			c0.6,0,1.1,0.2,1.6,0.5c0.7,0.5,1.3,1.2,1.8,1.9c0.4,0.6,0.7,1.3,1,1.9c0.5,1.2,1.1,2.2,1.9,3.3l0.1,0.1l0.1,0l-0.1,0
			c-0.1,0-0.1-0.1-0.2,0c0.2,0,0.3-0.1,0.4-0.2c0.5-0.3,0.9-0.7,1.3-1.2c0.9-0.9,1.6-2,2.3-3.1c0.3-0.5,0.6-1.1,0.9-1.7
			c0.1-0.3,0.2-0.5,0.3-0.8l0.2-1c0.1-0.4,0.2-0.7,0.4-1.1c0.1-0.2,0.2-0.4,0.3-0.6c0.1-0.1,0.2-0.3,0.3-0.4c0.3-0.3,0.6-0.4,1-0.4
			c0.3,0,0.6,0.2,0.8,0.4c0.1,0.1,0.2,0.2,0.2,0.4c0.1,0.2,0.2,0.4,0.2,0.6c0.1,0.4,0.2,0.7,0.3,1.1l0.4,2c0.1,0.6,0.3,1.2,0.5,1.8
			c0,0,0.1,0.1-0.1-0.1c-0.2-0.2-0.5-0.2-0.8,0c-0.1,0.1-0.2,0.2-0.2,0.2l0.2-0.4c0.1-0.3,0.3-0.7,0.5-1c0.4-0.7,1-1.4,1.8-1.8
			c0.4-0.2,0.9-0.3,1.4-0.3c0.4,0,0.8,0.1,1.2,0.2c0.3,0.1,0.5,0.1,0.8,0.2c0.1,0,0.1,0,0,0s0,0,0,0c0.2-0.5,0.3-1,0.3-1.5
			c0.1-0.6,0.1-1.2,0.1-2c0.1-1.5,0.3-2.9,0.8-4.3c0.5-1.5,1.2-2.8,2.2-4c1.1-1.2,2.4-2.2,3.9-2.8c1.4-0.6,2.9-0.9,4.5-0.9
			c1.5-0.1,2.9,0,4.4,0.2c2.8,0.4,5.5,1.1,8.2,2c2.6,0.8,5.2,1.7,7.9,2.5c5.2,1.8,10.4,3.6,15.5,5.4c2.6,0.9,5.2,1.8,7.8,2.7
			l3.9,1.3l0.8,0.3h0.4h0.5l2-0.1l8.2-0.3c2.8-0.1,5.5-0.2,8.3-0.2c1.4,0,2.8,0.1,4.3,0.2c0.8,0.1,1.5,0.2,2.3,0.4
			c0.5,0.1,0.9,0.2,1.3,0.4c0.4,0.2,0.9,0.5,1.3,0.8c0.8,0.5,1.4,1.2,2,1.9c0.5,0.8,0.9,1.6,1.2,2.5c0.5,1.5,0.7,3.1,0.7,4.7
			c0,1.5,0,2.9-0.1,4.4c-0.1,1.3-0.2,2.6-0.4,4c-0.3,2.8-0.9,5.5-1.7,8.1h-1.3c-1-2.7-1.5-5.5-1.6-8.3c-0.1-1.4,0-2.8,0.1-4.2
			c0.1-1.3,0.2-2.6,0.2-3.8c0-1.1-0.1-2.3-0.3-3.4c-0.2-0.9-0.7-1.7-1.4-2.3c-0.2-0.2-0.5-0.4-0.4-0.4c-0.2-0.1-0.4-0.2-0.6-0.3
			c-0.6-0.2-1.2-0.3-1.7-0.5c-1.2-0.3-2.6-0.5-3.9-0.6c-5.4-0.7-10.8-1-16.3-1H209c-0.2,0-0.4,0-0.7,0c-0.2,0-0.3-0.1-0.4-0.1
			l-0.3-0.1l-0.5-0.2l-3.9-1.4c-2.6-0.9-5.2-1.8-7.8-2.6c-5.2-1.7-10.4-3.3-15.7-4.9c-2.6-0.8-5.2-1.5-7.9-2.2
			c-2.6-0.8-5.2-1.4-7.8-1.8c-2.5-0.4-5-0.2-7.4,0.5c-1.1,0.4-2.1,1-2.9,1.9c-0.8,0.9-1.4,1.9-1.9,3c-0.5,1.2-0.8,2.4-0.9,3.7
			c-0.1,0.6-0.1,1.4-0.3,2.1c-0.1,0.8-0.4,1.6-0.8,2.4c-0.2,0.3-0.5,0.5-0.8,0.6c-0.3,0.2-0.7,0.2-1,0.2c-0.4-0.1-0.8-0.2-1.2-0.3
			c-0.4-0.2-0.9-0.3-1.4-0.1c-0.5,0.3-0.9,0.6-1.1,1.1c-0.2,0.3-0.3,0.5-0.5,0.8l-0.3,0.5c-0.1,0.2-0.2,0.3-0.4,0.4
			c-0.3,0.2-0.7,0.2-1-0.1c-0.2-0.1-0.3-0.3-0.4-0.5c-0.1-0.4-0.3-0.7-0.3-1.1l-0.2-1c-0.2-0.7-0.3-1.3-0.5-2
			c-0.1-0.3-0.2-0.6-0.3-0.9c0-0.1-0.1-0.2-0.2-0.4l0,0c0,0,0.1,0.1,0.4,0.2c0.2,0,0.4,0,0.5-0.1l0,0c-0.1,0.1-0.1,0.2-0.1,0.3
			c-0.1,0.3-0.1,0.6-0.2,0.9l-0.2,1c-0.1,0.4-0.2,0.8-0.3,1.1c-0.3,0.7-0.6,1.4-0.9,2c-0.7,1.3-1.5,2.5-2.5,3.5
			c-0.5,0.6-1.1,1.1-1.7,1.6c-0.4,0.3-0.9,0.5-1.4,0.6c-0.4,0.1-0.8,0-1.2-0.2c-0.1-0.1-0.2-0.1-0.3-0.2l-0.1-0.1
			c-0.1-0.1-0.2-0.1-0.2-0.2c-0.5-0.6-1-1.2-1.4-1.9l-1-1.8c-0.3-0.6-0.6-1.1-1-1.6c-0.3-0.4-0.6-0.7-1-1c-0.1-0.1-0.2-0.1-0.3-0.1
			h-0.1l0,0h0.1c-0.3,0.4-0.5,0.7-0.6,1.1c-0.4,1.1-0.7,2.5-1.2,3.9c-0.3,0.8-0.6,1.5-1,2.2c-0.2,0.4-0.5,0.8-0.9,1.1
			c-0.4,0.4-0.9,0.7-1.5,0.9c-0.6,0.2-1.2,0.2-1.8,0.1c-0.5-0.1-1-0.3-1.5-0.6c-0.7-0.4-1.4-1-1.9-1.6c-1-1-1.9-2.1-2.7-3.3
			c-0.4-0.5-0.8-1-1.2-1.5c-0.2-0.2-0.4-0.3-0.6-0.5c-0.1-0.1-0.3-0.1,0.1-0.1c0.2,0,0.4,0,0.5-0.1c0.1,0,0.1-0.1,0.2-0.2
			c-0.1,0.1-0.1,0.3-0.1,0.4c-0.1,0.6-0.1,1.2-0.1,1.7c-0.1,2.6,0.2,5.4-0.1,8.3c-0.1,0.8-0.2,1.5-0.3,2.3c-0.2,0.9-0.5,1.7-1,2.4
			c-0.3,0.5-0.7,0.9-1.1,1.2c-0.3,0.2-0.6,0.4-0.9,0.5c-0.3,0.1-0.6,0.2-0.9,0.2c-1,0-1.9-0.2-2.8-0.7c-1.5-0.7-2.8-1.9-3.7-3.3
			c-0.8-1.2-1.4-2.6-1.9-3.9c-0.4-1.2-1-2.4-1.6-3.5c-0.2-0.4-0.5-0.7-0.9-1c-0.3-0.2-0.7-0.2-1.1-0.2c-0.2,0-0.1,0,0,0s0,0,0,0.2
			c-0.1,0.5-0.1,1.1,0,1.6c0.2,1.2,0.5,2.6,0.8,3.9c0.3,1.4,0.5,2.8,0.7,4.3c0.2,1.6,0,3.2-0.6,4.7c-0.2,0.4-0.4,0.8-0.7,1.2
			c-0.2,0.2-0.3,0.3-0.5,0.5c-0.1,0,0,0-0.2,0.2c-0.2,0.1-0.3,0.2-0.5,0.2c-0.3,0.1-0.7,0.1-1,0c-0.3-0.1-0.7-0.3-0.9-0.5
			c-0.2-0.2-0.3-0.3-0.5-0.5c-0.3-0.3-0.5-0.6-0.7-0.9c-0.9-1.2-1.6-2.4-2.3-3.5c-1.3-2.3-2.8-4.5-4.6-6.4c-0.3-0.4-0.8-0.7-1.2-0.9
			c-0.1,0-0.2,0-0.3,0c0,0-0.1,0,0,0s0,0,0.1,0s0,0,0,0C84,28.4,84,28.9,84,29.4c0,0.6,0.1,1.3,0.2,1.9c0.4,2.6,1.2,5.3,1.8,8
			c0.4,1.4,0.6,2.8,0.7,4.3c0,0.4,0,0.9-0.1,1.3c0,0.3-0.2,0.6-0.3,0.8c-0.2,0.4-0.6,0.7-1,0.9c-0.2,0.1-0.4,0.1-0.7,0.2
			c-0.2,0-0.4,0-0.5,0c-0.3,0-0.5-0.1-0.8-0.2c-0.4-0.2-0.8-0.4-1.1-0.6C79.7,44.2,78,42,76,40.1c-1-1-1.9-1.9-2.9-2.7
			c-0.9-0.8-1.9-1.5-3-2.1c-0.1,0-0.2-0.1-0.3-0.1c0.1,0,0.2,0,0.2-0.1c0,0,0.1-0.1,0.1-0.1c-0.1,0.4-0.1,0.9-0.1,1.3
			c0.1,1.3,0.4,2.6,0.7,3.8c0.6,2.6,1.4,5.2,2.1,7.9c0.4,1.4,0.6,2.8,0.8,4.2c0.1,0.8,0.1,1.6,0,2.4c-0.1,0.6-0.3,1.2-0.7,1.7
			c-0.5,0.7-1.4,1-2.2,0.8c-0.5-0.1-1-0.3-1.5-0.5c-0.3-0.2-0.7-0.4-1-0.7c-0.6-0.5-1.1-0.9-1.7-1.5c-1-1-2-2-2.9-3
			c-1.9-2-3.7-4-5.7-5.7c-0.9-0.8-1.9-1.6-3-2.2c-0.5-0.2-0.9-0.4-1.5-0.5c-0.3-0.1-0.7,0-1,0.2c-0.8,0.7-1.3,1.6-1.5,2.6
			c-0.1,0.4,0,0.7,0.2,1.1c0.2,0.5,0.5,1,0.8,1.5c0.7,1.1,1.4,2.2,2.3,3.2c0.9,1.1,1.7,2.3,2.5,3.5c0.7,1.3,1.3,2.7,1.7,4.2
			c0.2,0.8,0.3,1.6,0.2,2.5c0,0.9-0.4,1.9-0.9,2.7c-0.6,0.8-1.4,1.4-2.3,1.8c-0.8,0.3-1.7,0.4-2.6,0.3c-0.4,0-0.9-0.1-1.3-0.2
			c-0.4-0.1-0.9-0.3-1.3-0.5c-0.7-0.4-1.3-0.9-1.9-1.4c-2.2-1.8-4.1-3.6-6.2-5.2c-1-0.8-2.1-1.5-3.2-2.2c-1-0.6-2.1-1-3.3-1.3
			c-0.9-0.2-1.9,0.1-2.6,0.7c-0.4,0.3-0.6,0.7-0.8,1.1c-0.1,0.4-0.1,0.8,0,1.2c0.4,1.1,0.9,2.2,1.7,3.1c0.8,1.1,1.6,2.2,2.4,3.5
			c0.8,1.3,1.4,2.7,1.8,4.2c0.2,0.8,0.2,1.7,0.1,2.5c-0.1,0.8-0.3,1.6-0.5,2.3c-0.3,1-0.9,1.8-1.7,2.4c-0.5,0.4-1.1,0.5-1.8,0.5
			c-0.5,0-1-0.1-1.5-0.3c-0.8-0.3-1.5-0.7-2.1-1.2c-0.6-0.4-1.2-1-1.7-1.3c-2.1-1.6-4.3-3-6.7-4.2c-1.2-0.6-2.4-1.1-3.6-1.5
			c-1.1-0.4-2.4-0.6-3.6-0.7c-0.5,0-1,0.1-1.5,0.3c-0.4,0.2-0.7,0.4-0.9,0.8c-0.1,0.2-0.2,0.4-0.3,0.6c0,0.1-0.1,0.2-0.1,0.4
			c0,0.1,0,0.2,0,0.2c0,0.1,0,0.2,0.1,0.3c0.1,0.2,0.3,0.3,0.4,0.5c1.1,0.9,2.1,1.9,3,3c0.9,1.1,1.7,2.4,2.3,3.7
			c0.6,1.3,1.1,2.7,1.5,4.1c0.2,0.7,0.4,1.4,0.5,2s0.4,1.2,0.6,1.9c0.5,1.4,0.8,2.9,0.8,4.4c0,0.5-0.1,0.9-0.2,1.4
			c-0.2,0.5-0.5,1-1,1.4c-0.4,0.4-1,0.6-1.5,0.7c-0.5,0.1-1.1,0-1.6-0.1c-1.4-0.5-2.7-1.2-3.9-2.1c-1.1-0.8-2.3-1.6-3.4-2.4
			S7.6,87.6,6.4,87c-0.5-0.3-1.1-0.6-1.7-0.8C4.4,86,4,85.9,3.6,86c0,0,0,0-0.1,0l-0.1,0.1l-0.2,0.2c-0.2,0.2-0.4,0.4-0.5,0.6
			c-0.2,0.2-0.3,0.6-0.2,0.9c0.2,0.6,0.4,1.1,0.7,1.6c0.3,0.6,0.7,1.2,1,1.9c1.3,2.6,2.1,5.3,2.5,8.2c0.4,2.8,0.5,5.6,0.1,8.5
			c-0.2,1.5-0.7,2.9-1.4,4.2c-0.7,1.5-2.1,2.5-3.7,2.8L1.6,113.4z"/>
		<path d="M13.4,108.4c-0.2,0.7-3.3,1.7-0.1,2.6c1.6,0.5,2.8,2.6,4.8,0.6c1.2-1.3,1.5-2.6,0.6-4c-3.2-4.6-6.4-9.1-9.6-13.6
			c1.2,2.4,2.4,4.8,3.4,7.2C13.4,103.5,14.3,105.8,13.4,108.4z"/>
		<path d="M234.3,33c-0.8-0.6-2.7,3.3-3.9,0.9c-2.6-4.2-2.3,1-4.2,1.6c-1.1-1-2-5.3-2.6-3.1c-1.9,7-1.4,5.2-3.6-0.2
			c-4.8,6.4-3.5-1.5-8.4,4.3c-1.1-6.7-3.5,0.5-5.6-0.4c-1.5-0.6-3.3,0.1-3.9,1.6c-0.2,0.5-0.3,1.1-0.2,1.6c-3.2-5.4-2.1-2.8-4.1,1.2
			c-4-5.7-6-3-7.1,2.2c-1.4-7.5-5-2.3-8.4,0.6c-3.8-8.5-3.4,1.8-6.5,0.1c-8.4-7.5-20.8,5-27.2-2c12.4-7.8,18.8-2.3,47.3-8.7
			c21.9-4.6,51.5-1.1,43.3-3.8c-43.9-2.9-48.1,5.3-68.3,4.3c-8.6-5.8-25.5,4.1-29.4-9c0.1,3.9-0.7,7.4,2.6,11.9
			c4.3,10.1-15.3,7.5-15.1-11.4c-9.1,11.7,12.5,22-4,32.9c-2.8,1.8-17.1,2.8-20,3.4c-2.6,0.6-3.1-44.8-4.5-1.5
			c-4.3,4.9-18,2.4-25.8-14c3.1,12.3,11.3,16.5,17.3,18.8c0,0.2,0.1,0.4,0.2,0.6c0.4,1,0.4,1.8-0.7,1.7c-5.2-0.7-4.8,2.8-4.7,6.1
			c5-0.6,7.8-4.4,11.9-7c9.3,0.4,18-3.9,27.4-4.1C120,67.3,112,70,105.1,84.4c-0.9,1.9-7.7,11.7-10.2,13.3c-3-3.6-5.5-7.5-8.3-11.3
			c1,5.2,5.3,9.2,5.2,14.8c-2,2.1-4.3,4.3-6.8,6.4c-2.2-2.2-4-4.7-6.4-6.7c0,2.2,1.3,3.6,2.3,5.2c0.6,1.2,1.1,2.4,1.4,3.7
			c-2.9,2.4-6,4.8-9.2,7.2c-3.3-3.8-6-8.1-9.1-12.2c1,5.3,5.4,9.3,5.2,15c-3.1,2.2-6.2,4.4-9.4,6.6c-6.5,1.1-8.4-0.7-14.5-7.4
			c-2.6-2.8-3.8-6.5-2.3-10c1.1-2.5,4.8-6.8,7.6-10.1c0,0,6.1-10,8-12.2c-1.6-1.1-2.8-2.6-3.5-4.4c-0.3,1-0.6,2.1-0.8,3.1
			c-0.2,1.6-0.9,3.2-2.5,3.3c-1.9,0.1-1.9-2-2.4-3.3C48,82,42.3,66.6,40.9,63c0.2,4.1,5.6,19.8,6.3,23.6c0.5,2.3,0.6,6.1,3.3,5.9
			c2.2-0.2-6.5,11.9-10.7,12.5c-3,0.4-7.1-2.5-8.4-5.4c-2.3-5-4.6-10-6.9-15c0.5,3.5,4,16,9.2,26.6c0.9,2.2,2.1,4.2,3.4,6.2
			c1.5,2.5,3.3,4.7,5.3,6.7l0,0c4,4.5,7.1,7.7,5.1,9.6l-2,1.7C39,135.2,28.4,119,26.8,117c-0.1,2.8,8.9,20.3,10.1,22.4
			c0.2,0.3,0.5,0.8,0.7,1.2c-9.4,5.8-11.6,7.1-11.6,7.1l5.6,0.1c0,0,45.5-25.7,64.4-45c0.5-0.2,0.9-0.6,1.3-1
			c0.2-0.2,0.4-0.5,0.4-0.8c3.7-3.9,6.4-7.3,7.7-10c6.8-14.4,16-22.4,21.7-26.1l4-2.6c11.4-1.5,12.6,6.9,18.6,13.6
			c7.7,3.2,40.9-3,18,10.8c-18.9,12.5-21.8,15.9-27.1,29c-5.3,13.1,4.5,22.7,4.3,36.6c6.1,1.4,4.9-0.3,5.4-1.4
			c4-6.4-25.7-34.4,20.3-60.6c18-9.7,20.7-4.2,32.7,1c6.4,2.8,7.4,0.8,9.6-0.8l11.6-8.7c0,0-11.5-9.1-13.8-10.9
			C194.6,58.7,259.7,53.8,234.3,33z M220.3,82L210,89.1c-4,2.7-27.1-18.2-37.6-16.9c-14.5,0.6-33-3-29.8-23.3c0.5-2.9,1.5-2.8,5-2.5
			C172.4,49.9,220.4,82,220.3,82L220.3,82z M207.2,63.2c-0.1-0.3-2.3-3.5-2.3-3.5s-0.3,4.6-0.3,5c-0.7,0.5-1.6,0.7-2.4,0.7
			c-0.5-2.6-1-6.6-1.5-7.5c0,0-1.6,3.8-1.6,3.8c-0.1,0.2-2.9,6-4.5-3.5c0-0.6-0.1-1.2-0.2-1.8c-0.5,0.2-1.1,2.3-1.4,2.7
			c-1.1,1.3-1.4,1.7-2.6,0.6s-1.5-2.9-1.9-4.4c-0.4,0.7-0.9,1.4-1.6,1.9c-1.4,1.1-3.4,0.9-4.5-0.6c0,0,0,0,0,0
			c-0.4-0.5-2.1-4.1-2.1-4.1c-0.9,0.9-2,4.1-3.3,1.3c-0.8-0.2-1.6-0.2-2.4,0c-5.8-2.4-10.5-4.3-12.5-5.2c-2.3-1-1.4-4.7,1-4.7
			c0.2,0,5.1-1,6.4-1c1.6-0.1,3.1,0.3,4.3,1.3c0.8,0.6,4.4,2.2,4.6,1.9c2.1-2.4,2.2,1.1,2.8,2.2c0,0,2.6-3,3.2-3.4
			c1.5-1,3.5-0.7,4.5,0.8c0.4,0.7,0.8,1.5,1,2.3c0.8-1.3,1.6-2.9,3-3.7s1.7-0.3,2.3,1.3c0.2,0.4,0.2,2.7,0.6,3
			c0.3-0.5,0.5-1.1,0.7-1.6c4.3-8.7,5.3-2.3,5.4-2.1c0,0,0.5,4.1,0.5,4.1c1.1-1,4-8.1,4.8-8.8c0.6-0.5,1.4-0.5,2,0.1
			c0.2,0.2,0.4,0.5,0.4,0.9c0,1.4-0.3,2.8-0.7,4.2c0,0,2.3-3.8,2.4-4.2c0.9-2.2,1.6-3.5,4.1-3.1c1.9,0.3,3.2,1,2.1,5
			c3-2,8.1-6,6.9,0.4c0.2-0.1,4.7-4.4,6.2-4.9c1.3-0.4,2.8,0.3,3.2,1.7c0.1,0.2,0.1,0.4,0.1,0.6c0.4,3.2-2.4,5.3-4.6,7.1
			s-4.5,3.6-6.9,5.3c-4.2,2.9-8.4,5.9-12.7,8.6C208.4,62.4,208.4,62.5,207.2,63.2z"/>
		<path d="M67,75.4c0,0.5-0.2,0.8-1,0.8c-5.2-0.7-4.8,2.8-4.7,6.1c6.1-0.8,9-6.2,14.9-8.6c-3-0.2-5.3,1-7.5,0c-0.7-1-1.4-2-2-3
			c-1.2-1.9-2.1-4-3.4-6.3C64.4,72.5,64.7,74.6,67,75.4z"/>
		<rect x="171.9" y="21.3" width="6.1" height="6.1"/>
		<rect x="177.3" y="20.5" width="6.1" height="6.1"/>
		<rect x="183.4" y="18.9" width="6.1" height="6.1"/>
		<rect x="189.1" y="17.2" width="6.1" height="6.1"/>
		<rect x="195.2" y="18" width="6.1" height="6.1"/>
		<rect x="170" y="18.6" width="6.1" height="6.1"/>
		<rect x="159.6" y="19.5" width="6.1" height="6.1"/>
		<rect x="156.6" y="17" width="6.1" height="6.1"/>
		<rect x="150.9" y="19.5" width="6.1" height="6.1"/>
		<rect x="153.2" y="15.6" width="6.1" height="6.1"/>
		<rect x="154.9" y="10.9" width="6.1" height="6.1"/>
		<rect x="156.3" y="7.2" width="6.1" height="6.1"/>
		<rect x="167.9" y="14.6" width="6.1" height="6.1"/>
		<rect x="162.2" y="8.8" width="6.1" height="6.1"/>
		<rect x="165.8" y="10.9" width="6.1" height="6.1"/>
		<rect x="170" y="8.8" width="6.1" height="6.1"/>
		<rect x="175.9" y="9.3" width="6.1" height="6.1"/>
		<rect x="179.9" y="11.3" width="6.1" height="6.1"/>
		<rect x="183.4" y="14.6" width="6.1" height="6.1"/>
		<rect x="150.4" y="68.7" width="6.1" height="6.1"/>
		<rect x="146.2" y="67.3" width="6.1" height="6.1"/>
		<rect x="143.4" y="64.8" width="6.1" height="6.1"/>
		<rect x="141.5" y="62" width="6.1" height="6.1"/>
		<rect x="139.3" y="58.9" width="6.1" height="6.1"/>
		<rect x="137.3" y="55.9" width="6.1" height="6.1"/>
		<rect x="139.3" y="43.8" width="6.1" height="6.1"/>
		<rect x="154.7" y="70.7" width="6.1" height="6.1"/>
		<rect x="142.9" y="42.8" width="6.1" height="6.1"/>
		<rect x="191.9" y="80.2" width="4.3" height="4.3"/>
		<rect x="194.9" y="82.3" width="5.2" height="5.2"/>
		<rect x="199.6" y="84.4" width="4.4" height="4.4"/>
		<rect x="186" y="82.7" width="6.1" height="6.1"/>
		<rect x="179.2" y="92.5" width="6.1" height="6.1"/>
		<rect x="167.9" y="96.8" width="6.1" height="6.1"/>
		<rect x="154.9" y="96.8" width="6.1" height="12.9"/>
		<rect x="186" y="106.6" width="6.1" height="6.1"/>
		<rect x="179.2" y="124.6" width="6.1" height="15.3"/>
		<rect x="215.4" y="18.9" width="6.1" height="6.1"/>
		<rect x="135.3" y="116.2" width="6.1" height="6.1"/>
		<rect x="128.9" y="106.6" width="6.1" height="6.1"/>
		<rect x="113.2" y="109.6" width="6.1" height="6.1"/>
		<rect x="113.2" y="115.3" width="6.1" height="6.1"/>
		<rect x="128.9" y="100.5" width="6.1" height="6.1"/>
		<rect x="95.8" y="101.7" width="6.1" height="6.1"/>
		<rect x="107.1" y="109.7" width="6.1" height="6.1"/>
		<rect x="73.9" y="123" width="6.1" height="6.1"/>
		<rect x="84.9" y="130.9" width="6.1" height="6.1"/>
		<rect x="171.5" y="112.2" width="6.1" height="6.1"/>
		<rect x="107.1" y="103.5" width="6.1" height="6.1"/>
		<rect x="119.3" y="120.9" width="6.1" height="6.1"/>
		<rect x="119.3" y="115.2" width="6.1" height="6.1"/>
		<rect x="113.2" y="82.3" width="6.1" height="6.1"/>
		<rect x="113.2" y="76.2" width="6.1" height="6.1"/>
		<rect x="119.3" y="76.2" width="6.1" height="6.1"/>
		<rect x="119.3" y="70.1" width="6.1" height="6.1"/>
		<rect x="61.3" y="135.7" width="6.1" height="6.1"/>
		<rect x="79.6" y="123" width="6.1" height="6.1"/>
		<rect x="93" y="136.9" width="6.1" height="6.1"/>
		<rect x="84.9" y="136.9" width="6.1" height="6.1"/>
		<rect x="101" y="147.9" width="6.1" height="6.1"/>
		<rect x="42.2" y="109.7" width="6.1" height="6.1"/>
		<rect x="68.8" y="85.3" width="6.1" height="6.1"/>
		<rect x="55.2" y="96.8" width="6.1" height="6.1"/>
		<rect x="80.8" y="73.3" width="6.1" height="6.1"/>
	</g>
</g>
</svg>
