<?xml version="1.0" encoding="utf-8"?>
<!-- Generator: Adobe Illustrator 25.0.0, SVG Export Plug-In . SVG Version: 6.00 Build 0)  -->
<svg version="1.1" id="Calque_1" xmlns="http://www.w3.org/2000/svg" xmlns:xlink="http://www.w3.org/1999/xlink" x="0px" y="0px"
	 viewBox="0 0 289.1 181.1" style="enable-background:new 0 0 289.1 181.1;" xml:space="preserve">
<g id="Calque_2_1_">
	<g id="Calque_1-2">
		<path d="M285.3,87.7c-2.7-6.4-5.6-12.7-8-19.2c-1.9-5-3.2-10.3-5.4-15.2c-0.5-1.2,0-2.2,0.2-3.3c0.5-3-0.7-4-3.6-3.5
			c-2.2,0.4-7.8,0.2-13.2,3.2c-6.4,3.5-11.8,4-18-0.1c-4.3-2.8-9.1-5-13.4-7.9c-2.2-1.5-1.6-3.3-2.2-6.6c-1.2-5.9,0.6-5.1-5.5-7.6
			c-1.5-0.5-3-1.3-4.3-2.3c-2.5-2.2-4.3-2-6.2,0.4c-1.8,2.2-3.7,4.3-5.8,6.2c-0.7,0.6-1.1,1.5-1,2.5c0.1,7.3,0.8,11.8-1.2,18
			c-0.6,1.7-0.9,1.2-1.6,0.3c-4.6-6.9-9.9-13.2-15-19.6c-3.8-4.6-7.1-9.7-9.7-15.1c-1-1.9-2.6-3.3-4.5-4.2c-5.6-3-9.2-6-15.7-9.4
			c-2.9-1.5-4.8-1.4-7.6-1.9c-4.7-0.8-10.5-1.3-15.1-2.2c-1.8-0.3-1.6-0.1-1.3,1.5c0.6,2.6,1.4,4.5,2,7c0.3,1.4,0.6,2.1-3.5,1
			c-6.3-1.6-11.1-0.4-16.5,2c-5.9,2.6-6.4,2.3-5.7,8.4c0.5,4.3-0.2,8.6,0.7,12.9c0.3,1.3,1,2.4,2.2,3.1
			c10.1,7.8,17.2,13.6,25.2,21.1c5.3,5.2,11.3,9.9,16,15.7c-17.4-5-63-24.7-80.5-31.5c-1.9-0.8-3.5-1.2-5.6-0.2
			c-5.5,2.6-11.2,4.8-16.7,7.4c-5.8,2.7-9.3,5-15.1,7.7c-2.1,1-1.8,2-0.7,3.2c5.9,6.3,11,14,15.9,20.4c2.8,3.4,5.8,6.6,9.1,9.5
			c8.3,7,9.9,7.9,18.1,10.7c10.3,3.5,22.5,6.4,32.6,10.6c-0.8,1.4-3.3,1.5-4.4,1.3c-10-1.4-20.8-2.6-30.9-3.6
			c-12.2-1.3-22.9-1.4-35.1-2.5c-3.1-0.3-6.7-1.1-9.5,1.5c-5.9,5.7-12.3,11-19,15.6c-2.1,1.5-4,3.2-5.7,5.2c4.2,2.8,9.1,3.2,13.4,5
			c2.5,1.1,5.1,2.1,7.6,3.1c4.5,1.8,7.2,2.5,11,2.5c12.3,0.2,24.7,0.7,37,0.4c7.4-0.2,14.9,0.3,22.3-0.3c4.9-0.4,9.2-0.5,14.7-1.2
			c0,0.3,5.7,3.4,5.2,3.5c-12,2.6-24.2,3.3-36.2,5.7c-1.1,0.2-2.3,0.2-3.4,0.5c-3.9,0.9-6.4,3.2-9.3,5.4c-4.9,3.8-10.7,6.2-16,9.4
			c-3.1,1.9-3.5,2.6-2.3,5.9c1.4,3.8,3,7.5,4.6,11.3c0.3,0.9,1.2,1.5,2.2,1.4c4.2,0,8.5,0,12.7,0.2c5.4,0.2,9.9-2.6,14.6-4.5
			c20.9-8.2,41.8-16.2,63-23.8c1.9-0.7,4-0.4,5.6,0.8c2.8,2,6.4,2.2,9.4,0.6c3.6-1.8,6.6-1,9.5,1.7c1.4,1.3,2.9,2.5,4.5,3.4
			c2.3,1.3,3.6,2.9,3.1,5.7c-0.2,1.3,0.5,1.9,1.9,1.7c3.2-0.5,6.2-1.2,9.6-0.4c3.1,0.7,4.2-2.5,6-4.2c1.3-1.4,2.5-2.9,3.6-4.4
			c0.8-1,2.2-1.3,3.4-0.8c6.3,2.1,12.6,4.3,18.8,6.4c0.9,0.3,1.6,0.7,2.7,0.1c5.9-3.5,12.6-4.8,18.7-7.7c6.8-3.2,14.1-5.1,20.6-9
			c4.8-2.9,10.2-3.4,15.6-4c1.9-0.2,3.8,0,4.2-2.6c0.1-0.5,0.4-0.9,0.8-1.2c3.5-3.6,7.5-6.7,9.4-11.6l0.5-36.4
			C286.8,91.1,286,89.4,285.3,87.7z M269.1,65.9c1.2,4.5,0.6,8.9,0.7,13.3c0,1.8-0.8,2.5-2.5,2.8c-2.8,0.6-10.6-0.2-10.6-0.2
			S266.1,67.8,269.1,65.9z M239.9,102.2c1.6-0.6,1.1,0.7,0.9,1.5c-0.8,3.5-1.8,7-2.4,10.6c-0.7,4.6-1.2,3.9-6.9,5
			c-1.3,0-3.6,1-4.6-1.4c-1.2-2.8,0.7-9.7,3.2-11.5C233.1,104.2,236.6,103.4,239.9,102.2z M230.8,101.3c1.7-5,3.6-9.8,5.7-15.5
			c2.5,3.4,4.3,7.2,5.5,11.3c0.4,1.3-0.4,1.8-1.2,2.3c-2.5,1.6-5.2,2.8-8.1,3.7C230.4,103.9,230.2,102.8,230.8,101.3L230.8,101.3z
			 M238.6,121.6c6.1,3.9,11.4,9.1,17.9,12.4c0.6,0.3,1.3,0.9,0.4,1.5s-2.1,1.6-3.7,0.9c-8.6-4-16.6-9.1-24-15.1
			C232.4,121.2,235.5,119.6,238.6,121.6z M243.7,122.3L243.7,122.3L243.7,122.3l-4-2.8l2.7-15.2l17,22.3l-1,6.3L243.7,122.3z
			 M245.7,98.9c2.1-4.3,4.6-8.3,7.5-12c2.2,9.3,2,18.4,2.4,27.5c-3.7-3.4-6.8-7.3-9.2-11.7C245.7,101.5,245.1,100.2,245.7,98.9
			L245.7,98.9z M258.9,117.1c-1-4.2-1.6-8.5-1.8-12.9c3.2,2.8,5.1,6.1,7.8,8.8c3.4,3.6,3.3,3.9-1.6,5.4
			C261.2,119.2,259.5,119.9,258.9,117.1L258.9,117.1z M256.8,97.3c0.1-4.2,0.1-7.6,0.1-11c-0.1-0.7,0.4-1.3,1.1-1.4
			c0.1,0,0.2,0,0.4,0c2.9,0.1,5.9-0.4,9.2,0.2C264.6,89.7,260.9,93.8,256.8,97.3L256.8,97.3z M267.5,57.3c-5.6-0.6-11-1.8-16.4-3.6
			C260.6,47.4,264.9,50.5,267.5,57.3L267.5,57.3z M267.5,59.7l-25.7,17.7L229.2,53C229.2,53,259,57.6,267.5,59.7L267.5,59.7z
			 M220.4,54c2.5,7,9.2,21.3,9.5,22.8c-6.4-1.6-12.2-4.8-18.2-7.3c-1.2-0.5-1-1.6-0.6-2.5c2.4-4.6,4.6-9.3,7.5-13.5
			C219.6,52.1,219.9,52.8,220.4,54z M206.7,103.5c-3.8-0.9-5.3-3.9-3.9-6.8c1.1-2.3,3.2-3.8,5.1-5.4c0.6-0.5,1.5-0.5,2,0.1
			c0,0,0,0,0,0c4.3,4.3,8.6,8.6,12.9,12.9c-0.2,0.3-0.4,0.7-0.6,1C217.1,104.6,211.8,104.7,206.7,103.5L206.7,103.5z M213.2,107.5
			c-0.1,2.5-0.1,12.2-0.2,14.6c-0.1,4.6-0.5,4.9-4.8,4.2c-0.8-0.2-1.7-0.4-2.5-0.5c-2.7,0-3.3-1.8-3-3.8c0.6-3.3,0.4-6.7,0.7-10
			c0.6-6.5,0.6-6.5,7-6C211.5,106.2,213.3,105.8,213.2,107.5L213.2,107.5z M206.3,57.8c0.9-1.6,8.4-5.5,10.4-5.1
			c-1.5,2.4-6,10-7.8,13.2C207.7,63.4,205.1,60,206.3,57.8L206.3,57.8z M225.1,108c2.6,0.7,0.8,4.3,0.6,6.1c-0.3,1.3-1.1,1.9-2,0.5
			c-1.9-2.7-4.4-4.8-6.7-7.6C220.1,106.4,222.5,107.4,225.1,108L225.1,108z M203.2,31c5.4-6.5,8.3-4,14.3-0.1
			c-2.9,1-5.9,1.7-8.9,2.3c-0.7,0.1-6.6,0.9-7.7,1.2C201,34.3,202.8,31.5,203.2,31z M200.6,37.5c3.4,13.2,1.5,13.4-1.8,15.5
			C200.1,50.4,200.3,40.1,200.6,37.5L200.6,37.5z M144.7,5.3c1.7,0.4,3,0.4,3.4,2.4c0.6,3.6,2,7.1,4,10.2c-8-3.2-14.3-8.9-20.8-14.4
			C135.8,3.6,140.3,4.2,144.7,5.3z M138.2,11.7c6.8,5.1,14.5,8.7,20.6,15c7.2,7.4,15.2,14.2,23.2,21c6.1,5.3,12.5,10.4,18.3,16.2
			c2.8,2.8,6.2,5.5,6.6,10.1c0.3,3.9,0.9,7.7,1.5,12.1c-0.9-0.5-1.7-1-2.6-1.6c-6.2-5.6-12.5-11-18.6-16.7
			c-9.6-9.1-19.1-17.6-27.8-25.8c-5.1-4.8-10.7-10.2-16.1-14.6c-2.9-2.1-5.5-4.6-7.8-7.4c-3.2-4-3.8-9.4-5.4-14.3
			C132.9,7.7,135.5,9.7,138.2,11.7z M129.2,33.1l1.6-16.5c0,0,4.1,8.8,9.9,12.7c6.8,4.7,24.3,22.6,28.6,26.1
			c5,4.1,35.3,31.4,35.3,31.4l-4.5,3.7l-9.9-4.3l-61.1-51.9L129.2,33.1z M198,100.6c-3.5-1.3-6.9-2.7-10.4-4c-0.8-0.3-1.6-0.8-1-1.6
			c0.7-1.1,0.3-2.9,1.7-3.2c3.8,0.3,6.3,2.4,9.1,3.5c1.7,0.7,2.2,2.1,2.6,3.6C200.4,100.6,199.6,101.2,198,100.6z M104.9,29.2
			c-0.4-2-0.5-4-0.4-6c0-1.4-0.5-3.3,0.2-4.2c1.1-1.5,12.6,3.4,16.6,5.7c2.4,1.3,2.6,4,2.3,6.1c-0.2,1.7-2.5,1.1-4,1.3
			c-3.3,0.3-6.7,0.6-10,0.9C105.9,33.4,105.4,32.9,104.9,29.2L104.9,29.2z M113.6,37.9l14.4-2l59,50l-2.7,2.6l-30.8-13.9L113.6,37.9
			z M133.6,72.4c9.3,3.9,15.2,6.3,24.3,9.2c2.3,0.8,12.8,3.5,15,4.6s-1.2,5.4-1.3,5.6c-11-4.4-43.9-12.9-45.7-13.4
			C121,77.1,110,65.9,108,61.8C116.1,64.8,127.8,70,133.6,72.4L133.6,72.4z M167.8,127.7c-4.7,2.1-4.7,2.2-8.2-1.7
			c-2.7-3.1-5.6-6-7.5-9.6c0.6-0.6,1-0.3,1.5-0.3c7.3,1.2,14.6,2.4,22,2.9c1.8,0.1,3.7-0.2,5.4,0.5c0.9,0.3,2.1,0.6,2.2,1.6
			s-1.2,1.1-1.9,1.5C176.9,124.7,172.1,125.7,167.8,127.7L167.8,127.7z M168,149c-4.3-2-7.1-4.5-7.6-6.3
			C163.5,144,166.1,146.2,168,149z M162,134.1c1.1,1.3,1,2.1,0.1,3.2c-2,1.9-3.8,5.2-6.5,2.1c-12-12.4-25.8-22.8-37.4-35.6
			c-0.5-0.5-1.2-1-1-2.2c0.5-0.9,7.8-14.9,9.5-13.2c1.4,1.6,13,16.6,16.5,21.3C149.7,118.7,155.5,125.8,162,134.1L162,134.1z
			 M152.3,140.8l3.4,5.3l-13.9-5.3l-14.2-4.2l-3.2-11.2l14.9,6.9L152.3,140.8z M106.3,99.9c8.3,1.7,14,8.6,19.9,14
			c7.7,7.3,15.3,14.5,22.9,21.9C133.7,125.3,119.7,113.1,106.3,99.9L106.3,99.9z M116,99.5c-0.9,1.9-3.1,0.4-4.7-0.1
			c-6.2-2-8.5-5.2-12.5-11.2c0,0,0-0.1,0-0.2c-1-1.7-1.9-3.5-2.9-5.3l0.1,0.1l1.8-13.7l14.3,4c7.9,5.4,6.1,9.4,7.9,17.6
			C120.6,94.5,117.4,96.7,116,99.5L116,99.5z M74.2,50.2c7.7-0.2,17,5.1,25.8,8.4c3.6,3.4,6.7,7.2,9.3,11.4l-15.6-5.6v14.8
			c-2.7-2-14.2-13.5-17.1-16.5C74.4,60.3,72.4,50.3,74.2,50.2z M31.7,57.2c8.3-4,16.3-8.6,24.8-12c5.8-2.3,5.8-2.2,9.4,3
			c1.8,2.1,3.3,4.5,2.7,7.3c-0.5,3.1-1.4,6.2-1.7,9.3c-0.3,2.8-1.5,2.5-3.4,1.8c-4.9-1.9-10-3.4-15.1-4.5C42.6,61,36.7,60,30.4,58.2
			C30.8,57.8,31.2,57.5,31.7,57.2z M93.5,104.5c-6.5-2-13-4.1-19.5-6c-0.2,0-10.9-5-11-5s-7.6-4.9-10.5-8.1
			c-2.7-2.9-5.9-5.2-7.9-8.7C43.5,75.4,35,62.1,35,62.1c13.3,2.4,26.4,5.7,39.2,9.7c0.8,0.2,1.7,0.4,2.5,0.7
			c2.8,0.8,5.6,1.6,7.9,3.3l0.1-0.1c0,0,0,0.1,0,0.1c1.4,1.2,2.8,2.4,4.1,3.8c1.2,0.9,2.4,2,3.4,3.1l0,0c0,0,17.9,24,22.1,27.8
			C112,110.7,93.9,104.6,93.5,104.5z M26.5,135.8c-0.7,0.2-1.5,0.2-2.3-0.1l-21.8-8.2c8-6.5,15.7-12.7,23.3-18.9
			c1.5-1.2,2.3-0.9,3.7,0.1c7.9,5.7,15.3,12.1,23.8,17c0.8,0.5,2.2,0.7,2.2,1.7c0,1.2-1.4,1.3-2.4,1.7
			C44.2,131.6,35.3,133.5,26.5,135.8L26.5,135.8z M103.5,136.4c-22.4,1-44.9,1.1-67.3,0.1l-0.1-1c4.9-1.3,9.7-2.6,14.6-3.8
			c2.9-0.7,5.7-2,8.9-1.7c7.5,0.7,15,1.2,22.4,1.5c7.2,0.3,14.4,0.4,21.5,1C105.4,132.7,104.5,136.4,103.5,136.4L103.5,136.4z
			 M94.5,129.8c-2.7,0.2-5.3,0.2-8,0c-2.2,0-12.3-1.1-15.1-1.5c0,0,0,0-0.1,0c-0.9-0.1-7.8-1.6-8.5-1.8c-3.6-1.2-7-2.7-10.2-4.7
			c-3.4-2.1-6.7-4.4-9.1-7.6c-1-1.4-0.7-5.2,3.7-5c8.1,0.4,14.5,0.3,22.2,1c1.6,0.1,37,4.6,40.6,5c3.4,0.3,6.8,0.9,10.1,2
			c1,0.3,12.3,7.3,14.5,11.2c-2.2-1.3-3.9-1.7-6.3-3.1c-3.6-2-6.5-4.4-10.8-2.4C115.9,123.6,98.3,129.5,94.5,129.8L94.5,129.8z
			 M106.6,136.2c0.1-0.7,0.1-1.4,0-2.1c0.5-6.9,0.7-6,7.4-8.2c1.9-0.6,3.8-1.2,5.7-1.9c1.4-0.6,2.1-0.2,2.6,1.1c1.2,3,2.2,6.1,3,9.2
			c0.4,1.8-0.1,2.7-2.1,2.6C119.8,136.7,108.2,136.1,106.6,136.2L106.6,136.2z M66,178.9c-1.8,0.6-15.6,1.9-16.3,0.4
			c-1.7-3.7-3.3-7.5-4.9-11.3c-0.7-1.4-0.1-3,1.2-3.8c6.2-3.8,12.4-7.5,18.6-11.3c1-0.6,1.4-0.3,1.5,0.8c0.2,2.2,1.6,21.9,1.7,22.8
			C67.8,177.6,67.1,178.6,66,178.9z M130.4,153.6c-1.5,0.9-35.4,14.4-44,17.3c-2.1,0.7-4.2,1.2-6.3,1.8c-1.5,0.6-3,0.9-4.6,1.1
			c-2,0-4.1-2.7-4.8-4.5c-0.2-0.6-1.6-5.1-1.8-6c-0.8-3.5-0.1-13,1.6-13.4c9.1-2.4,36.4-5.7,39.9-6.1c6.7-0.8,19.6,4.3,20.9,6.4
			C132,151.4,131.6,152.9,130.4,153.6L130.4,153.6z M154.6,152.6c-2.4,1.1-5.2,1-7.5-0.3c-6.6-3.4-12.4-4.8-19.4-6.9
			c-4.9-1.4-16.6-4.8-17-7.4c-0.2-0.9,4.1-0.4,5.2-0.2c4.2,0.5,7.4,0.5,11.5,1c12.3,1.5,22.7,7.6,34.6,11.5
			C159.5,151.1,157,151.7,154.6,152.6L154.6,152.6z M171,157.6c-2.2-1.5-4.1-2.8-6-4.2c-0.6-0.4-1.5-1.2-0.1-1.5
			c2.1-0.5,3.8,1.1,5.4,2C171.6,154.7,171.8,156,171,157.6L171,157.6z M180.6,163.4c-2.1,0-4.3,1.1-6.4,0.3
			c-0.3-2.2-0.4-4.4-0.3-6.6c-0.8-2.8,1.3-3.4,3.3-3.9c2.3-0.5,2.7,1.3,3.1,2.9s0.7,3.1,1.1,4.7
			C181.5,161.8,182.3,163.4,180.6,163.4L180.6,163.4z M179.8,147.3c-0.7,0.5-1.5,1.4-2.7,0.2c-3.1-3.1-5.9-6.6-8.4-10.2
			c-1.2-1.9-0.5-2.7,1.5-2c5.7,1.4,11.1,3.7,16.9,5.6C184.8,143.1,182.4,145.2,179.8,147.3L179.8,147.3z M186.1,137.9
			c-2.1-0.7-4.1-1.4-6.2-2c-0.9-0.3-1.6-0.6-1.3-1.6c0.3-2.9,1.4-5.7,3.2-8c0.8-1.1,1.6-1.5,2.5,0.2c1.6,3.2,2.8,6.7,3.5,10.2
			C188.1,138.2,187.4,138.3,186.1,137.9L186.1,137.9z M189.9,106.9c-0.8,1.1-1.8,2-2.9,2.7c-2.2,1.5-4.6,3-7.1,3.5
			c-4.1,0.5-8.3,0.7-12.5,0.6c-4.1-0.1-8.1-0.4-12.1-1c-3.2-0.5-6.6-1.3-9-3.6c-0.4-0.4-2.2-2.5-2.9-3.4c-4.6-6-9.4-11.9-14.1-17.8
			c-0.3-0.3-0.5-0.6-0.7-0.9c-1.7-1.9-3.2-4-4.4-6.1c0.6,0.2,8.9,2.2,9.4,2.4c4.7,1.4,14.3,4.4,14.3,4.4c1.6,0.3,43.3,14,48.4,15.4
			C194,104.2,192,105.5,189.9,106.9L189.9,106.9z M201.9,150.2c-6.4,1.9-6.4,1.9-8.3-4.4c-1.9-6-1.5-6.6,4.7-8.1
			c1.6-0.4,2.4,0.8,3.7,1c6.1,1.1,11.8,3.9,17.6,6.7C213.7,147,207.8,148.5,201.9,150.2L201.9,150.2z M223.7,158.4
			c-0.5,0.2-1.1,0.8-1.6,0.3s-0.1-1.3,0.2-1.8c1.5-2.6,3.4-5,4.7-7.9c0.6-1.3,1.5-0.4,2.1-0.1c2.8,1.6,5.8,2.9,8.9,3.7
			C233.2,155.4,228.3,156.4,223.7,158.4L223.7,158.4z M239.5,145.3c-1,2-3.2,0.5-4.8-0.1c-7.3-2.9-14.2-6.6-21.7-9.1
			c-2.7-1-5.3-2.1-7.9-3.5c-1.3-0.6-2.5-2.1-2.2-3.4c0.2-1.1,9.1-0.7,11,0.4c7.2,4.5,14.4,9,22.3,12.3
			C237.8,142.5,240.4,143.4,239.5,145.3L239.5,145.3z M216.6,126.6v-16.9l6.2,9.8l20.7,17.3l-3.9,2.5L216.6,126.6z M241.6,150.3
			c-0.7,0.3-1.4,0-1.7-0.7c-0.1-0.4,0.3-1,0.6-1.5s0.9-1.1,1.6-0.6s1.8,1,2.8,1.7C244,150.2,242.7,149.9,241.6,150.3L241.6,150.3z
			 M252.7,144c-1.9,1.2-4.1,1.9-6.3,2.3c-1.9,0.4-2.3-1-2.9-2.2c-0.3-0.6-1.1-1.1-0.1-1.9c2.3-1.7,5-2.8,7.8-3.1
			c1.9-0.2,2.4,1.5,3,2.6C254.9,143,253.5,143.5,252.7,144z M258.5,142c-2.5,0.6-3.4-2.6-1.5-4c3.1-2.8,5.7-2.8,11,0.3
			C265.2,140.2,261.9,141.4,258.5,142z M261.3,123.3c-0.6-0.7-0.3-1.5,0.5-1.9c1.8-1,3.8-1.8,5.9-2.3c0.8-0.1,1.9-0.3,2,1
			c0.3,4.2-0.3,8.5,0.2,12.8C266.2,130.3,264.1,126.5,261.3,123.3L261.3,123.3z M272.3,112.4l-2.4,2l0.4-28.3l1.6-5.4l9,24.4
			l-7.2,6.1C273.3,111.7,272.9,112.1,272.3,112.4L272.3,112.4z M279.6,123.6c-0.8-3.6-0.6-7.4,0.6-10.9
			C283.8,118.5,283.8,119.5,279.6,123.6L279.6,123.6z M281,132.4c-1,1.8-2.5,3-4.6,4.8c0.5-2.5,2.4-8.6,5-6.6
			C282.5,131.5,281.3,131.9,281,132.4L281,132.4z M286.4,123.6c-0.4,0.9-0.9,2.3-1.6,3.6c-0.5,0.9-0.7,2.3-2.4,1.1
			c-1.4-1-1.8-1.7-0.8-3.2c0.6-1.1,1.3-2.1,2-3.1c0.5-0.5,0.6-2,1.8-1.2C286.1,121.3,286.6,122,286.4,123.6L286.4,123.6z"/>
	</g>
</g>
</svg>
