<svg xmlns="http://www.w3.org/2000/svg" viewBox="0 0 1052.34 62.38"><defs><style>.cls-1,.cls-2{font-size:12px;font-family:ArialMT, Arial;}.cls-2{isolation:isolate;}.cls-3{fill:none;stroke:#000;stroke-miterlimit:10;stroke-width:1.85px;}</style></defs><g id="Calque_2" data-name="Calque 2"><g id="Calque_1-2" data-name="Calque 1"><text class="cls-1" transform="translate(0.8 10.3)"> </text><text class="cls-2" transform="translate(0.8 10.3)"> </text><path class="cls-3" d="M527.7,33.5c24.3.2,38.4,3,74.1,7.8,41,5.6,100.3,12.4,175.1,17.1,50.8,2.4,104.4,3.5,160.6,2.9q56.4-.75,109.1-3.5l-33.9-9.4,33.9-13.2Q994,38.05,937.5,38.7c-56.1.6-109.7-.5-160.5-2.9-74.9-4.6-134.2-11.5-175.1-17.1-35.7-4.8-50-7.6-74.1-7.8H525c-24.2.2-38.4,3-74.1,7.8-41.1,5.6-100.4,12.5-175.2,17.1-50.8,2.4-104.4,3.5-160.6,2.9Q58.7,38,6,35.2L39.8,48.4l-34,9.2q52.65,2.85,109.1,3.5c56.2.7,109.8-.5,160.6-2.9,74.8-4.6,134.2-11.4,175.1-17,35.7-4.8,50-7.6,74.1-7.8h3Z"/><path d="M50.19,51.5l.18-5.17c0-1.08-.34-1.33-1-1.49V44.5l3.23.11c3.16.11,5.18,1.62,5.09,4.35s-2.19,4.51-5.1,4.41L49,53.25l0-.33C49.76,52.8,50.16,52.58,50.19,51.5Zm2.9,1.23a3.4,3.4,0,0,0,3.28-3.53c.08-2.3-1.42-3.84-4.12-3.93l-.62,0-.21,6.26C51.39,52.39,52,52.69,53.09,52.73Z"/><path d="M58.35,49.18a4.47,4.47,0,1,1,4.33,4.7A4.51,4.51,0,0,1,58.35,49.18Zm4.66,4c1.58,0,2.9-1.47,3-3.38.09-2.93-1.87-4.34-3.34-4.38s-2.9,1.47-3,3.36C59.6,51.23,61.31,53.16,63,53.21Z"/><path d="M68.73,52l.69-5.18c.11-.77-.26-1.12-1-1.33v-.33l2.41.07,2.53,6.07,2.72-5.93v0l2.31.06v.34a1.16,1.16,0,0,0-1.07,1.42l.5,5.21A1.38,1.38,0,0,0,79,53.83v.34l-3.59-.1v-.34c.56-.11,1.31-.31,1.24-1.39l-.39-5.51-3,6.52h-.3l-2.75-6.59-.71,5.4c-.12,1,.55,1.36,1.26,1.46V54l-3.12-.09v-.34C68.33,53.29,68.59,53,68.73,52Z"/><path d="M79.57,49.79a4.48,4.48,0,1,1,4.37,4.67A4.5,4.5,0,0,1,79.57,49.79Zm4.7,4c1.57,0,2.88-1.5,2.92-3.41.07-2.92-1.9-4.32-3.37-4.35s-2.89,1.49-2.93,3.38C80.83,51.83,82.57,53.75,84.27,53.79Z"/><path d="M92.49,52.7l.12-6.33-1.13,0c-1.26,0-1.75,1-2.06,2l-.35,0,.2-3h.36c.09.3.34.36,1.29.38l4.55.09c1,0,1.2,0,1.31-.33h.36l.08,3-.35,0c-.27-1-.72-2-2-2.06l-1,0-.12,6.32a1.25,1.25,0,0,0,1.16,1.45v.33l-3.63-.07v-.38C92,53.92,92.46,53.77,92.49,52.7Z"/><path d="M97.79,46.12v-.31l6.31.1.29,2.25-.33.08a2.39,2.39,0,0,0-2.31-1.71l-1.65,0,0,3.27h1.09c1.07,0,1.36-.49,1.47-1.19H103l0,3.1h-.33c-.1-.75-.36-1.23-1.43-1.24l-1.09,0,0,2.4c0,.57.32,1.1,1.66,1.13s2.22-.41,2.58-1.51l.33,0-.32,2.16-6.6-.11v-.31c.72-.12,1.11-.36,1.13-1.43l.08-5.22C98.89,46.51,98.5,46.27,97.79,46.12Z"/><path d="M105.23,50.31a4.51,4.51,0,0,1,4.51-4.5,7.06,7.06,0,0,1,2.88.67l.24,2.15-.29.09c-.85-1.47-1.83-2.21-3.14-2.22-1.54,0-2.8,1.66-2.82,3.54a4,4,0,0,0,3.68,4.2c1.15,0,1.94-.86,2.59-2.2l.28.05-.29,2.1a7.63,7.63,0,0,1-3,.72A4.58,4.58,0,0,1,105.23,50.31Z"/><path d="M117.08,54.21a.86.86,0,0,1,.86-.88.75.75,0,0,1,.75.76.9.9,0,0,1-.86.9A.78.78,0,0,1,117.08,54.21Zm.91-5a.76.76,0,0,1,.75.76.9.9,0,0,1-.86.9.77.77,0,0,1-.75-.78A.85.85,0,0,1,118,49.23Z"/><path d="M123.54,51.84l0-3.88c0-1-.38-1.35-1.09-1.49v-.34l3.78,0v.34c-.91.08-1.45.46-1.46,1.47l0,3.69a2.35,2.35,0,0,0,2.44,2.58,2.25,2.25,0,0,0,2.27-2.42l0-3.81c0-1.14-.5-1.41-1.34-1.5v-.34l3.11,0v.33c-.67.14-1,.35-1,1.48l0,3.85a3.36,3.36,0,0,1-6.71,0Z"/><path d="M132.86,53.11l0-5.94a3.18,3.18,0,0,0-1.19-.64V46.2h2.07L139,52.78l0-4.5a1.49,1.49,0,0,0-1.41-1.72v-.34l3.15,0v.33c-.66.2-1,.64-1,1.71l0,6.7h-.58L133.65,48l0,5.08c0,.91.42,1.26,1.41,1.51V55h-3.18v-.34C132.58,54.45,132.85,54,132.86,53.11Z"/><path d="M141.47,46.55v-.31h6.31l.32,2.25-.32.08a2.39,2.39,0,0,0-2.34-1.67h-1.65v3.26h1.09c1.07,0,1.35-.51,1.45-1.21h.33v3.1h-.34c-.11-.75-.37-1.23-1.44-1.23h-1.09v2.4c0,.57.33,1.1,1.67,1.1s2.21-.43,2.56-1.55l.33,0L148.06,55h-6.6v-.31c.71-.14,1.1-.38,1.1-1.45V48C142.57,46.93,142.18,46.69,141.47,46.55Z"/><path d="M152.45,54.1l0-2.38.31,0c.5,1.85,1.74,2.7,2.84,2.7A1.28,1.28,0,0,0,157,53,1.68,1.68,0,0,0,156,51.56l-2-1.13a2.31,2.31,0,0,1-1.37-2.06c0-1.31,1.09-2.3,2.84-2.31a5.94,5.94,0,0,1,2.29.53l.07,2.32-.3.07c-.59-1.51-1.39-2.23-2.41-2.23A1.24,1.24,0,0,0,153.74,48a1.61,1.61,0,0,0,1,1.39l1.8,1.05a2.54,2.54,0,0,1,1.6,2.24c0,1.51-1.28,2.45-3,2.46A3.72,3.72,0,0,1,152.45,54.1Z"/><path d="M159.08,50.58a4.48,4.48,0,1,1,4.5,4.53A4.49,4.49,0,0,1,159.08,50.58Zm4.81,3.86c1.57,0,2.84-1.58,2.83-3.49,0-2.93-2-4.27-3.5-4.26s-2.84,1.58-2.83,3.47C160.4,52.58,162.19,54.45,163.89,54.44Z"/><path d="M169.63,53.1l0-5.17c0-1.07-.4-1.31-1.12-1.44v-.34l3.51,0v.34c-.66.12-1.18.38-1.17,1.46l0,5.2c0,.7.22,1.1,1.56,1.08s2-.66,2.49-2.11l.33,0-.24,2.7-6.45.06v-.33C169.25,54.42,169.64,54.18,169.63,53.1Z"/><path d="M176.38,51.78l0-3.88c0-1-.4-1.34-1.12-1.47v-.34L179,46v.34c-.91.1-1.45.5-1.43,1.51l0,3.68a2.37,2.37,0,0,0,2.49,2.54,2.25,2.25,0,0,0,2.22-2.47l0-3.81c0-1.14-.53-1.39-1.37-1.47V46L184,46v.34c-.66.15-1,.36-1,1.5l.05,3.85a3.36,3.36,0,0,1-6.71.11Z"/><path d="M187.91,52.91l-.1-6.33-1.13,0c-1.26,0-1.72,1-2,2.06l-.35,0,.09-3h.36c.11.3.36.34,1.31.33l4.55-.08c.95,0,1.2-.07,1.29-.37h.36l.19,3-.35,0c-.3-1-.79-2-2.06-2H189l.1,6.33a1.25,1.25,0,0,0,1.21,1.4v.34l-3.64.06V54.3C187.42,54.15,187.93,54,187.91,52.91Z"/><path d="M194.21,52.77l-.09-5.17c0-1.07-.41-1.3-1.13-1.43v-.34l3.42-.06v.34c-.66.15-1.08.39-1.06,1.47l.1,5.17c0,1.08.45,1.31,1.11,1.43v.34l-3.42.06v-.34C193.85,54.09,194.23,53.85,194.21,52.77Z"/><path d="M197.07,50.12a4.47,4.47,0,1,1,4.56,4.47A4.5,4.5,0,0,1,197.07,50.12Zm4.86,3.79c1.58,0,2.82-1.62,2.78-3.53-.06-2.93-2.09-4.23-3.56-4.2s-2.82,1.62-2.78,3.5C198.42,52.11,200.23,54,201.93,53.91Z"/><path d="M207.58,52.44l-.15-5.94a3.25,3.25,0,0,0-1.2-.61v-.32l2.06,0,5.47,6.42-.11-4.5a1.47,1.47,0,0,0-1.45-1.68v-.34l3.15-.07v.33c-.66.22-1,.67-.92,1.74l.16,6.7H214l-5.78-6.78.12,5.07c0,.91.46,1.25,1.45,1.48v.34l-3.18.07V54C207.33,53.79,207.6,53.35,207.58,52.44Z"/><path d="M220.39,52.2l-.14-5.2c0-1.07-.43-1.3-1.15-1.42v-.33l2.67-.08c2.59-.07,4.13.86,4.17,2.47s-1.57,2.89-3.38,3l0-.4a2.29,2.29,0,0,0,2.15-2.4c0-1.32-1-2-2.88-2h-.35l.18,6.33c0,1.07.66,1.29,1.62,1.38v.33l-3.91.11v-.33C220,53.5,220.42,53.28,220.39,52.2Z"/><path d="M227.9,52l-.16-5.21c0-1.07-.43-1.3-1.15-1.41V45l2.75-.09c2-.06,3.75.59,3.8,2.16a2.7,2.7,0,0,1-1.95,2.38c1.22.61,2.14,3.29,3.55,3.67l.25.07v.3l-2.05.07-2.17-3a1.52,1.52,0,0,0-1.35-.77h-.36l.07,2.14c0,1.08.66,1.28,1.3,1.37l0,.34-3.59.11v-.34C227.56,53.28,227.94,53.06,227.9,52Zm1.61-2.85c1.59,0,2.4-.94,2.37-1.89,0-1.16-.94-1.69-2.67-1.64h-.28l.11,3.54Z"/><path d="M234.26,49.16a4.48,4.48,0,1,1,4.63,4.4A4.51,4.51,0,0,1,234.26,49.16Zm4.92,3.72c1.58-.06,2.8-1.66,2.73-3.57-.1-2.93-2.14-4.21-3.62-4.16a3.21,3.21,0,0,0-2.73,3.55C235.64,51.12,237.48,52.94,239.18,52.88Z"/><path d="M244.91,51.41l-.2-5.2c0-1.07-.44-1.29-1.16-1.41v-.33l2.68-.1c2.58-.1,4.13.82,4.19,2.43s-1.54,2.9-3.35,3l0-.4A2.29,2.29,0,0,0,249.14,47c0-1.33-1-2-2.9-1.93h-.35l.24,6.33c0,1.07.67,1.28,1.64,1.36v.34l-3.91.14v-.33C244.57,52.71,245,52.49,244.91,51.41Z"/><path d="M251.2,48.55a4.48,4.48,0,1,1,4.66,4.38A4.51,4.51,0,0,1,251.2,48.55Zm4.94,3.69c1.58-.06,2.79-1.67,2.71-3.59-.12-2.92-2.17-4.19-3.64-4.13s-2.79,1.68-2.71,3.56C252.59,50.51,254.44,52.31,256.14,52.24Z"/><path d="M261.41,51.64l-.07-2.37.31-.06c.57,1.84,1.84,2.64,2.94,2.59a1.27,1.27,0,0,0,1.32-1.39,1.66,1.66,0,0,0-1.1-1.44l-2.05-1a2.34,2.34,0,0,1-1.45-2c-.05-1.32,1-2.35,2.75-2.42a5.66,5.66,0,0,1,2.31.44l.16,2.3-.3.09c-.65-1.49-1.48-2.17-2.49-2.13a1.22,1.22,0,0,0-1.28,1.3,1.62,1.62,0,0,0,1.06,1.36l1.84,1c1.16.61,1.64,1.28,1.68,2.18.06,1.51-1.18,2.5-2.9,2.57A3.69,3.69,0,0,1,261.41,51.64Z"/><path d="M267.8,43.81v-.32l6.3-.29.43,2.23-.32.11A2.4,2.4,0,0,0,271.79,44l-1.65.08.15,3.26,1.09-.05c1.07,0,1.32-.58,1.39-1.28l.33,0,.15,3.1h-.34c-.15-.74-.43-1.2-1.5-1.15l-1.09,0,.11,2.39c0,.58.39,1.09,1.73,1s2.18-.54,2.48-1.66l.33,0-.19,2.18-6.59.3v-.31c.7-.17,1.08-.43,1-1.5L269,45.2C268.92,44.13,268.52,43.91,267.8,43.81Zm4.91-2.91.42,1.12-2.93.62-.11-.28Z"/><path d="M275.28,43.45l0-.31,6.3-.39L282,45l-.32.11a2.42,2.42,0,0,0-2.44-1.53l-1.65.11.2,3.26,1.09-.07c1.07-.07,1.32-.6,1.37-1.3l.34,0,.19,3.09-.33,0c-.16-.74-.46-1.2-1.53-1.13l-1.08.07L278,50c0,.58.41,1.08,1.75,1s2.18-.58,2.46-1.71l.33,0-.16,2.18-6.59.41,0-.31c.71-.19,1.08-.45,1-1.52l-.32-5.22C276.4,43.76,276,43.55,275.28,43.45Z"/><path d="M287.39,49.37,287,44.18c-.07-1.07-.47-1.28-1.19-1.37l0-.33,2.67-.18c2.58-.18,4.16.69,4.26,2.3s-1.45,2.94-3.26,3.08l-.05-.4a2.29,2.29,0,0,0,2.05-2.48c-.09-1.32-1-2-2.95-1.84l-.35,0,.42,6.31c.07,1.07.71,1.27,1.68,1.31l0,.34-3.9.26,0-.33C287.09,50.68,287.46,50.44,287.39,49.37Z"/><path d="M293.62,49.1l2.28-7.31.49,0,3.21,6.83c.38.8.68,1.16,1.41,1.28l0,.33-3.7.26,0-.36c.92-.08,1.38-.57.91-1.59l-.37-.78-3.09.22-.3,1c-.26.82.13,1.34,1.09,1.33l0,.34-3.11.22,0-.36A1.69,1.69,0,0,0,293.62,49.1Zm3.92-2L296,43.84,295,47.27Z"/><path d="M302.13,48.37l-.38-5.2c-.07-1.07-.48-1.28-1.2-1.37l0-.33,2.74-.2c2-.15,3.77.43,3.88,2a2.67,2.67,0,0,1-1.85,2.45c1.24.57,2.27,3.21,3.7,3.53l.25.06,0,.3-2,.15-2.29-2.92a1.56,1.56,0,0,0-1.38-.72l-.36,0,.15,2.13c.08,1.09.72,1.25,1.36,1.32l0,.34-3.57.25,0-.33C301.83,49.67,302.2,49.43,302.13,48.37Zm1.49-2.91c1.59-.12,2.36-1,2.29-2-.08-1.16-1-1.65-2.73-1.53l-.29,0,.26,3.53Z"/><path d="M312.93,46.27l-.3-3.87c-.08-1-.49-1.31-1.21-1.39l0-.34,3.77-.29,0,.34c-.91.15-1.41.58-1.34,1.59l.29,3.68a2.35,2.35,0,0,0,2.65,2.36,2.25,2.25,0,0,0,2.06-2.6l-.3-3.8c-.08-1.14-.62-1.36-1.46-1.38l0-.34,3.1-.24,0,.34c-.65.19-1,.42-.87,1.56l.29,3.84a3.36,3.36,0,0,1-6.69.54Z"/><path d="M322.33,46.74l-.48-5.92a3.23,3.23,0,0,0-1.24-.54l0-.32,2.05-.17,5.83,6.1-.36-4.48a1.48,1.48,0,0,0-1.55-1.6l0-.34,3.14-.25,0,.34c-.64.25-.91.71-.82,1.78l.54,6.69-.58,0-6.15-6.45.41,5.06c.07.91.52,1.22,1.53,1.39l0,.34-3.17.26,0-.34C322.16,48.11,322.4,47.65,322.33,46.74Z"/><path d="M330.32,39.49l0-.31,6.28-.54.52,2.22-.32.11a2.4,2.4,0,0,0-2.47-1.47l-1.64.14.27,3.25L334,42.8c1.07-.09,1.3-.63,1.34-1.33l.33,0,.26,3.09-.33,0c-.18-.74-.48-1.19-1.55-1.1l-1.08.09.2,2.39c.05.57.43,1.07,1.76,1s2.17-.63,2.42-1.76l.33,0-.1,2.18-6.58.55,0-.31c.69-.2,1.06-.46,1-1.54l-.44-5.2C331.45,39.77,331,39.56,330.32,39.49Z"/><path d="M342.06,45.33,344.2,38l.5,0L348,44.71c.4.79.71,1.15,1.43,1.25l0,.34-3.7.32,0-.36c.92-.09,1.36-.59.87-1.61l-.38-.77-3.09.28-.27,1c-.25.83.15,1.34,1.12,1.31l0,.35-3.1.27,0-.36A1.68,1.68,0,0,0,342.06,45.33ZM346,43.25,344.36,40l-1,3.45Z"/><path d="M350.55,44.4l-.47-5.16c-.1-1.07-.51-1.27-1.23-1.34l0-.34,3.5-.32,0,.34a1.24,1.24,0,0,0-1.05,1.55l.48,5.18c.06.7.31,1.08,1.64.95s2-.82,2.31-2.3l.33,0v2.71l-6.43.59,0-.34C350.29,45.74,350.65,45.47,350.55,44.4Z"/><path d="M357.79,43.73l-.48-5.15c-.1-1.08-.51-1.28-1.23-1.35l0-.33,3.5-.33,0,.33a1.25,1.25,0,0,0-1,1.56l.49,5.18c.06.7.31,1.08,1.64,1s2-.83,2.31-2.32l.33,0V45l-6.42.6,0-.33C357.53,45.07,357.89,44.8,357.79,43.73Z"/><path d="M365,43l-.49-5.15c-.11-1.07-.52-1.27-1.24-1.33l0-.34,3.39-.33,0,.34c-.65.2-1.05.48-.95,1.54l.5,5.15c.11,1.07.55,1.27,1.22,1.34l0,.34-3.4.33,0-.34C364.76,44.38,365.12,44.11,365,43Z"/><path d="M368.65,42.86l2.06-7.37.5-.05,3.4,6.73c.41.79.72,1.15,1.45,1.24l0,.33-3.69.37,0-.36c.92-.1,1.36-.61.86-1.62l-.39-.76-3.09.3-.27,1c-.23.83.18,1.34,1.14,1.3l0,.35-3.09.3,0-.36A1.67,1.67,0,0,0,368.65,42.86Zm3.86-2.13-1.62-3.2L369.94,41Z"/><path d="M377.14,41.77l-.61-5.9a3.1,3.1,0,0,0-1.25-.52l0-.32,2.05-.21,6,6-.46-4.48a1.48,1.48,0,0,0-1.58-1.56l0-.33,3.14-.32,0,.33c-.64.27-.89.73-.78,1.8l.69,6.67-.58.06-6.29-6.32.52,5c.09.91.55,1.22,1.56,1.36l0,.34-3.16.32,0-.33C377,43.14,377.23,42.68,377.14,41.77Z"/><path d="M385.18,38.41a4.52,4.52,0,0,1,3.94-5,7.26,7.26,0,0,1,2.94.31l.51,2.11-.28.13c-1-1.36-2.09-2-3.39-1.83-1.53.16-2.58,2-2.38,3.86a4,4,0,0,0,4.16,3.73c1.15-.12,1.84-1.09,2.31-2.5l.29,0,0,2.12a7.73,7.73,0,0,1-2.93,1.08A4.6,4.6,0,0,1,385.18,38.41Z"/><path d="M393.31,33.44l0-.31,6.27-.69.57,2.2-.31.12a2.39,2.39,0,0,0-2.51-1.41l-1.64.18.36,3.24,1.08-.12c1.07-.11,1.29-.65,1.31-1.36l.34,0,.34,3.08-.34,0c-.19-.73-.51-1.18-1.58-1.06l-1.08.12.27,2.39c.06.57.45,1,1.78.91s2.15-.68,2.38-1.83l.33,0-.05,2.18-6.56.72,0-.31c.69-.21,1.05-.49.93-1.56l-.57-5.19C394.45,33.69,394,33.5,393.31,33.44Z"/><path d="M404.29,36.28a4.54,4.54,0,0,1,4-5,7.11,7.11,0,0,1,2.94.29l.53,2.11-.28.13c-1-1.23-2.11-2-3.41-1.87-1.63.19-2.7,1.94-2.48,3.82a4.07,4.07,0,0,0,4.33,3.78,3.71,3.71,0,0,0,1.44-.54l-.21-1.82c-.13-1-.85-1.28-2.05-1.22l0-.33,3.9-.46,0,.34c-.64.21-.76.46-.64,1.52l.33,2.81-.29.13-.55-.43a7,7,0,0,1-2.37.77A4.58,4.58,0,0,1,404.29,36.28Z"/><path d="M413.67,35.19a4.47,4.47,0,1,1,5,4A4.51,4.51,0,0,1,413.67,35.19Zm5.21,3.29c1.57-.19,2.65-1.89,2.42-3.79-.35-2.9-2.5-4-4-3.83s-2.65,1.89-2.42,3.77C415.21,37,417.2,38.68,418.88,38.48Z"/><path d="M424.25,35.25l-.48-3.84c-.13-1-.55-1.29-1.28-1.34l0-.34,3.75-.47,0,.34c-.9.2-1.38.65-1.25,1.66l.45,3.66a2.36,2.36,0,0,0,2.77,2.23,2.25,2.25,0,0,0,1.93-2.7l-.48-3.78c-.14-1.13-.68-1.33-1.52-1.31l0-.33,3.08-.39.05.33c-.64.22-.94.47-.8,1.6l.48,3.82a3.36,3.36,0,0,1-6.66.86Z"/><path d="M431.07,29l0-.33,3.6-.47.05.36a1,1,0,0,0-.77,1.57l2.47,4.57,1.25-5.05c.22-.91-.18-1.44-1.1-1.34l0-.35,3.05-.4,0,.36a1.92,1.92,0,0,0-1.12,1.41l-1.84,7.43-.47.06-3.6-6.63C432.12,29.42,431.8,29.07,431.07,29Z"/><path d="M439.63,27.86l-.05-.31,6.26-.83.62,2.19-.31.13a2.4,2.4,0,0,0-2.54-1.36L442,27.9l.43,3.23,1.07-.14c1.07-.14,1.27-.68,1.28-1.39l.34-.05.4,3.08-.33,0c-.21-.73-.53-1.16-1.6-1l-1.08.14.32,2.38c.08.57.48,1,1.8.87s2.14-.73,2.34-1.87h.33v2.18l-6.54.87,0-.31c.68-.23,1-.51.9-1.58l-.69-5.18C440.76,28.09,440.35,27.9,439.63,27.86Z"/><path d="M449,33.34l-.7-5.16c-.14-1.07-.56-1.25-1.28-1.29l0-.34,2.73-.37c2-.27,3.79.2,4,1.76A2.68,2.68,0,0,1,452,30.5c1.28.48,2.47,3.06,3.92,3.29l.25.05,0,.29-2,.28-2.47-2.77A1.54,1.54,0,0,0,450.3,31l-.36,0,.29,2.12c.14,1.08.79,1.2,1.44,1.23l0,.33-3.55.49-.05-.34C448.8,34.66,449.16,34.4,449,33.34Zm1.31-3c1.58-.21,2.29-1.18,2.16-2.12-.15-1.16-1.11-1.59-2.82-1.36l-.28,0,.47,3.5Z"/><path d="M457,32.16l-.81-5.88a3.29,3.29,0,0,0-1.26-.47l-.05-.32,2-.28L463.1,31l-.62-4.46a1.47,1.47,0,0,0-1.63-1.5l-.05-.33,3.12-.44.05.34c-.63.29-.87.76-.72,1.83l.92,6.63-.57.08L457.09,27l.7,5c.12.91.59,1.19,1.6,1.31l.05.33-3.14.44-.05-.34C456.93,33.53,457.15,33.06,457,32.16Z"/><path d="M464.63,24.45l0-.31,6.25-.87.63,2.18-.31.13a2.38,2.38,0,0,0-2.55-1.33l-1.63.23.46,3.23,1.07-.16c1.07-.15,1.27-.69,1.27-1.4l.33,0,.43,3.07-.33,0c-.22-.73-.54-1.16-1.61-1l-1.07.15.33,2.38c.08.57.49,1,1.81.85s2.13-.74,2.32-1.89h.33l0,2.18-6.54.92,0-.31c.69-.24,1-.53.89-1.59l-.73-5.18C465.77,24.67,465.36,24.49,464.63,24.45Z"/><path d="M473.88,29.73l-.17-5.22c0-.78-.43-1.06-1.19-1.16l0-.32,2.39-.33,3.49,5.58,1.72-6.3,0,0v0l2.29-.32.05.34a1.15,1.15,0,0,0-.83,1.57l1.34,5.07c.22.84.64,1.21,1.35,1.26l0,.33-3.55.49,0-.33c.53-.2,1.24-.53,1-1.58l-1.29-5.38-1.9,6.93-.29,0-3.79-6,.18,5.44c0,1,.77,1.25,1.48,1.23l.05.34-3.1.42,0-.33C473.7,31.1,473.91,30.81,473.88,29.73Z"/><path d="M483.72,21.8l0-.31L490,20.7l.6,2.19-.31.13a2.39,2.39,0,0,0-2.53-1.37l-1.64.21.41,3.24,1.08-.14c1.07-.14,1.28-.68,1.29-1.39l.33,0,.39,3.08-.33,0a1.22,1.22,0,0,0-1.59-1l-1.08.13.3,2.38c.07.58.47,1.05,1.8.89s2.14-.72,2.35-1.87h.33l0,2.19-6.55.83,0-.31c.69-.23,1.05-.52.91-1.58L485,23.1C484.86,22,484.45,21.85,483.72,21.8Z"/><path d="M493.12,27.26l-.64-5.9a3.24,3.24,0,0,0-1.25-.51l0-.32,2.05-.22,6,5.94-.48-4.47a1.48,1.48,0,0,0-1.59-1.55l0-.34,3.13-.34,0,.34c-.64.27-.89.74-.77,1.8l.72,6.66-.57.06-6.33-6.27.55,5c.1.9.56,1.21,1.57,1.35l0,.33-3.15.35,0-.34C493,28.63,493.22,28.17,493.12,27.26Z"/><path d="M505,26.18l-.5-6.31-1.12.09c-1.26.1-1.65,1.13-1.86,2.18l-.35,0-.1-3,.36,0c.12.3.38.33,1.33.25l4.53-.35c.95-.08,1.2-.15,1.27-.45l.36,0,.38,3-.35.06c-.37-1-.92-2-2.18-1.86l-1.05.08.5,6.31a1.25,1.25,0,0,0,1.29,1.33l0,.34-3.63.28,0-.39C504.55,27.45,505.05,27.25,505,26.18Z"/><path d="M510,26l2.43-7.27.5,0L516,25.56c.37.81.66,1.19,1.38,1.31v.34l-3.7.18,0-.36c.92-.06,1.39-.54.94-1.57l-.35-.79-3.1.16-.32,1c-.27.81.11,1.35,1.07,1.35l0,.35-3.11.15,0-.36A1.69,1.69,0,0,0,510,26ZM514,24l-1.46-3.28-1.12,3.41Z"/><path d="M518.51,25.41l-.1-5.17c0-1.08-.42-1.31-1.13-1.43v-.34l3.51-.07v.34c-.66.12-1.18.4-1.16,1.47l.11,5.2c0,.7.23,1.1,1.57,1.07s2-.68,2.47-2.14l.33,0-.21,2.71-6.45.13v-.34C518.15,26.73,518.54,26.49,518.51,25.41Z"/><path d="M524.64,18.74v-.31l6.31,0,.31,2.25-.32.09a2.41,2.41,0,0,0-2.33-1.69H527l0,3.26H528c1.07,0,1.35-.5,1.46-1.2h.33l0,3.1h-.33c-.11-.75-.37-1.23-1.45-1.24h-1.08l0,2.4c0,.57.33,1.1,1.67,1.1s2.21-.42,2.57-1.53l.33.05-.3,2.16-6.6,0v-.31c.71-.13,1.1-.37,1.11-1.44l0-5.23C525.74,19.12,525.35,18.88,524.64,18.74Z"/><path d="M535.52,18.9v-.32l6.31.29.22,2.26-.33.07a2.39,2.39,0,0,0-2.26-1.77l-1.64-.08-.15,3.26,1.08.05c1.08.05,1.38-.45,1.51-1.15l.33,0-.14,3.09h-.33c-.08-.76-.32-1.24-1.4-1.29l-1.08-.05-.11,2.4c0,.57.29,1.11,1.62,1.17s2.23-.34,2.63-1.43l.32.06-.38,2.15-6.59-.3V27c.72-.11,1.12-.33,1.17-1.4l.23-5.22C536.6,19.32,536.23,19.07,535.52,18.9Z"/><path d="M543.64,24.68l.3-3.86c.07-1-.29-1.38-1-1.57l0-.34,3.77.29,0,.34c-.92,0-1.48.36-1.56,1.37l-.28,3.68a2.36,2.36,0,0,0,2.25,2.75,2.26,2.26,0,0,0,2.44-2.26l.29-3.81c.09-1.13-.4-1.43-1.23-1.58l0-.34,3.11.24,0,.34c-.67.08-1,.27-1.1,1.4l-.29,3.84a3.36,3.36,0,0,1-6.7-.49Z"/><path d="M552.8,26.75l.56-5.19c.11-1.06-.25-1.34-.94-1.55l0-.34,2.74.29c2,.22,3.63,1.09,3.46,2.66a2.68,2.68,0,0,1-2.26,2.09c1.13.77,1.67,3.56,3,4.13l.24.1,0,.3-2-.22-1.74-3.28a1.54,1.54,0,0,0-1.23-.95l-.36,0L554,26.88a1.27,1.27,0,0,0,1.11,1.54l0,.34-3.57-.38,0-.34C552.28,28,552.69,27.81,552.8,26.75Zm2-2.6c1.58.16,2.51-.6,2.61-1.55.12-1.16-.7-1.81-2.42-2l-.28,0-.38,3.52Z"/><path d="M559.54,24.82a4.48,4.48,0,1,1,3.88,5.08A4.51,4.51,0,0,1,559.54,24.82Zm4.27,4.45c1.56.2,3-1.19,3.26-3.09.37-2.91-1.45-4.49-2.91-4.68a3.21,3.21,0,0,0-3.26,3.07C560.6,27,562.12,29.06,563.81,29.27Z"/><path d="M569.7,28.77l.71-5.15c.14-1.07-.21-1.36-.9-1.59l0-.34,2.65.37c2.57.35,3.93,1.52,3.71,3.12s-2,2.59-3.81,2.35l0-.4a2.29,2.29,0,0,0,2.51-2c.18-1.32-.62-2.15-2.53-2.41l-.34,0-.86,6.27c-.15,1.06.44,1.38,1.38,1.62l0,.34-3.87-.53,0-.34C569.15,30,569.56,29.84,569.7,28.77Z"/><path d="M577,23l0-.31,6.25.88v2.28l-.34,0a2.4,2.4,0,0,0-2.08-2l-1.63-.23-.45,3.23,1.07.15c1.07.15,1.41-.31,1.61-1l.33,0-.43,3.07-.34-.05c0-.75-.2-1.26-1.26-1.41l-1.08-.15L578.35,30c-.08.56.18,1.13,1.5,1.32s2.26-.13,2.76-1.18l.31.09-.58,2.11-6.54-.92.05-.31c.72,0,1.14-.22,1.29-1.29l.72-5.17C578,23.56,577.66,23.27,577,23Zm5.36-1.94.21,1.18-3,.07-.06-.3Z"/><path d="M584.41,24.08l.05-.31,6.25.88v2.27l-.33,0a2.39,2.39,0,0,0-2.08-2l-1.63-.23L586.21,28l1.08.15a1.23,1.23,0,0,0,1.6-1l.34.05-.43,3.07-.34-.05c0-.76-.2-1.27-1.26-1.42l-1.08-.15L585.79,31c-.08.57.18,1.13,1.5,1.32s2.25-.12,2.75-1.18l.32.1-.59,2.1-6.53-.92,0-.31c.73,0,1.14-.22,1.29-1.28l.73-5.17C585.45,24.6,585.1,24.31,584.41,24.08Z"/><path d="M592.05,31.79l.81-5.88a3.28,3.28,0,0,0-1.09-.8l0-.32,2.05.28,4.37,7.22.61-4.46a1.48,1.48,0,0,0-1.16-1.89l0-.34,3.12.44,0,.33c-.69.11-1,.5-1.19,1.57l-.92,6.64-.57-.08-4.61-7.63-.7,5c-.12.9.25,1.31,1.2,1.69l0,.33-3.15-.43.05-.33C591.59,33.09,591.92,32.7,592.05,31.79Z"/><path d="M601.7,33.11l.8-5.88a3.13,3.13,0,0,0-1.09-.79l0-.32,2,.27,4.38,7.21.61-4.46a1.49,1.49,0,0,0-1.17-1.89l0-.33,3.13.42,0,.33c-.68.11-1,.51-1.18,1.57l-.9,6.64-.57-.07-4.64-7.62-.68,5c-.12.9.25,1.31,1.2,1.69l0,.33-3.14-.43,0-.33C601.25,34.42,601.58,34,601.7,33.11Z"/><path d="M611.05,27.73l0-.31,6.26.81,0,2.28-.33,0a2.4,2.4,0,0,0-2.1-2l-1.64-.21-.42,3.23,1.08.14a1.23,1.23,0,0,0,1.59-1l.33,0-.4,3.07-.33,0c0-.76-.21-1.26-1.28-1.4l-1.08-.14-.31,2.38c-.07.56.19,1.13,1.52,1.3s2.25-.15,2.74-1.2l.32.09-.57,2.1L610,36.09l0-.31c.72,0,1.14-.23,1.28-1.29l.67-5.18C612.09,28.24,611.74,28,611.05,27.73Z"/><path d="M621.83,35.85l.65-5.16c.13-1.07-.22-1.35-.91-1.58l0-.33,2.65.33c2.57.32,4,1.48,3.75,3.08s-2,2.61-3.79,2.4l0-.4a2.3,2.3,0,0,0,2.49-2c.16-1.31-.64-2.13-2.55-2.37l-.35-.05L623.05,36c-.14,1.07.45,1.38,1.39,1.61l0,.34-3.88-.49,0-.33C621.28,37.08,621.7,36.92,621.83,35.85Z"/><path d="M628.49,34a4.47,4.47,0,1,1,3.89,5.07A4.5,4.5,0,0,1,628.49,34Zm4.28,4.44c1.56.19,3-1.21,3.25-3.1.35-2.91-1.47-4.49-2.93-4.67s-3,1.21-3.25,3.08C629.55,36.2,631.08,38.27,632.77,38.48Z"/><path d="M638.78,36.63l.45-3.85c.12-1-.23-1.38-.92-1.6l0-.34,3.75.44,0,.33c-.92,0-1.49.31-1.61,1.31L640,36.59a2.36,2.36,0,0,0,2.15,2.83,2.25,2.25,0,0,0,2.52-2.16l.44-3.79c.13-1.13-.35-1.45-1.17-1.63l0-.34,3.09.36,0,.34c-.67.06-1,.23-1.15,1.36l-.44,3.83a3.36,3.36,0,0,1-6.68-.76Z"/><path d="M647.87,39l.59-5.18c.12-1.07-.24-1.34-.93-1.56l0-.34,2.74.31c2,.23,3.62,1.12,3.44,2.68A2.68,2.68,0,0,1,651.47,37c1.12.78,1.65,3.57,3,4.15l.24.1,0,.3-2-.23L650.91,38a1.51,1.51,0,0,0-1.22-.95l-.36,0-.24,2.12a1.25,1.25,0,0,0,1.09,1.54l0,.34-3.57-.4,0-.34C647.34,40.23,647.75,40.06,647.87,39Zm2-2.59c1.58.18,2.51-.58,2.62-1.53.13-1.15-.69-1.81-2.4-2l-.29,0-.4,3.52Z"/><path d="M659,40.21l.56-5.14c.11-1.07-.25-1.34-.94-1.56l0-.33,3.21.34c3.14.34,5,2,4.76,4.7s-2.52,4.34-5.41,4l-3.5-.38,0-.33C658.47,41.48,658.88,41.28,659,40.21Zm2.8,1.44a3.4,3.4,0,0,0,3.52-3.28c.25-2.28-1.14-3.93-3.82-4.22l-.61-.06-.67,6.22C660.13,41.19,660.69,41.53,661.8,41.65Z"/><path d="M667.5,34.44l0-.31,6.28.65.09,2.28-.33,0a2.39,2.39,0,0,0-2.15-1.91L669.78,35l-.34,3.24,1.08.12c1.07.11,1.4-.37,1.57-1.06l.34,0-.33,3.08-.33,0c0-.76-.25-1.26-1.32-1.37l-1.08-.12-.25,2.39c-.06.57.22,1.13,1.55,1.27s2.25-.21,2.71-1.28l.32.09-.51,2.12-6.56-.69,0-.31c.72-.06,1.13-.26,1.24-1.33l.55-5.19C668.56,34.93,668.2,34.65,667.5,34.44Z"/><path d="M674.54,42.77l.27-2.36h.32c.29,1.91,1.44,2.88,2.54,3a1.26,1.26,0,0,0,1.5-1.19,1.69,1.69,0,0,0-.88-1.59l-1.88-1.33a2.3,2.3,0,0,1-1.14-2.19c.13-1.31,1.32-2.18,3.06-2a5.89,5.89,0,0,1,2.23.76l-.18,2.31-.3.05c-.43-1.57-1.16-2.37-2.16-2.47a1.23,1.23,0,0,0-1.46,1.11,1.63,1.63,0,0,0,.85,1.49L679,39.57a2.54,2.54,0,0,1,1.35,2.4c-.16,1.5-1.53,2.3-3.25,2.13A3.68,3.68,0,0,1,674.54,42.77Z"/><path d="M685.29,41.68l.37-3.86c.1-1-.25-1.38-.95-1.58l0-.34,3.76.37,0,.33c-.92,0-1.49.34-1.59,1.34l-.35,3.67a2.35,2.35,0,0,0,2.2,2.79,2.24,2.24,0,0,0,2.47-2.21l.37-3.79c.11-1.13-.38-1.44-1.2-1.61l0-.34,3.1.3,0,.34c-.68.07-1,.25-1.13,1.38L692,42.3a3.36,3.36,0,0,1-6.68-.62Z"/><path d="M696.62,44.06l.59-6.3-1.12-.11c-1.26-.12-1.83.84-2.21,1.83l-.34-.07.41-3,.36,0c.07.31.32.38,1.26.47l4.54.42c.94.09,1.2.06,1.32-.23l.36,0-.14,3h-.35c-.19-1.05-.57-2.09-1.83-2.2l-1-.1-.59,6.3a1.25,1.25,0,0,0,1,1.53l0,.34-3.62-.34,0-.39C696,45.24,696.52,45.13,696.62,44.06Z"/><path d="M702.9,44.61l.47-5.15c.09-1.07-.27-1.34-1-1.54l0-.34,3.4.31,0,.33c-.67.08-1.12.28-1.21,1.35l-.47,5.15c-.1,1.08.3,1.35,1,1.55l0,.33-3.4-.3,0-.34C702.39,45.89,702.8,45.69,702.9,44.61Z"/><path d="M707,45l.46-5.16c.09-1.07-.27-1.34-1-1.54l0-.33,3.5.31,0,.33c-.67.06-1.22.27-1.31,1.34l-.46,5.18c-.06.7.12,1.12,1.45,1.23s2.1-.45,2.68-1.85l.32.07-.5,2.67-6.42-.57,0-.33C706.53,46.26,706.94,46.06,707,45Z"/><path d="M714.29,45.63l.44-5.16c.1-1.07-.27-1.34-1-1.54l0-.33,3.4.29,0,.34c-.67.08-1.11.28-1.21,1.35l-.44,5.15c-.1,1.08.31,1.35,1,1.54l0,.34-3.4-.3,0-.33C713.79,46.9,714.19,46.7,714.29,45.63Z"/><path d="M717.63,46.82l.24-2.36h.32c.32,1.89,1.49,2.84,2.58,2.94a1.26,1.26,0,0,0,1.48-1.22,1.65,1.65,0,0,0-.9-1.57l-1.9-1.3a2.31,2.31,0,0,1-1.18-2.17c.11-1.31,1.29-2.2,3-2.05a5.73,5.73,0,0,1,2.23.73l-.13,2.31-.31.05c-.45-1.56-1.19-2.35-2.2-2.43a1.23,1.23,0,0,0-1.44,1.13,1.65,1.65,0,0,0,.88,1.48L722,43.54a2.55,2.55,0,0,1,1.39,2.38c-.13,1.51-1.49,2.33-3.21,2.19A3.75,3.75,0,0,1,717.63,46.82Z"/><path d="M724.75,46.69l3.34-6.9.5,0,2.15,7.24c.26.85.5,1.26,1.2,1.48l0,.34-3.7-.3,0-.36c.92.06,1.44-.36,1.13-1.44l-.25-.83L726,45.71l-.44.91c-.37.77-.07,1.35.89,1.48l0,.35-3.1-.26,0-.36A1.67,1.67,0,0,0,724.75,46.69Zm4.18-1.41-1-3.44-1.55,3.23Z"/><path d="M734.73,47.34l.49-6.31L734.1,41c-1.26-.1-1.81.86-2.18,1.86l-.34-.07.37-3,.36,0c.08.31.32.38,1.27.45l4.54.35c.94.08,1.2,0,1.32-.24l.36,0-.09,3h-.36c-.2-1-.6-2.08-1.86-2.18l-1-.08L736,47.44A1.25,1.25,0,0,0,737,49l0,.34L733.37,49l0-.38C734.12,48.54,734.64,48.41,734.73,47.34Z"/><path d="M741,47.8l.39-5.16c.08-1.07-.28-1.34-1-1.53l0-.33,3.4.26,0,.33c-.67.09-1.11.29-1.2,1.37l-.39,5.16c-.08,1.07.33,1.34,1,1.52l0,.34-3.4-.26,0-.33C740.51,49.08,740.92,48.88,741,47.8Z"/><path d="M744.11,45.44a4.48,4.48,0,1,1,4.13,4.87A4.52,4.52,0,0,1,744.11,45.44Zm4.49,4.22c1.57.12,3-1.35,3.1-3.25.21-2.92-1.68-4.41-3.15-4.52s-3,1.35-3.1,3.23C745.27,47.54,746.91,49.54,748.6,49.66Z"/><path d="M754.35,48.73l.41-5.92a3,3,0,0,0-1.14-.72l0-.33,2.05.15,4.85,6.9.31-4.49a1.47,1.47,0,0,0-1.29-1.8l0-.34,3.15.22,0,.34c-.67.15-1,.56-1.08,1.64l-.46,6.68-.58,0-5.11-7.3-.36,5.06c-.06.91.34,1.29,1.31,1.61l0,.34-3.16-.22,0-.34C754,50.06,754.29,49.64,754.35,48.73Z"/><path d="M763.25,50.31l.2-2.36.31,0c.36,1.89,1.54,2.82,2.63,2.89a1.27,1.27,0,0,0,1.47-1.24,1.66,1.66,0,0,0-.94-1.55L765,46.76a2.33,2.33,0,0,1-1.22-2.15c.09-1.31,1.25-2.22,3-2.1a5.69,5.69,0,0,1,2.24.69l-.09,2.31-.3.05c-.49-1.54-1.24-2.32-2.25-2.39A1.22,1.22,0,0,0,765,44.33a1.6,1.6,0,0,0,.9,1.46L767.59,47A2.55,2.55,0,0,1,769,49.31c-.11,1.51-1.45,2.36-3.17,2.24A3.67,3.67,0,0,1,763.25,50.31Z"/><path d="M773.68,50.27l3.22-7,.5,0,2.27,7.2c.28.85.53,1.25,1.23,1.46l0,.34-3.71-.24,0-.36c.93,0,1.44-.39,1.11-1.46l-.26-.82-3.1-.2-.42.92c-.36.78,0,1.35.91,1.46l0,.35-3.11-.2,0-.36A1.7,1.7,0,0,0,773.68,50.27Zm4.15-1.48-1.08-3.42-1.5,3.26Z"/><path d="M782.19,50.55l.22-5.17c.05-1.07-.33-1.33-1-1.5v-.33l3.51.15V44c-.67.08-1.21.32-1.25,1.39l-.23,5.2c0,.7.16,1.11,1.5,1.16s2.07-.54,2.6-2l.32.06-.38,2.69L781,52.29V52C781.74,51.84,782.14,51.62,782.19,50.55Z"/><path d="M790.4,50.93l.26-6.32-1.12,0c-1.26,0-1.78.92-2.11,1.94l-.34-.06.26-3,.36,0c.09.3.34.36,1.28.4l4.55.19c1,0,1.2,0,1.31-.29h.36v3l-.35,0c-.24-1-.67-2.06-1.94-2.11l-1,0L791.62,51a1.25,1.25,0,0,0,1.13,1.47v.34l-3.64-.15,0-.39C789.84,52.14,790.36,52,790.4,50.93Z"/><path d="M795.88,44.47v-.31l6.32.25.23,2.26-.33.08A2.39,2.39,0,0,0,799.84,45l-1.65-.06-.12,3.26,1.08,0c1.08,0,1.37-.46,1.5-1.16l.34,0-.12,3.1-.34,0c-.08-.75-.33-1.24-1.4-1.28l-1.09,0-.09,2.4c0,.57.29,1.11,1.63,1.16s2.23-.35,2.62-1.45l.32.07-.37,2.15-6.6-.26V52.6c.72-.11,1.12-.33,1.16-1.41l.21-5.22C797,44.89,796.59,44.64,795.88,44.47Z"/><path d="M804.2,51.5l.19-5.22c0-1.07-.34-1.32-1-1.49v-.33l2.75.1c2,.07,3.7.83,3.64,2.41a2.69,2.69,0,0,1-2.11,2.24c1.18.69,1.91,3.43,3.3,3.91l.25.08,0,.3-2-.07-2-3.15a1.52,1.52,0,0,0-1.29-.86l-.36,0-.08,2.14c0,1.09.58,1.32,1.21,1.46v.34L803,53.2v-.33C803.77,52.76,804.16,52.56,804.2,51.5ZM806,48.76c1.58.06,2.45-.78,2.49-1.73,0-1.16-.83-1.75-2.55-1.82h-.29l-.13,3.54Z"/><path d="M812.31,51.68l.2-5.93a3.31,3.31,0,0,0-1.17-.68v-.32l2.06.06,5.1,6.73.15-4.5a1.48,1.48,0,0,0-1.36-1.76v-.34l3.15.11v.33c-.67.18-1,.61-1,1.68l-.22,6.7-.57,0-5.39-7.1-.16,5.07c0,.91.38,1.28,1.36,1.56v.34l-3.18-.11v-.34C812,53,812.28,52.6,812.31,51.68Z"/><path d="M821.47,52.22l3-7h.5l2.51,7.12c.3.83.57,1.23,1.28,1.41v.34L825,53.94l0-.36c.92,0,1.42-.44,1.05-1.5l-.29-.81-3.1-.09-.39.93c-.33.79,0,1.35,1,1.43v.35l-3.11-.09v-.37A1.68,1.68,0,0,0,821.47,52.22Zm4.1-1.62-1.2-3.39L823,50.53Z"/><path d="M831.46,52.36l.17-6.32-1.12,0c-1.26,0-1.76,1-2.08,2l-.35,0,.22-3h.36c.09.31.34.36,1.29.39l4.55.12c1,0,1.2,0,1.31-.32h.36l.06,3-.35,0c-.26-1-.71-2-2-2.07l-1,0-.17,6.32a1.25,1.25,0,0,0,1.15,1.46v.34l-3.64-.1V53.7C830.92,53.58,831.43,53.43,831.46,52.36Z"/><path d="M837.78,52.5l.13-5.17c0-1.08-.36-1.33-1.07-1.48v-.34l3.41.08v.34c-.66.12-1.09.35-1.12,1.43L839,52.53c0,1.07.4,1.32,1.06,1.47v.34l-3.41-.08v-.34C837.36,53.8,837.75,53.57,837.78,52.5Z"/><path d="M840.35,45.94V45.6l3.63.08V46a1,1,0,0,0-1,1.45l1.76,4.89,2-4.81c.36-.87,0-1.45-.88-1.5v-.35l3.07.07v.36a1.91,1.91,0,0,0-1.32,1.22l-2.93,7.08h-.48l-2.57-7.1C841.32,46.51,841.06,46.12,840.35,45.94Z"/><path d="M849,46.11V45.8l6.31.12.28,2.25-.33.09a2.39,2.39,0,0,0-2.3-1.72l-1.65,0-.06,3.26,1.08,0c1.08,0,1.36-.49,1.48-1.19h.33l-.06,3.1h-.33c-.1-.75-.36-1.23-1.43-1.25l-1.09,0,0,2.4c0,.57.31,1.1,1.65,1.13s2.22-.39,2.59-1.5l.32.06-.32,2.15-6.6-.13v-.31c.72-.12,1.11-.35,1.13-1.43l.1-5.22C850.05,46.5,849.67,46.26,849,46.11Z"/><path d="M856.69,53.81l.08-2.37.32,0c.45,1.87,1.67,2.74,2.77,2.76a1.25,1.25,0,0,0,1.4-1.31,1.67,1.67,0,0,0-1-1.51l-2-1.17a2.32,2.32,0,0,1-1.33-2.08c0-1.31,1.14-2.28,2.89-2.25a5.68,5.68,0,0,1,2.28.57l0,2.32-.3.07c-.56-1.53-1.35-2.26-2.36-2.28a1.22,1.22,0,0,0-1.36,1.23,1.63,1.63,0,0,0,1,1.41l1.78,1.08a2.56,2.56,0,0,1,1.55,2.28c0,1.51-1.33,2.43-3.06,2.4A3.7,3.7,0,0,1,856.69,53.81Z"/><path d="M867.58,53.09l.07-5.18c0-1.07-.37-1.32-1.08-1.46v-.34l3.22,0c3.17.05,5.22,1.51,5.18,4.24s-2.09,4.56-5,4.52l-3.51,0v-.34C867.17,54.39,867.56,54.16,867.58,53.09Zm2.92,1.16a3.4,3.4,0,0,0,3.2-3.59c0-2.3-1.5-3.81-4.2-3.85h-.62l-.08,6.27C868.79,54,869.38,54.24,870.5,54.25Z"/><path d="M876.58,47.34c0-.34-.22-.61-.74-.65a.86.86,0,0,1,.8-1,1,1,0,0,1,.92,1.12c0,.7-.59,1.49-1.95,2.2l-.15-.26C876.09,48.32,876.58,47.76,876.58,47.34Z"/><path d="M878.15,50.62a4.48,4.48,0,1,1,4.43,4.6A4.5,4.5,0,0,1,878.15,50.62Zm4.75,3.93c1.58,0,2.86-1.54,2.88-3.45,0-2.93-2-4.29-3.44-4.31s-2.86,1.54-2.88,3.43C879.44,52.64,881.2,54.53,882.9,54.55Z"/><path d="M888.68,53.43l0-5.3c0-1.07-.38-1.31-1.09-1.45v-.34l2.93,0c2.35,0,3.2.89,3.2,2a2.66,2.66,0,0,1-1.78,2c1,.17,2.41,1,2.4,2.26,0,1.65-1.41,2.47-3.41,2.46l-3.39,0v-.34C888.28,54.62,888.67,54.51,888.68,53.43Zm2.67,1.09a1.7,1.7,0,0,0,1.77-1.75c0-1.12-.93-2-2.6-2h-.6l0,2.65C889.9,54.29,890.5,54.52,891.35,54.52Zm-1-4.39c1.36,0,2.14-.74,2.15-1.57s-.37-1.53-2-1.54h-.53l0,3.12Z"/><path d="M896.16,54.18l0-6c0-1.07-.37-1.33-1.22-1.45v-.34h3.53v.34c-.66.13-1.09.37-1.09,1.44l0,6.22a5,5,0,0,1-2.5,3.92l-.18-.3A4.5,4.5,0,0,0,896.16,54.18Z"/><path d="M899.22,46.71V46.4h6.31l.32,2.25-.33.09a2.39,2.39,0,0,0-2.33-1.68h-1.65v3.26h1.08c1.08,0,1.35-.51,1.45-1.21h.34v3.1h-.34c-.11-.75-.37-1.22-1.45-1.22h-1.08v2.4c0,.58.34,1.1,1.68,1.11s2.21-.44,2.56-1.55l.32.05-.29,2.16h-6.59v-.31c.71-.14,1.1-.37,1.1-1.45V48.16C900.32,47.08,899.93,46.85,899.22,46.71Z"/><path d="M910,53.39V47.07h-1.12c-1.27,0-1.74,1-2,2l-.35,0,.14-3H907c.1.3.35.35,1.3.35h4.55c.95,0,1.2,0,1.3-.35h.36l.14,3-.35,0c-.29-1-.76-2-2-2h-1v6.32a1.25,1.25,0,0,0,1.19,1.42v.34H908.8v-.38C909.51,54.63,910,54.47,910,53.39Z"/><path d="M915.6,54.26l0-2.38.31,0c.49,1.86,1.73,2.71,2.83,2.7a1.25,1.25,0,0,0,1.37-1.34,1.64,1.64,0,0,0-1-1.48l-2-1.13a2.31,2.31,0,0,1-1.37-2.06c0-1.31,1.09-2.3,2.84-2.31a5.81,5.81,0,0,1,2.29.53l.07,2.31-.3.08c-.6-1.51-1.4-2.23-2.41-2.23a1.22,1.22,0,0,0-1.33,1.26,1.62,1.62,0,0,0,1,1.39l1.81,1a2.53,2.53,0,0,1,1.59,2.25c0,1.51-1.28,2.45-3,2.46A3.7,3.7,0,0,1,915.6,54.26Z"/><path d="M928.68,53.31l0-6.32h-1.12c-1.27,0-1.74,1-2,2l-.36,0,.12-3h.36c.1.3.36.35,1.3.34l4.55,0c.95,0,1.2-.06,1.3-.36h.36l.16,3-.35,0c-.29-1-.77-2-2-2h-1l0,6.32a1.25,1.25,0,0,0,1.2,1.42v.34l-3.64,0V54.7C928.17,54.55,928.68,54.39,928.68,53.31Z"/><path d="M933.81,46.59v-.31l6.31-.06.34,2.25-.32.09a2.38,2.38,0,0,0-2.35-1.65h-1.65l0,3.26h1.09c1.07,0,1.34-.52,1.44-1.22H939l0,3.1h-.33c-.12-.75-.39-1.22-1.47-1.21h-1.08l0,2.4c0,.57.35,1.09,1.68,1.08s2.21-.46,2.55-1.58l.33,0L940.49,55l-6.6.06v-.31c.71-.15,1.1-.39,1.08-1.46L934.92,48C934.91,47,934.52,46.73,933.81,46.59Z"/><path d="M941.33,50.58A4.51,4.51,0,0,1,945.71,46a7,7,0,0,1,2.9.58l.3,2.14-.28.11c-.9-1.45-1.9-2.16-3.21-2.14-1.54,0-2.75,1.74-2.72,3.63a4,4,0,0,0,3.81,4.09c1.14,0,1.92-.92,2.52-2.28l.29.05-.23,2.1a7.55,7.55,0,0,1-3,.81A4.59,4.59,0,0,1,941.33,50.58Z"/><path d="M951.12,53l-.1-5.2c0-1.07-.41-1.3-1.13-1.43v-.33l3.78-.08v.34c-.79.1-1.46.4-1.43,1.48l0,2.15,4.6-.09,0-2.15c0-1.08-.54-1.35-1.37-1.43V46l3.66-.07v.33c-.66.15-1.08.4-1.06,1.47l.1,5.2c0,1,.45,1.28,1.12,1.41v.33l-3.66.07v-.33c.84-.11,1.35-.4,1.33-1.45l-.05-2.39-4.6.09.05,2.39c0,1,.7,1.32,1.49,1.39v.34l-3.78.07v-.33C950.76,54.31,951.14,54.07,951.12,53Z"/><path d="M961.11,52.74,961,46.8a3.25,3.25,0,0,0-1.2-.61v-.32l2.06,0,5.46,6.43-.1-4.5a1.48,1.48,0,0,0-1.45-1.68v-.34l3.15-.06V46c-.66.22-.95.66-.93,1.74l.15,6.69-.57,0-5.77-6.8.11,5.07c0,.91.46,1.25,1.45,1.48v.34l-3.18.07v-.34C960.86,54.09,961.13,53.65,961.11,52.74Z"/><path d="M970.82,52.57l-.12-5.17c0-1.07-.42-1.3-1.14-1.42v-.34l3.41-.08v.33c-.66.16-1.08.41-1.05,1.48l.13,5.17c0,1.08.45,1.31,1.12,1.43v.33l-3.41.09v-.34C970.47,53.9,970.85,53.65,970.82,52.57Z"/><path d="M978,45.25a4.55,4.55,0,0,1,1.16,9c1.23.42,1.93,1.36,3.86,1.31a7.17,7.17,0,0,0,2.24-.48l.13.29A8.33,8.33,0,0,1,982,56.6c-1.79,0-2.7-1.69-3.78-2.25a4.55,4.55,0,0,1-.21-9.1Zm3.3,4.86c-.08-2.92-2.12-4.22-3.59-4.18s-2.81,1.64-2.76,3.53c.07,2.42,1.89,4.25,3.59,4.2S981.37,52,981.32,50.11Z"/><path d="M984.25,51l-.12-3.87c0-1-.42-1.34-1.14-1.46v-.34l3.77-.11v.34c-.91.11-1.43.52-1.4,1.53l.11,3.68A2.35,2.35,0,0,0,988,53.21a2.25,2.25,0,0,0,2.18-2.5l-.12-3.82c0-1.13-.55-1.38-1.39-1.44v-.34l3.11-.09v.33c-.66.16-1,.38-.94,1.52l.11,3.85a3.36,3.36,0,0,1-6.71.23Z"/><path d="M992.28,45.31V45l6.31-.21L999,47l-.33.1a2.38,2.38,0,0,0-2.39-1.6l-1.65,0,.11,3.27,1.09,0c1.07,0,1.33-.56,1.41-1.26h.33l.11,3.1h-.34c-.14-.75-.42-1.21-1.49-1.18l-1.09,0,.08,2.4c0,.57.37,1.09,1.71,1s2.2-.51,2.51-1.63l.33,0-.22,2.17-6.6.22v-.32c.71-.16,1.09-.41,1.06-1.48l-.18-5.23C993.39,45.65,993,45.42,992.28,45.31Z"/><path d="M1000.39,52.6l0-2.38.32,0c.55,1.85,1.82,2.65,2.92,2.61a1.26,1.26,0,0,0,1.32-1.38,1.66,1.66,0,0,0-1.09-1.45l-2-1.07a2.31,2.31,0,0,1-1.43-2c-.05-1.32,1-2.34,2.77-2.4a5.63,5.63,0,0,1,2.3.45l.15,2.31-.3.09c-.64-1.49-1.47-2.19-2.48-2.15a1.21,1.21,0,0,0-1.29,1.29,1.65,1.65,0,0,0,1,1.37l1.83,1c1.16.63,1.64,1.3,1.67,2.2.05,1.51-1.2,2.49-2.92,2.55A3.7,3.7,0,0,1,1000.39,52.6Z"/></g></g></svg>