<svg xmlns="http://www.w3.org/2000/svg" viewBox="0 0 1056.53 51.51"><defs><style>.cls-1{fill:#fff;stroke:blue;stroke-miterlimit:10;stroke-width:1.85px;}.cls-2{isolation:isolate;font-size:12px;fill:blue;font-family:Adelphe-GerminalRegular, Adelphe;}</style></defs><g id="Calque_2" data-name="Calque 2"><g id="Calque_1-2" data-name="Calque 1"><g id="Calque_2-2" data-name="Calque 2"><g id="Calque_1-2-2" data-name="Calque 1-2"><path class="cls-1" d="M1022.63,34.66c7.54-2.13,13.83-4.41,21.1-6.77-25.2.94-48.15,2-71.41,2.66-55.77,1.61-111.86,1.43-167.92.52C766.53,30.46,580,5.89,568.84,4.61A231,231,0,0,0,530.73.93h-4.59A201.9,201.9,0,0,0,488,4.62c-6,1-198.83,25.86-235.56,26.45-56.05.91-112.15,1.09-167.92-.52-23.26-.68-46.2-1.71-71.4-2.66,7.26,2.36,13.56,4.64,21.09,6.77,3.93,1.12,3.5,1.76-1.62,2.66-8.21,1.43-15.61,3-25.22,4.9,13.33.75,24.37,1.5,35.74,2,74.72,3.23,161.36,2.49,237.3,1.94,16.8-.12,219-27.95,247.43-27.89S772.64,45.9,789.08,46.14c35.6.52,69.83.55,105.26.48,1.52.06,83.71.5,155.14-4.41-9.62-1.89-17-3.47-25.23-4.9C1019.13,36.42,1018.73,35.8,1022.63,34.66Z"/><text class="cls-2" transform="translate(44.3 41.76) rotate(0.35)">D</text><text class="cls-2" transform="translate(53.14 41.8) rotate(0.35)">O</text><text class="cls-2" transform="translate(62.33 41.86) rotate(0.35)">M</text><text class="cls-2" transform="translate(73.54 41.94) rotate(0.35)">O</text><text class="cls-2" transform="translate(82.85 41.98) rotate(0.35)">T</text><text class="cls-2" transform="translate(91.04 42.04) rotate(0.35)">E</text><text class="cls-2" transform="translate(98.25 42.09) rotate(0.35)">C</text><text class="cls-2" transform="translate(109.55 42.15) rotate(0.35)">U</text><text class="cls-2" transform="translate(118.24 42.21) rotate(0.35)">N</text><text class="cls-2" transform="translate(127.59 42.27) rotate(0.35)">E</text><text class="cls-2" transform="translate(137.8 42.34) rotate(0.35)">S</text><text class="cls-2" transform="translate(144.53 42.38) rotate(0.35)">O</text><text class="cls-2" transform="translate(153.6 42.42) rotate(0.35)">L</text><text class="cls-2" transform="translate(160.35 42.46) rotate(0.35)">U</text><text class="cls-2" transform="translate(169.04 42.52) rotate(0.35)">T</text><text class="cls-2" transform="translate(177.22 42.58) rotate(0.35)">I</text><text class="cls-2" transform="translate(181.1 42.59) rotate(0.35)">O</text><text class="cls-2" transform="translate(190.05 42.65) rotate(0.35)">N</text><text class="cls-2" transform="translate(202.4 42.73) rotate(0.35)">P</text><text class="cls-2" transform="translate(209.62 42.77) rotate(0.35)">R</text><text class="cls-2" transform="translate(216.89 42.82) rotate(0.35)">O</text><text class="cls-2" transform="translate(225.96 42.88) rotate(0.35)">P</text><text class="cls-2" transform="translate(233.19 42.92) rotate(0.35)">O</text><text class="cls-2" transform="translate(242.5 42.97) rotate(0.35)">S</text><text class="cls-2" transform="translate(249.35 43.02) rotate(0.35)">É</text><text class="cls-2" transform="translate(256.56 43.07) rotate(0.35)">E</text><text class="cls-2" transform="translate(266.77 43.13) rotate(0.35)">P</text><text class="cls-2" transform="translate(273.28 43.17) rotate(-6.66)">A</text><text class="cls-2" transform="translate(280.93 42.29) rotate(-6.66)">R</text><text class="cls-2" transform="translate(291.61 41.04) rotate(-6.66)">U</text><text class="cls-2" transform="translate(300.24 40.03) rotate(-6.66)">N</text><text class="cls-2" transform="translate(309.52 38.94) rotate(-6.66)">E</text><text class="cls-2" transform="translate(319.66 37.75) rotate(-6.66)">A</text><text class="cls-2" transform="translate(327.32 36.87) rotate(-6.66)">L</text><text class="cls-2" transform="translate(334.25 36.05) rotate(-6.66)">I</text><text class="cls-2" transform="translate(338.22 35.6) rotate(-6.66)">A</text><text class="cls-2" transform="translate(345.87 34.69) rotate(-6.66)">N</text><text class="cls-2" transform="translate(354.92 33.65) rotate(-6.66)">C</text><text class="cls-2" transform="translate(363.17 32.67) rotate(-6.66)">E</text><text class="cls-2" transform="translate(373.31 31.49) rotate(-6.66)">G</text><text class="cls-2" transform="translate(382.31 30.44) rotate(-6.66)">O</text><text class="cls-2" transform="translate(391.56 29.37) rotate(-6.66)">U</text><text class="cls-2" transform="translate(400.19 28.36) rotate(-6.66)">R</text><text class="cls-2" transform="translate(407.53 27.49) rotate(-6.66)">V</text><text class="cls-2" transform="translate(415.18 26.61) rotate(-6.66)">E</text><text class="cls-2" transform="translate(422.35 25.76) rotate(-6.66)">R</text><text class="cls-2" transform="translate(430.05 24.87) rotate(-6.66)">N</text><text class="cls-2" transform="translate(439.33 23.79) rotate(-6.66)">E</text><text class="cls-2" transform="translate(446.49 22.94) rotate(-6.66)">M</text><text class="cls-2" transform="translate(457.63 21.65) rotate(-6.66)">E</text><text class="cls-2" transform="translate(464.79 20.81) rotate(-6.66)">N</text><text class="cls-2" transform="translate(474.07 19.73) rotate(-6.66)">T</text><text class="cls-2" transform="translate(481.49 18.87) rotate(-6.66)">A</text><text class="cls-2" transform="translate(489.14 17.97) rotate(-6.66)">L</text><text class="cls-2" transform="translate(499.06 16.81) rotate(-6.66)">E</text><text class="cls-2" transform="translate(506.22 15.98) rotate(-6.66)">U</text><text class="cls-2" transform="translate(514.85 14.97) rotate(-6.66)">R</text><text class="cls-2" transform="translate(522.07 14.12) rotate(-6.66)">O</text><text class="cls-2" transform="translate(531.08 13.74) rotate(6.59)">P</text><text class="cls-2" transform="translate(538.26 14.56) rotate(6.59)">E</text><text class="cls-2" transform="translate(545.42 15.39) rotate(6.59)">E</text><text class="cls-2" transform="translate(552.59 16.22) rotate(6.59)">N</text><text class="cls-2" transform="translate(561.87 17.28) rotate(6.59)">E</text><text class="cls-2" transform="translate(572.02 18.47) rotate(6.59)">P</text><text class="cls-2" transform="translate(579.19 19.28) rotate(6.59)">O</text><text class="cls-2" transform="translate(588.45 20.36) rotate(6.59)">U</text><text class="cls-2" transform="translate(597.08 21.36) rotate(6.59)">R</text><text class="cls-2" transform="translate(607.76 22.59) rotate(6.59)">D</text><text class="cls-2" transform="translate(616.3 23.58) rotate(6.59)">E</text><text class="cls-2" transform="translate(623.47 24.39) rotate(6.59)">S</text><text class="cls-2" transform="translate(633.14 25.51) rotate(6.59)">U</text><text class="cls-2" transform="translate(641.77 26.51) rotate(6.59)">T</text><text class="cls-2" transform="translate(649.9 27.46) rotate(6.59)">I</text><text class="cls-2" transform="translate(653.87 27.9) rotate(6.59)">L</text><text class="cls-2" transform="translate(660.81 28.72) rotate(6.59)">I</text><text class="cls-2" transform="translate(664.77 29.16) rotate(6.59)">S</text><text class="cls-2" transform="translate(671.34 29.92) rotate(6.59)">A</text><text class="cls-2" transform="translate(678.28 30.73) rotate(6.59)">T</text><text class="cls-2" transform="translate(686.41 31.66) rotate(6.59)">I</text><text class="cls-2" transform="translate(690.26 32.12) rotate(6.59)">O</text><text class="cls-2" transform="translate(699.15 33.13) rotate(6.59)">N</text><text class="cls-2" transform="translate(708.44 34.21) rotate(6.59)">S</text><text class="cls-2" transform="translate(718.11 35.33) rotate(6.59)">A</text><text class="cls-2" transform="translate(725.76 36.21) rotate(6.59)">L</text><text class="cls-2" transform="translate(731.51 36.88) rotate(6.59)">T</text><text class="cls-2" transform="translate(739.64 37.81) rotate(6.59)">E</text><text class="cls-2" transform="translate(746.8 38.63) rotate(6.59)">R</text><text class="cls-2" transform="translate(754.5 39.52) rotate(6.59)">N</text><text class="cls-2" transform="translate(763.79 40.6) rotate(6.59)">A</text><text class="cls-2" transform="translate(770.73 41.39) rotate(6.59)">T</text><text class="cls-2" transform="translate(778.86 42.34) rotate(6.59)">I</text><text class="cls-2" transform="translate(782.83 42.79) rotate(6.59)">V</text><text class="cls-2" transform="translate(790.49 43.4)">E</text><text class="cls-2" transform="translate(800.71 43.45)">A</text><text class="cls-2" transform="translate(808.17 43.47)">U</text><text class="cls-2" transform="translate(816.86 43.52)">X</text><text class="cls-2" transform="translate(828.05 43.57)">U</text><text class="cls-2" transform="translate(836.74 43.6)">S</text><text class="cls-2" transform="translate(843.35 43.64)">A</text><text class="cls-2" transform="translate(850.7 43.67)">G</text><text class="cls-2" transform="translate(859.76 43.71)">E</text><text class="cls-2" transform="translate(866.97 43.74)">S</text><text class="cls-2" transform="translate(876.7 43.79)">D</text><text class="cls-2" transform="translate(885.43 43.84)">’</text><text class="cls-2" transform="translate(887.9 43.84)">O</text><text class="cls-2" transform="translate(896.97 43.85) rotate(-1.26)">B</text><text class="cls-2" transform="translate(904.2 43.68) rotate(-1.26)">J</text><text class="cls-2" transform="translate(908.16 43.6) rotate(-1.26)">E</text><text class="cls-2" transform="translate(915.37 43.44) rotate(-1.26)">T</text><text class="cls-2" transform="translate(923.55 43.26) rotate(-1.26)">S</text><text class="cls-2" transform="translate(933.28 43.05) rotate(-1.26)">T</text><text class="cls-2" transform="translate(941.47 42.86) rotate(-1.26)">E</text><text class="cls-2" transform="translate(948.68 42.7) rotate(-1.26)">C</text><text class="cls-2" transform="translate(956.98 42.53) rotate(-1.26)">H</text><text class="cls-2" transform="translate(966.56 42.31) rotate(-1.26)">N</text><text class="cls-2" transform="translate(975.91 42.11) rotate(-1.26)">I</text><text class="cls-2" transform="translate(979.78 42.03) rotate(-1.26)">Q</text><text class="cls-2" transform="translate(989.11 41.81) rotate(-1.26)">U</text><text class="cls-2" transform="translate(997.79 41.62) rotate(-1.26)">E</text><text class="cls-2" transform="translate(1005 41.48) rotate(-1.26)">S</text><text class="cls-2" transform="translate(1011.37 41.32) rotate(-1.26)">.</text></g></g></g></g></svg>